G04 #@! TF.GenerationSoftware,KiCad,Pcbnew,(5.1.4)-1*
G04 #@! TF.CreationDate,2019-10-26T17:50:02-04:00*
G04 #@! TF.ProjectId,usb-vertical-splitter,7573622d-7665-4727-9469-63616c2d7370,0*
G04 #@! TF.SameCoordinates,Original*
G04 #@! TF.FileFunction,Copper,L1,Top*
G04 #@! TF.FilePolarity,Positive*
%FSLAX46Y46*%
G04 Gerber Fmt 4.6, Leading zero omitted, Abs format (unit mm)*
G04 Created by KiCad (PCBNEW (5.1.4)-1) date 2019-10-26 17:50:02*
%MOMM*%
%LPD*%
G04 APERTURE LIST*
%ADD10C,0.100000*%
%ADD11C,0.975000*%
%ADD12O,3.000000X4.000000*%
%ADD13C,2.200000*%
%ADD14C,1.800000*%
%ADD15O,1.600000X2.200000*%
%ADD16C,3.300000*%
%ADD17C,1.900000*%
%ADD18O,2.000000X1.700000*%
%ADD19C,0.800000*%
%ADD20C,0.800000*%
%ADD21C,1.200000*%
%ADD22C,0.300000*%
G04 APERTURE END LIST*
D10*
G36*
X125492642Y-91501174D02*
G01*
X125516303Y-91504684D01*
X125539507Y-91510496D01*
X125562029Y-91518554D01*
X125583653Y-91528782D01*
X125604170Y-91541079D01*
X125623383Y-91555329D01*
X125641107Y-91571393D01*
X125657171Y-91589117D01*
X125671421Y-91608330D01*
X125683718Y-91628847D01*
X125693946Y-91650471D01*
X125702004Y-91672993D01*
X125707816Y-91696197D01*
X125711326Y-91719858D01*
X125712500Y-91743750D01*
X125712500Y-92656250D01*
X125711326Y-92680142D01*
X125707816Y-92703803D01*
X125702004Y-92727007D01*
X125693946Y-92749529D01*
X125683718Y-92771153D01*
X125671421Y-92791670D01*
X125657171Y-92810883D01*
X125641107Y-92828607D01*
X125623383Y-92844671D01*
X125604170Y-92858921D01*
X125583653Y-92871218D01*
X125562029Y-92881446D01*
X125539507Y-92889504D01*
X125516303Y-92895316D01*
X125492642Y-92898826D01*
X125468750Y-92900000D01*
X124981250Y-92900000D01*
X124957358Y-92898826D01*
X124933697Y-92895316D01*
X124910493Y-92889504D01*
X124887971Y-92881446D01*
X124866347Y-92871218D01*
X124845830Y-92858921D01*
X124826617Y-92844671D01*
X124808893Y-92828607D01*
X124792829Y-92810883D01*
X124778579Y-92791670D01*
X124766282Y-92771153D01*
X124756054Y-92749529D01*
X124747996Y-92727007D01*
X124742184Y-92703803D01*
X124738674Y-92680142D01*
X124737500Y-92656250D01*
X124737500Y-91743750D01*
X124738674Y-91719858D01*
X124742184Y-91696197D01*
X124747996Y-91672993D01*
X124756054Y-91650471D01*
X124766282Y-91628847D01*
X124778579Y-91608330D01*
X124792829Y-91589117D01*
X124808893Y-91571393D01*
X124826617Y-91555329D01*
X124845830Y-91541079D01*
X124866347Y-91528782D01*
X124887971Y-91518554D01*
X124910493Y-91510496D01*
X124933697Y-91504684D01*
X124957358Y-91501174D01*
X124981250Y-91500000D01*
X125468750Y-91500000D01*
X125492642Y-91501174D01*
X125492642Y-91501174D01*
G37*
D11*
X125225000Y-92200000D03*
D10*
G36*
X127367642Y-91501174D02*
G01*
X127391303Y-91504684D01*
X127414507Y-91510496D01*
X127437029Y-91518554D01*
X127458653Y-91528782D01*
X127479170Y-91541079D01*
X127498383Y-91555329D01*
X127516107Y-91571393D01*
X127532171Y-91589117D01*
X127546421Y-91608330D01*
X127558718Y-91628847D01*
X127568946Y-91650471D01*
X127577004Y-91672993D01*
X127582816Y-91696197D01*
X127586326Y-91719858D01*
X127587500Y-91743750D01*
X127587500Y-92656250D01*
X127586326Y-92680142D01*
X127582816Y-92703803D01*
X127577004Y-92727007D01*
X127568946Y-92749529D01*
X127558718Y-92771153D01*
X127546421Y-92791670D01*
X127532171Y-92810883D01*
X127516107Y-92828607D01*
X127498383Y-92844671D01*
X127479170Y-92858921D01*
X127458653Y-92871218D01*
X127437029Y-92881446D01*
X127414507Y-92889504D01*
X127391303Y-92895316D01*
X127367642Y-92898826D01*
X127343750Y-92900000D01*
X126856250Y-92900000D01*
X126832358Y-92898826D01*
X126808697Y-92895316D01*
X126785493Y-92889504D01*
X126762971Y-92881446D01*
X126741347Y-92871218D01*
X126720830Y-92858921D01*
X126701617Y-92844671D01*
X126683893Y-92828607D01*
X126667829Y-92810883D01*
X126653579Y-92791670D01*
X126641282Y-92771153D01*
X126631054Y-92749529D01*
X126622996Y-92727007D01*
X126617184Y-92703803D01*
X126613674Y-92680142D01*
X126612500Y-92656250D01*
X126612500Y-91743750D01*
X126613674Y-91719858D01*
X126617184Y-91696197D01*
X126622996Y-91672993D01*
X126631054Y-91650471D01*
X126641282Y-91628847D01*
X126653579Y-91608330D01*
X126667829Y-91589117D01*
X126683893Y-91571393D01*
X126701617Y-91555329D01*
X126720830Y-91541079D01*
X126741347Y-91528782D01*
X126762971Y-91518554D01*
X126785493Y-91510496D01*
X126808697Y-91504684D01*
X126832358Y-91501174D01*
X126856250Y-91500000D01*
X127343750Y-91500000D01*
X127367642Y-91501174D01*
X127367642Y-91501174D01*
G37*
D11*
X127100000Y-92200000D03*
D10*
G36*
X139067642Y-108401174D02*
G01*
X139091303Y-108404684D01*
X139114507Y-108410496D01*
X139137029Y-108418554D01*
X139158653Y-108428782D01*
X139179170Y-108441079D01*
X139198383Y-108455329D01*
X139216107Y-108471393D01*
X139232171Y-108489117D01*
X139246421Y-108508330D01*
X139258718Y-108528847D01*
X139268946Y-108550471D01*
X139277004Y-108572993D01*
X139282816Y-108596197D01*
X139286326Y-108619858D01*
X139287500Y-108643750D01*
X139287500Y-109556250D01*
X139286326Y-109580142D01*
X139282816Y-109603803D01*
X139277004Y-109627007D01*
X139268946Y-109649529D01*
X139258718Y-109671153D01*
X139246421Y-109691670D01*
X139232171Y-109710883D01*
X139216107Y-109728607D01*
X139198383Y-109744671D01*
X139179170Y-109758921D01*
X139158653Y-109771218D01*
X139137029Y-109781446D01*
X139114507Y-109789504D01*
X139091303Y-109795316D01*
X139067642Y-109798826D01*
X139043750Y-109800000D01*
X138556250Y-109800000D01*
X138532358Y-109798826D01*
X138508697Y-109795316D01*
X138485493Y-109789504D01*
X138462971Y-109781446D01*
X138441347Y-109771218D01*
X138420830Y-109758921D01*
X138401617Y-109744671D01*
X138383893Y-109728607D01*
X138367829Y-109710883D01*
X138353579Y-109691670D01*
X138341282Y-109671153D01*
X138331054Y-109649529D01*
X138322996Y-109627007D01*
X138317184Y-109603803D01*
X138313674Y-109580142D01*
X138312500Y-109556250D01*
X138312500Y-108643750D01*
X138313674Y-108619858D01*
X138317184Y-108596197D01*
X138322996Y-108572993D01*
X138331054Y-108550471D01*
X138341282Y-108528847D01*
X138353579Y-108508330D01*
X138367829Y-108489117D01*
X138383893Y-108471393D01*
X138401617Y-108455329D01*
X138420830Y-108441079D01*
X138441347Y-108428782D01*
X138462971Y-108418554D01*
X138485493Y-108410496D01*
X138508697Y-108404684D01*
X138532358Y-108401174D01*
X138556250Y-108400000D01*
X139043750Y-108400000D01*
X139067642Y-108401174D01*
X139067642Y-108401174D01*
G37*
D11*
X138800000Y-109100000D03*
D10*
G36*
X137192642Y-108401174D02*
G01*
X137216303Y-108404684D01*
X137239507Y-108410496D01*
X137262029Y-108418554D01*
X137283653Y-108428782D01*
X137304170Y-108441079D01*
X137323383Y-108455329D01*
X137341107Y-108471393D01*
X137357171Y-108489117D01*
X137371421Y-108508330D01*
X137383718Y-108528847D01*
X137393946Y-108550471D01*
X137402004Y-108572993D01*
X137407816Y-108596197D01*
X137411326Y-108619858D01*
X137412500Y-108643750D01*
X137412500Y-109556250D01*
X137411326Y-109580142D01*
X137407816Y-109603803D01*
X137402004Y-109627007D01*
X137393946Y-109649529D01*
X137383718Y-109671153D01*
X137371421Y-109691670D01*
X137357171Y-109710883D01*
X137341107Y-109728607D01*
X137323383Y-109744671D01*
X137304170Y-109758921D01*
X137283653Y-109771218D01*
X137262029Y-109781446D01*
X137239507Y-109789504D01*
X137216303Y-109795316D01*
X137192642Y-109798826D01*
X137168750Y-109800000D01*
X136681250Y-109800000D01*
X136657358Y-109798826D01*
X136633697Y-109795316D01*
X136610493Y-109789504D01*
X136587971Y-109781446D01*
X136566347Y-109771218D01*
X136545830Y-109758921D01*
X136526617Y-109744671D01*
X136508893Y-109728607D01*
X136492829Y-109710883D01*
X136478579Y-109691670D01*
X136466282Y-109671153D01*
X136456054Y-109649529D01*
X136447996Y-109627007D01*
X136442184Y-109603803D01*
X136438674Y-109580142D01*
X136437500Y-109556250D01*
X136437500Y-108643750D01*
X136438674Y-108619858D01*
X136442184Y-108596197D01*
X136447996Y-108572993D01*
X136456054Y-108550471D01*
X136466282Y-108528847D01*
X136478579Y-108508330D01*
X136492829Y-108489117D01*
X136508893Y-108471393D01*
X136526617Y-108455329D01*
X136545830Y-108441079D01*
X136566347Y-108428782D01*
X136587971Y-108418554D01*
X136610493Y-108410496D01*
X136633697Y-108404684D01*
X136657358Y-108401174D01*
X136681250Y-108400000D01*
X137168750Y-108400000D01*
X137192642Y-108401174D01*
X137192642Y-108401174D01*
G37*
D11*
X136925000Y-109100000D03*
D12*
X141350000Y-89500000D03*
X129650000Y-89500000D03*
D13*
X137800000Y-89500000D03*
X133200000Y-89500000D03*
D14*
X139000000Y-91600000D03*
D15*
X136500000Y-91700000D03*
X134500000Y-91700000D03*
D14*
X132000000Y-91600000D03*
D16*
X143710000Y-108570000D03*
X143710000Y-95430000D03*
D17*
X141000000Y-105500000D03*
D18*
X141000000Y-103000000D03*
X141000000Y-101000000D03*
D17*
X141000000Y-98500000D03*
X134710000Y-105500000D03*
D18*
X134710000Y-103000000D03*
X134710000Y-101000000D03*
D17*
X134710000Y-98500000D03*
D16*
X132000000Y-108570000D03*
X132000000Y-95430000D03*
D10*
G36*
X139067642Y-106401174D02*
G01*
X139091303Y-106404684D01*
X139114507Y-106410496D01*
X139137029Y-106418554D01*
X139158653Y-106428782D01*
X139179170Y-106441079D01*
X139198383Y-106455329D01*
X139216107Y-106471393D01*
X139232171Y-106489117D01*
X139246421Y-106508330D01*
X139258718Y-106528847D01*
X139268946Y-106550471D01*
X139277004Y-106572993D01*
X139282816Y-106596197D01*
X139286326Y-106619858D01*
X139287500Y-106643750D01*
X139287500Y-107556250D01*
X139286326Y-107580142D01*
X139282816Y-107603803D01*
X139277004Y-107627007D01*
X139268946Y-107649529D01*
X139258718Y-107671153D01*
X139246421Y-107691670D01*
X139232171Y-107710883D01*
X139216107Y-107728607D01*
X139198383Y-107744671D01*
X139179170Y-107758921D01*
X139158653Y-107771218D01*
X139137029Y-107781446D01*
X139114507Y-107789504D01*
X139091303Y-107795316D01*
X139067642Y-107798826D01*
X139043750Y-107800000D01*
X138556250Y-107800000D01*
X138532358Y-107798826D01*
X138508697Y-107795316D01*
X138485493Y-107789504D01*
X138462971Y-107781446D01*
X138441347Y-107771218D01*
X138420830Y-107758921D01*
X138401617Y-107744671D01*
X138383893Y-107728607D01*
X138367829Y-107710883D01*
X138353579Y-107691670D01*
X138341282Y-107671153D01*
X138331054Y-107649529D01*
X138322996Y-107627007D01*
X138317184Y-107603803D01*
X138313674Y-107580142D01*
X138312500Y-107556250D01*
X138312500Y-106643750D01*
X138313674Y-106619858D01*
X138317184Y-106596197D01*
X138322996Y-106572993D01*
X138331054Y-106550471D01*
X138341282Y-106528847D01*
X138353579Y-106508330D01*
X138367829Y-106489117D01*
X138383893Y-106471393D01*
X138401617Y-106455329D01*
X138420830Y-106441079D01*
X138441347Y-106428782D01*
X138462971Y-106418554D01*
X138485493Y-106410496D01*
X138508697Y-106404684D01*
X138532358Y-106401174D01*
X138556250Y-106400000D01*
X139043750Y-106400000D01*
X139067642Y-106401174D01*
X139067642Y-106401174D01*
G37*
D11*
X138800000Y-107100000D03*
D10*
G36*
X137192642Y-106401174D02*
G01*
X137216303Y-106404684D01*
X137239507Y-106410496D01*
X137262029Y-106418554D01*
X137283653Y-106428782D01*
X137304170Y-106441079D01*
X137323383Y-106455329D01*
X137341107Y-106471393D01*
X137357171Y-106489117D01*
X137371421Y-106508330D01*
X137383718Y-106528847D01*
X137393946Y-106550471D01*
X137402004Y-106572993D01*
X137407816Y-106596197D01*
X137411326Y-106619858D01*
X137412500Y-106643750D01*
X137412500Y-107556250D01*
X137411326Y-107580142D01*
X137407816Y-107603803D01*
X137402004Y-107627007D01*
X137393946Y-107649529D01*
X137383718Y-107671153D01*
X137371421Y-107691670D01*
X137357171Y-107710883D01*
X137341107Y-107728607D01*
X137323383Y-107744671D01*
X137304170Y-107758921D01*
X137283653Y-107771218D01*
X137262029Y-107781446D01*
X137239507Y-107789504D01*
X137216303Y-107795316D01*
X137192642Y-107798826D01*
X137168750Y-107800000D01*
X136681250Y-107800000D01*
X136657358Y-107798826D01*
X136633697Y-107795316D01*
X136610493Y-107789504D01*
X136587971Y-107781446D01*
X136566347Y-107771218D01*
X136545830Y-107758921D01*
X136526617Y-107744671D01*
X136508893Y-107728607D01*
X136492829Y-107710883D01*
X136478579Y-107691670D01*
X136466282Y-107671153D01*
X136456054Y-107649529D01*
X136447996Y-107627007D01*
X136442184Y-107603803D01*
X136438674Y-107580142D01*
X136437500Y-107556250D01*
X136437500Y-106643750D01*
X136438674Y-106619858D01*
X136442184Y-106596197D01*
X136447996Y-106572993D01*
X136456054Y-106550471D01*
X136466282Y-106528847D01*
X136478579Y-106508330D01*
X136492829Y-106489117D01*
X136508893Y-106471393D01*
X136526617Y-106455329D01*
X136545830Y-106441079D01*
X136566347Y-106428782D01*
X136587971Y-106418554D01*
X136610493Y-106410496D01*
X136633697Y-106404684D01*
X136657358Y-106401174D01*
X136681250Y-106400000D01*
X137168750Y-106400000D01*
X137192642Y-106401174D01*
X137192642Y-106401174D01*
G37*
D11*
X136925000Y-107100000D03*
D10*
G36*
X137880142Y-104651174D02*
G01*
X137903803Y-104654684D01*
X137927007Y-104660496D01*
X137949529Y-104668554D01*
X137971153Y-104678782D01*
X137991670Y-104691079D01*
X138010883Y-104705329D01*
X138028607Y-104721393D01*
X138044671Y-104739117D01*
X138058921Y-104758330D01*
X138071218Y-104778847D01*
X138081446Y-104800471D01*
X138089504Y-104822993D01*
X138095316Y-104846197D01*
X138098826Y-104869858D01*
X138100000Y-104893750D01*
X138100000Y-105381250D01*
X138098826Y-105405142D01*
X138095316Y-105428803D01*
X138089504Y-105452007D01*
X138081446Y-105474529D01*
X138071218Y-105496153D01*
X138058921Y-105516670D01*
X138044671Y-105535883D01*
X138028607Y-105553607D01*
X138010883Y-105569671D01*
X137991670Y-105583921D01*
X137971153Y-105596218D01*
X137949529Y-105606446D01*
X137927007Y-105614504D01*
X137903803Y-105620316D01*
X137880142Y-105623826D01*
X137856250Y-105625000D01*
X136943750Y-105625000D01*
X136919858Y-105623826D01*
X136896197Y-105620316D01*
X136872993Y-105614504D01*
X136850471Y-105606446D01*
X136828847Y-105596218D01*
X136808330Y-105583921D01*
X136789117Y-105569671D01*
X136771393Y-105553607D01*
X136755329Y-105535883D01*
X136741079Y-105516670D01*
X136728782Y-105496153D01*
X136718554Y-105474529D01*
X136710496Y-105452007D01*
X136704684Y-105428803D01*
X136701174Y-105405142D01*
X136700000Y-105381250D01*
X136700000Y-104893750D01*
X136701174Y-104869858D01*
X136704684Y-104846197D01*
X136710496Y-104822993D01*
X136718554Y-104800471D01*
X136728782Y-104778847D01*
X136741079Y-104758330D01*
X136755329Y-104739117D01*
X136771393Y-104721393D01*
X136789117Y-104705329D01*
X136808330Y-104691079D01*
X136828847Y-104678782D01*
X136850471Y-104668554D01*
X136872993Y-104660496D01*
X136896197Y-104654684D01*
X136919858Y-104651174D01*
X136943750Y-104650000D01*
X137856250Y-104650000D01*
X137880142Y-104651174D01*
X137880142Y-104651174D01*
G37*
D11*
X137400000Y-105137500D03*
D10*
G36*
X137880142Y-102776174D02*
G01*
X137903803Y-102779684D01*
X137927007Y-102785496D01*
X137949529Y-102793554D01*
X137971153Y-102803782D01*
X137991670Y-102816079D01*
X138010883Y-102830329D01*
X138028607Y-102846393D01*
X138044671Y-102864117D01*
X138058921Y-102883330D01*
X138071218Y-102903847D01*
X138081446Y-102925471D01*
X138089504Y-102947993D01*
X138095316Y-102971197D01*
X138098826Y-102994858D01*
X138100000Y-103018750D01*
X138100000Y-103506250D01*
X138098826Y-103530142D01*
X138095316Y-103553803D01*
X138089504Y-103577007D01*
X138081446Y-103599529D01*
X138071218Y-103621153D01*
X138058921Y-103641670D01*
X138044671Y-103660883D01*
X138028607Y-103678607D01*
X138010883Y-103694671D01*
X137991670Y-103708921D01*
X137971153Y-103721218D01*
X137949529Y-103731446D01*
X137927007Y-103739504D01*
X137903803Y-103745316D01*
X137880142Y-103748826D01*
X137856250Y-103750000D01*
X136943750Y-103750000D01*
X136919858Y-103748826D01*
X136896197Y-103745316D01*
X136872993Y-103739504D01*
X136850471Y-103731446D01*
X136828847Y-103721218D01*
X136808330Y-103708921D01*
X136789117Y-103694671D01*
X136771393Y-103678607D01*
X136755329Y-103660883D01*
X136741079Y-103641670D01*
X136728782Y-103621153D01*
X136718554Y-103599529D01*
X136710496Y-103577007D01*
X136704684Y-103553803D01*
X136701174Y-103530142D01*
X136700000Y-103506250D01*
X136700000Y-103018750D01*
X136701174Y-102994858D01*
X136704684Y-102971197D01*
X136710496Y-102947993D01*
X136718554Y-102925471D01*
X136728782Y-102903847D01*
X136741079Y-102883330D01*
X136755329Y-102864117D01*
X136771393Y-102846393D01*
X136789117Y-102830329D01*
X136808330Y-102816079D01*
X136828847Y-102803782D01*
X136850471Y-102793554D01*
X136872993Y-102785496D01*
X136896197Y-102779684D01*
X136919858Y-102776174D01*
X136943750Y-102775000D01*
X137856250Y-102775000D01*
X137880142Y-102776174D01*
X137880142Y-102776174D01*
G37*
D11*
X137400000Y-103262500D03*
D19*
X125250000Y-93700000D03*
X140050000Y-96900000D03*
X140050000Y-95500000D03*
X138000000Y-92800000D03*
X139100000Y-93950000D03*
X135400000Y-96500000D03*
X134450000Y-95500000D03*
X133650000Y-93740000D03*
X145800000Y-112200000D03*
X130650000Y-106350000D03*
X135400000Y-107450000D03*
X137580000Y-101920000D03*
X136550000Y-100600000D03*
X138800000Y-103550000D03*
X142900000Y-103150000D03*
X142900000Y-101800000D03*
X142900000Y-100200000D03*
X125000000Y-112000000D03*
X125000000Y-109000000D03*
X125000000Y-106000000D03*
X125000000Y-103400000D03*
X125000000Y-100000000D03*
X125000000Y-97000000D03*
X125000000Y-91000000D03*
X144000000Y-91000000D03*
X146000000Y-91000000D03*
X148000000Y-91000000D03*
X150000000Y-91000000D03*
X150000000Y-93000000D03*
X150000000Y-95000000D03*
X150000000Y-97000000D03*
X150000000Y-99000000D03*
X148000000Y-99000000D03*
X148000000Y-97000000D03*
X148000000Y-95000000D03*
X148000000Y-93000000D03*
X146000000Y-93000000D03*
X140000000Y-93000000D03*
X135500000Y-109500000D03*
X134000000Y-109500000D03*
X142900000Y-98000000D03*
X141300000Y-96200000D03*
X132500000Y-103700000D03*
X132700000Y-100800000D03*
X132900000Y-106100000D03*
X142600000Y-113300000D03*
X144900000Y-113300000D03*
X144900000Y-111000000D03*
X142600000Y-111000000D03*
D20*
X136925000Y-105612500D02*
X137400000Y-105137500D01*
X136925000Y-107100000D02*
X136925000Y-105612500D01*
X125225000Y-92200000D02*
X125225000Y-93675000D01*
X125225000Y-93675000D02*
X125250000Y-93700000D01*
D21*
X138500000Y-98500000D02*
X141000000Y-101000000D01*
X138500000Y-95500000D02*
X138500000Y-98500000D01*
X136500000Y-91600000D02*
X136500000Y-93500000D01*
X136500000Y-93500000D02*
X138500000Y-95500000D01*
X140750001Y-102750001D02*
X141000000Y-103000000D01*
X139249999Y-101840001D02*
X140159999Y-102750001D01*
X138690000Y-100690000D02*
X139249999Y-101840001D01*
X139199990Y-101683456D02*
X138690000Y-100690000D01*
X140159999Y-102750001D02*
X140750001Y-102750001D01*
X134900001Y-93023999D02*
X135200000Y-94200000D01*
X134500000Y-91600000D02*
X134900001Y-93023999D01*
X135200000Y-94200000D02*
X137000000Y-96000000D01*
X137000000Y-96000000D02*
X137000000Y-99000000D01*
X137000000Y-99000000D02*
X138700000Y-100700000D01*
X138700000Y-100700000D02*
X139199990Y-101683456D01*
D20*
X134710000Y-101000000D02*
X134710000Y-103000000D01*
D22*
G36*
X128193417Y-91456583D02*
G01*
X128505570Y-91712760D01*
X128861703Y-91903117D01*
X129248130Y-92020338D01*
X129650000Y-92059919D01*
X130051869Y-92020338D01*
X130438296Y-91903117D01*
X130794430Y-91712760D01*
X131106583Y-91456583D01*
X131194053Y-91350000D01*
X132885226Y-91350000D01*
X132918008Y-91356521D01*
X132933277Y-91366723D01*
X132943479Y-91381992D01*
X132950000Y-91414774D01*
X132950000Y-93085226D01*
X132947201Y-93099296D01*
X132912087Y-93134410D01*
X132904191Y-93146228D01*
X132885226Y-93150000D01*
X130100000Y-93150000D01*
X130070737Y-93152882D01*
X129994200Y-93168106D01*
X129966061Y-93176642D01*
X129940126Y-93190504D01*
X129875242Y-93233859D01*
X129852512Y-93252514D01*
X129833859Y-93275242D01*
X129790504Y-93340126D01*
X129776643Y-93366059D01*
X129768106Y-93394200D01*
X129752882Y-93470737D01*
X129750000Y-93500000D01*
X129750000Y-97200000D01*
X129752882Y-97229263D01*
X129768106Y-97305800D01*
X129776642Y-97333939D01*
X129790504Y-97359874D01*
X129833859Y-97424758D01*
X129852514Y-97447488D01*
X129875242Y-97466141D01*
X129940126Y-97509496D01*
X129966059Y-97523357D01*
X129994200Y-97531894D01*
X130070737Y-97547118D01*
X130100000Y-97550000D01*
X131381133Y-97550000D01*
X131783319Y-97630000D01*
X132216681Y-97630000D01*
X132618867Y-97550000D01*
X135385226Y-97550000D01*
X135418008Y-97556521D01*
X135433277Y-97566723D01*
X135443479Y-97581992D01*
X135450000Y-97614774D01*
X135450000Y-99727918D01*
X135398349Y-99700310D01*
X135134448Y-99620257D01*
X134928777Y-99600000D01*
X134491223Y-99600000D01*
X134285552Y-99620257D01*
X134021651Y-99700310D01*
X133778438Y-99830310D01*
X133754446Y-99850000D01*
X130000000Y-99850000D01*
X129970737Y-99852882D01*
X129894200Y-99868106D01*
X129866061Y-99876642D01*
X129840126Y-99890504D01*
X129775242Y-99933859D01*
X129752512Y-99952514D01*
X129733859Y-99975242D01*
X129690504Y-100040126D01*
X129676643Y-100066059D01*
X129668106Y-100094200D01*
X129652882Y-100170737D01*
X129650000Y-100200000D01*
X129650000Y-110300000D01*
X129652882Y-110329263D01*
X129668106Y-110405800D01*
X129676642Y-110433939D01*
X129690504Y-110459874D01*
X129733859Y-110524758D01*
X129752514Y-110547488D01*
X129775242Y-110566141D01*
X129840126Y-110609496D01*
X129866059Y-110623357D01*
X129894200Y-110631894D01*
X129970737Y-110647118D01*
X130000000Y-110650000D01*
X131272688Y-110650000D01*
X131358284Y-110685455D01*
X131783319Y-110770000D01*
X132216681Y-110770000D01*
X132641716Y-110685455D01*
X132727312Y-110650000D01*
X137704597Y-110650000D01*
X137742858Y-110645038D01*
X137841513Y-110619013D01*
X137869073Y-110608762D01*
X137894104Y-110593331D01*
X137908078Y-110581267D01*
X137981057Y-110509965D01*
X137999974Y-110487452D01*
X138014136Y-110461682D01*
X138020340Y-110444296D01*
X138048652Y-110346273D01*
X138054502Y-110308137D01*
X138144964Y-106418285D01*
X138156898Y-106376967D01*
X138173271Y-106360970D01*
X138214854Y-106350000D01*
X139200000Y-106350000D01*
X139229263Y-106347118D01*
X139305800Y-106331894D01*
X139333939Y-106323358D01*
X139359874Y-106309496D01*
X139424758Y-106266141D01*
X139447488Y-106247486D01*
X139466141Y-106224758D01*
X139509496Y-106159874D01*
X139523357Y-106133941D01*
X139531894Y-106105800D01*
X139547118Y-106029263D01*
X139550000Y-106000000D01*
X139550000Y-104314774D01*
X139556521Y-104281992D01*
X139566723Y-104266723D01*
X139581992Y-104256521D01*
X139614774Y-104250000D01*
X140218688Y-104250000D01*
X140311651Y-104299690D01*
X140575552Y-104379743D01*
X140781223Y-104400000D01*
X141218777Y-104400000D01*
X141424448Y-104379743D01*
X141688349Y-104299690D01*
X141781312Y-104250000D01*
X142685226Y-104250000D01*
X142718008Y-104256521D01*
X142733277Y-104266723D01*
X142743479Y-104281992D01*
X142750000Y-104314774D01*
X142750000Y-105926615D01*
X142733408Y-105988498D01*
X142121965Y-107046765D01*
X142001148Y-107167582D01*
X141760385Y-107527909D01*
X141594545Y-107928284D01*
X141585043Y-107976053D01*
X141496947Y-108128527D01*
X141481944Y-108164723D01*
X141455117Y-108264778D01*
X141450000Y-108303624D01*
X141450000Y-113785226D01*
X141443479Y-113818008D01*
X141433277Y-113833277D01*
X141418008Y-113843479D01*
X141385226Y-113850000D01*
X126514774Y-113850000D01*
X126481992Y-113843479D01*
X126466723Y-113833277D01*
X126456521Y-113818008D01*
X126450000Y-113785226D01*
X126450000Y-91414774D01*
X126456521Y-91381992D01*
X126466723Y-91366723D01*
X126481992Y-91356521D01*
X126514774Y-91350000D01*
X128105947Y-91350000D01*
X128193417Y-91456583D01*
X128193417Y-91456583D01*
G37*
X128193417Y-91456583D02*
X128505570Y-91712760D01*
X128861703Y-91903117D01*
X129248130Y-92020338D01*
X129650000Y-92059919D01*
X130051869Y-92020338D01*
X130438296Y-91903117D01*
X130794430Y-91712760D01*
X131106583Y-91456583D01*
X131194053Y-91350000D01*
X132885226Y-91350000D01*
X132918008Y-91356521D01*
X132933277Y-91366723D01*
X132943479Y-91381992D01*
X132950000Y-91414774D01*
X132950000Y-93085226D01*
X132947201Y-93099296D01*
X132912087Y-93134410D01*
X132904191Y-93146228D01*
X132885226Y-93150000D01*
X130100000Y-93150000D01*
X130070737Y-93152882D01*
X129994200Y-93168106D01*
X129966061Y-93176642D01*
X129940126Y-93190504D01*
X129875242Y-93233859D01*
X129852512Y-93252514D01*
X129833859Y-93275242D01*
X129790504Y-93340126D01*
X129776643Y-93366059D01*
X129768106Y-93394200D01*
X129752882Y-93470737D01*
X129750000Y-93500000D01*
X129750000Y-97200000D01*
X129752882Y-97229263D01*
X129768106Y-97305800D01*
X129776642Y-97333939D01*
X129790504Y-97359874D01*
X129833859Y-97424758D01*
X129852514Y-97447488D01*
X129875242Y-97466141D01*
X129940126Y-97509496D01*
X129966059Y-97523357D01*
X129994200Y-97531894D01*
X130070737Y-97547118D01*
X130100000Y-97550000D01*
X131381133Y-97550000D01*
X131783319Y-97630000D01*
X132216681Y-97630000D01*
X132618867Y-97550000D01*
X135385226Y-97550000D01*
X135418008Y-97556521D01*
X135433277Y-97566723D01*
X135443479Y-97581992D01*
X135450000Y-97614774D01*
X135450000Y-99727918D01*
X135398349Y-99700310D01*
X135134448Y-99620257D01*
X134928777Y-99600000D01*
X134491223Y-99600000D01*
X134285552Y-99620257D01*
X134021651Y-99700310D01*
X133778438Y-99830310D01*
X133754446Y-99850000D01*
X130000000Y-99850000D01*
X129970737Y-99852882D01*
X129894200Y-99868106D01*
X129866061Y-99876642D01*
X129840126Y-99890504D01*
X129775242Y-99933859D01*
X129752512Y-99952514D01*
X129733859Y-99975242D01*
X129690504Y-100040126D01*
X129676643Y-100066059D01*
X129668106Y-100094200D01*
X129652882Y-100170737D01*
X129650000Y-100200000D01*
X129650000Y-110300000D01*
X129652882Y-110329263D01*
X129668106Y-110405800D01*
X129676642Y-110433939D01*
X129690504Y-110459874D01*
X129733859Y-110524758D01*
X129752514Y-110547488D01*
X129775242Y-110566141D01*
X129840126Y-110609496D01*
X129866059Y-110623357D01*
X129894200Y-110631894D01*
X129970737Y-110647118D01*
X130000000Y-110650000D01*
X131272688Y-110650000D01*
X131358284Y-110685455D01*
X131783319Y-110770000D01*
X132216681Y-110770000D01*
X132641716Y-110685455D01*
X132727312Y-110650000D01*
X137704597Y-110650000D01*
X137742858Y-110645038D01*
X137841513Y-110619013D01*
X137869073Y-110608762D01*
X137894104Y-110593331D01*
X137908078Y-110581267D01*
X137981057Y-110509965D01*
X137999974Y-110487452D01*
X138014136Y-110461682D01*
X138020340Y-110444296D01*
X138048652Y-110346273D01*
X138054502Y-110308137D01*
X138144964Y-106418285D01*
X138156898Y-106376967D01*
X138173271Y-106360970D01*
X138214854Y-106350000D01*
X139200000Y-106350000D01*
X139229263Y-106347118D01*
X139305800Y-106331894D01*
X139333939Y-106323358D01*
X139359874Y-106309496D01*
X139424758Y-106266141D01*
X139447488Y-106247486D01*
X139466141Y-106224758D01*
X139509496Y-106159874D01*
X139523357Y-106133941D01*
X139531894Y-106105800D01*
X139547118Y-106029263D01*
X139550000Y-106000000D01*
X139550000Y-104314774D01*
X139556521Y-104281992D01*
X139566723Y-104266723D01*
X139581992Y-104256521D01*
X139614774Y-104250000D01*
X140218688Y-104250000D01*
X140311651Y-104299690D01*
X140575552Y-104379743D01*
X140781223Y-104400000D01*
X141218777Y-104400000D01*
X141424448Y-104379743D01*
X141688349Y-104299690D01*
X141781312Y-104250000D01*
X142685226Y-104250000D01*
X142718008Y-104256521D01*
X142733277Y-104266723D01*
X142743479Y-104281992D01*
X142750000Y-104314774D01*
X142750000Y-105926615D01*
X142733408Y-105988498D01*
X142121965Y-107046765D01*
X142001148Y-107167582D01*
X141760385Y-107527909D01*
X141594545Y-107928284D01*
X141585043Y-107976053D01*
X141496947Y-108128527D01*
X141481944Y-108164723D01*
X141455117Y-108264778D01*
X141450000Y-108303624D01*
X141450000Y-113785226D01*
X141443479Y-113818008D01*
X141433277Y-113833277D01*
X141418008Y-113843479D01*
X141385226Y-113850000D01*
X126514774Y-113850000D01*
X126481992Y-113843479D01*
X126466723Y-113833277D01*
X126456521Y-113818008D01*
X126450000Y-113785226D01*
X126450000Y-91414774D01*
X126456521Y-91381992D01*
X126466723Y-91366723D01*
X126481992Y-91356521D01*
X126514774Y-91350000D01*
X128105947Y-91350000D01*
X128193417Y-91456583D01*
G36*
X126392701Y-90660568D02*
G01*
X126316164Y-90675792D01*
X126212982Y-90707092D01*
X126117895Y-90757919D01*
X126053011Y-90801274D01*
X125969674Y-90869667D01*
X125901274Y-90953011D01*
X125857919Y-91017895D01*
X125807090Y-91112988D01*
X125775792Y-91216164D01*
X125760568Y-91292701D01*
X125750000Y-91400000D01*
X125750000Y-113800000D01*
X125754925Y-113850000D01*
X124714774Y-113850000D01*
X124681992Y-113843479D01*
X124666723Y-113833277D01*
X124656521Y-113818008D01*
X124650000Y-113785226D01*
X124650000Y-90714774D01*
X124656521Y-90681992D01*
X124666723Y-90666723D01*
X124681992Y-90656521D01*
X124714774Y-90650000D01*
X126500000Y-90650000D01*
X126392701Y-90660568D01*
X126392701Y-90660568D01*
G37*
X126392701Y-90660568D02*
X126316164Y-90675792D01*
X126212982Y-90707092D01*
X126117895Y-90757919D01*
X126053011Y-90801274D01*
X125969674Y-90869667D01*
X125901274Y-90953011D01*
X125857919Y-91017895D01*
X125807090Y-91112988D01*
X125775792Y-91216164D01*
X125760568Y-91292701D01*
X125750000Y-91400000D01*
X125750000Y-113800000D01*
X125754925Y-113850000D01*
X124714774Y-113850000D01*
X124681992Y-113843479D01*
X124666723Y-113833277D01*
X124656521Y-113818008D01*
X124650000Y-113785226D01*
X124650000Y-90714774D01*
X124656521Y-90681992D01*
X124666723Y-90666723D01*
X124681992Y-90656521D01*
X124714774Y-90650000D01*
X126500000Y-90650000D01*
X126392701Y-90660568D01*
G36*
X150318008Y-90656521D02*
G01*
X150333277Y-90666723D01*
X150343479Y-90681992D01*
X150350000Y-90714774D01*
X150350000Y-113785226D01*
X150343479Y-113818008D01*
X150333277Y-113833277D01*
X150318008Y-113843479D01*
X150285226Y-113850000D01*
X142145075Y-113850000D01*
X142150000Y-113800000D01*
X142150000Y-108397468D01*
X143349399Y-106321584D01*
X143404409Y-106188867D01*
X143431236Y-106088812D01*
X143450000Y-105946376D01*
X143450000Y-104300000D01*
X143439432Y-104192701D01*
X143424208Y-104116164D01*
X143392908Y-104012982D01*
X143342081Y-103917895D01*
X143298726Y-103853011D01*
X143230333Y-103769674D01*
X143146989Y-103701274D01*
X143082105Y-103657919D01*
X142987012Y-103607090D01*
X142883836Y-103575792D01*
X142807299Y-103560568D01*
X142700000Y-103550000D01*
X142443462Y-103550000D01*
X142449690Y-103538349D01*
X142529743Y-103274448D01*
X142556774Y-103000000D01*
X142529743Y-102725552D01*
X142449690Y-102461651D01*
X142319690Y-102218438D01*
X142144739Y-102005261D01*
X142138328Y-102000000D01*
X142144739Y-101994739D01*
X142319690Y-101781562D01*
X142449690Y-101538349D01*
X142529743Y-101274448D01*
X142556774Y-101000000D01*
X142529743Y-100725552D01*
X142449690Y-100461651D01*
X142319690Y-100218438D01*
X142144739Y-100005261D01*
X141931562Y-99830310D01*
X141688349Y-99700310D01*
X141424448Y-99620257D01*
X141227172Y-99600827D01*
X139650000Y-98023656D01*
X139650000Y-95556481D01*
X139655563Y-95499999D01*
X139650000Y-95443517D01*
X139650000Y-95443508D01*
X139633360Y-95274561D01*
X139567602Y-95057785D01*
X139460816Y-94858003D01*
X139317107Y-94682893D01*
X139273231Y-94646885D01*
X137650000Y-93023656D01*
X137650000Y-92712331D01*
X137753272Y-92519122D01*
X137830467Y-92264646D01*
X137850000Y-92066321D01*
X137850000Y-91333680D01*
X137830467Y-91135355D01*
X137753272Y-90880878D01*
X137629865Y-90650000D01*
X150285226Y-90650000D01*
X150318008Y-90656521D01*
X150318008Y-90656521D01*
G37*
X150318008Y-90656521D02*
X150333277Y-90666723D01*
X150343479Y-90681992D01*
X150350000Y-90714774D01*
X150350000Y-113785226D01*
X150343479Y-113818008D01*
X150333277Y-113833277D01*
X150318008Y-113843479D01*
X150285226Y-113850000D01*
X142145075Y-113850000D01*
X142150000Y-113800000D01*
X142150000Y-108397468D01*
X143349399Y-106321584D01*
X143404409Y-106188867D01*
X143431236Y-106088812D01*
X143450000Y-105946376D01*
X143450000Y-104300000D01*
X143439432Y-104192701D01*
X143424208Y-104116164D01*
X143392908Y-104012982D01*
X143342081Y-103917895D01*
X143298726Y-103853011D01*
X143230333Y-103769674D01*
X143146989Y-103701274D01*
X143082105Y-103657919D01*
X142987012Y-103607090D01*
X142883836Y-103575792D01*
X142807299Y-103560568D01*
X142700000Y-103550000D01*
X142443462Y-103550000D01*
X142449690Y-103538349D01*
X142529743Y-103274448D01*
X142556774Y-103000000D01*
X142529743Y-102725552D01*
X142449690Y-102461651D01*
X142319690Y-102218438D01*
X142144739Y-102005261D01*
X142138328Y-102000000D01*
X142144739Y-101994739D01*
X142319690Y-101781562D01*
X142449690Y-101538349D01*
X142529743Y-101274448D01*
X142556774Y-101000000D01*
X142529743Y-100725552D01*
X142449690Y-100461651D01*
X142319690Y-100218438D01*
X142144739Y-100005261D01*
X141931562Y-99830310D01*
X141688349Y-99700310D01*
X141424448Y-99620257D01*
X141227172Y-99600827D01*
X139650000Y-98023656D01*
X139650000Y-95556481D01*
X139655563Y-95499999D01*
X139650000Y-95443517D01*
X139650000Y-95443508D01*
X139633360Y-95274561D01*
X139567602Y-95057785D01*
X139460816Y-94858003D01*
X139317107Y-94682893D01*
X139273231Y-94646885D01*
X137650000Y-93023656D01*
X137650000Y-92712331D01*
X137753272Y-92519122D01*
X137830467Y-92264646D01*
X137850000Y-92066321D01*
X137850000Y-91333680D01*
X137830467Y-91135355D01*
X137753272Y-90880878D01*
X137629865Y-90650000D01*
X150285226Y-90650000D01*
X150318008Y-90656521D01*
G36*
X136182894Y-99817107D02*
G01*
X136226776Y-99853120D01*
X137740486Y-101366831D01*
X138176053Y-102261299D01*
X138182398Y-102282216D01*
X138225564Y-102362975D01*
X138240803Y-102394268D01*
X138252182Y-102412773D01*
X138289184Y-102481998D01*
X138311392Y-102509058D01*
X138329729Y-102538878D01*
X138383102Y-102596437D01*
X138396881Y-102613227D01*
X138421488Y-102637834D01*
X138483756Y-102704986D01*
X138501462Y-102717808D01*
X139306883Y-103523231D01*
X139342892Y-103567108D01*
X139370392Y-103589677D01*
X139312982Y-103607092D01*
X139217895Y-103657919D01*
X139153011Y-103701274D01*
X139069674Y-103769667D01*
X139001274Y-103853011D01*
X138957919Y-103917895D01*
X138907090Y-104012988D01*
X138875792Y-104116164D01*
X138860568Y-104192701D01*
X138850000Y-104300000D01*
X138850000Y-105650000D01*
X138602965Y-105650000D01*
X138637358Y-105536622D01*
X138652661Y-105381250D01*
X138652661Y-104893750D01*
X138637358Y-104738378D01*
X138592038Y-104588977D01*
X138518442Y-104451288D01*
X138419398Y-104330602D01*
X138298712Y-104231558D01*
X138161023Y-104157962D01*
X138011622Y-104112642D01*
X137856250Y-104097339D01*
X136943750Y-104097339D01*
X136788378Y-104112642D01*
X136638977Y-104157962D01*
X136501288Y-104231558D01*
X136380602Y-104330602D01*
X136281558Y-104451288D01*
X136207962Y-104588977D01*
X136162642Y-104738378D01*
X136147339Y-104893750D01*
X136147339Y-105062591D01*
X136131283Y-105082155D01*
X136043069Y-105247192D01*
X135988747Y-105426268D01*
X135970405Y-105612500D01*
X135975001Y-105659164D01*
X135975001Y-106283714D01*
X135945462Y-106338977D01*
X135900142Y-106488378D01*
X135884839Y-106643750D01*
X135884839Y-107556250D01*
X135900142Y-107711622D01*
X135945462Y-107861023D01*
X136019058Y-107998712D01*
X136118102Y-108119398D01*
X136238788Y-108218442D01*
X136376477Y-108292038D01*
X136525878Y-108337358D01*
X136681250Y-108352661D01*
X137168750Y-108352661D01*
X137324122Y-108337358D01*
X137400686Y-108314133D01*
X137362642Y-109950000D01*
X130350000Y-109950000D01*
X130350000Y-100550000D01*
X133233510Y-100550000D01*
X133180257Y-100725552D01*
X133153226Y-101000000D01*
X133180257Y-101274448D01*
X133260310Y-101538349D01*
X133390310Y-101781562D01*
X133565261Y-101994739D01*
X133571672Y-102000000D01*
X133565261Y-102005261D01*
X133390310Y-102218438D01*
X133260310Y-102461651D01*
X133180257Y-102725552D01*
X133153226Y-103000000D01*
X133180257Y-103274448D01*
X133260310Y-103538349D01*
X133390310Y-103781562D01*
X133565261Y-103994739D01*
X133778438Y-104169690D01*
X134021651Y-104299690D01*
X134285552Y-104379743D01*
X134491223Y-104400000D01*
X134928777Y-104400000D01*
X135134448Y-104379743D01*
X135398349Y-104299690D01*
X135641562Y-104169690D01*
X135854739Y-103994739D01*
X136029690Y-103781562D01*
X136159690Y-103538349D01*
X136239743Y-103274448D01*
X136266774Y-103000000D01*
X136239743Y-102725552D01*
X136159690Y-102461651D01*
X136029690Y-102218438D01*
X135854739Y-102005261D01*
X135848328Y-102000000D01*
X135854739Y-101994739D01*
X136029690Y-101781562D01*
X136159690Y-101538349D01*
X136239743Y-101274448D01*
X136266774Y-101000000D01*
X136239743Y-100725552D01*
X136159690Y-100461651D01*
X136029690Y-100218438D01*
X136023138Y-100210455D01*
X136042081Y-100182105D01*
X136092910Y-100087012D01*
X136124208Y-99983836D01*
X136139432Y-99907299D01*
X136150000Y-99800000D01*
X136150000Y-99777026D01*
X136182894Y-99817107D01*
X136182894Y-99817107D01*
G37*
X136182894Y-99817107D02*
X136226776Y-99853120D01*
X137740486Y-101366831D01*
X138176053Y-102261299D01*
X138182398Y-102282216D01*
X138225564Y-102362975D01*
X138240803Y-102394268D01*
X138252182Y-102412773D01*
X138289184Y-102481998D01*
X138311392Y-102509058D01*
X138329729Y-102538878D01*
X138383102Y-102596437D01*
X138396881Y-102613227D01*
X138421488Y-102637834D01*
X138483756Y-102704986D01*
X138501462Y-102717808D01*
X139306883Y-103523231D01*
X139342892Y-103567108D01*
X139370392Y-103589677D01*
X139312982Y-103607092D01*
X139217895Y-103657919D01*
X139153011Y-103701274D01*
X139069674Y-103769667D01*
X139001274Y-103853011D01*
X138957919Y-103917895D01*
X138907090Y-104012988D01*
X138875792Y-104116164D01*
X138860568Y-104192701D01*
X138850000Y-104300000D01*
X138850000Y-105650000D01*
X138602965Y-105650000D01*
X138637358Y-105536622D01*
X138652661Y-105381250D01*
X138652661Y-104893750D01*
X138637358Y-104738378D01*
X138592038Y-104588977D01*
X138518442Y-104451288D01*
X138419398Y-104330602D01*
X138298712Y-104231558D01*
X138161023Y-104157962D01*
X138011622Y-104112642D01*
X137856250Y-104097339D01*
X136943750Y-104097339D01*
X136788378Y-104112642D01*
X136638977Y-104157962D01*
X136501288Y-104231558D01*
X136380602Y-104330602D01*
X136281558Y-104451288D01*
X136207962Y-104588977D01*
X136162642Y-104738378D01*
X136147339Y-104893750D01*
X136147339Y-105062591D01*
X136131283Y-105082155D01*
X136043069Y-105247192D01*
X135988747Y-105426268D01*
X135970405Y-105612500D01*
X135975001Y-105659164D01*
X135975001Y-106283714D01*
X135945462Y-106338977D01*
X135900142Y-106488378D01*
X135884839Y-106643750D01*
X135884839Y-107556250D01*
X135900142Y-107711622D01*
X135945462Y-107861023D01*
X136019058Y-107998712D01*
X136118102Y-108119398D01*
X136238788Y-108218442D01*
X136376477Y-108292038D01*
X136525878Y-108337358D01*
X136681250Y-108352661D01*
X137168750Y-108352661D01*
X137324122Y-108337358D01*
X137400686Y-108314133D01*
X137362642Y-109950000D01*
X130350000Y-109950000D01*
X130350000Y-100550000D01*
X133233510Y-100550000D01*
X133180257Y-100725552D01*
X133153226Y-101000000D01*
X133180257Y-101274448D01*
X133260310Y-101538349D01*
X133390310Y-101781562D01*
X133565261Y-101994739D01*
X133571672Y-102000000D01*
X133565261Y-102005261D01*
X133390310Y-102218438D01*
X133260310Y-102461651D01*
X133180257Y-102725552D01*
X133153226Y-103000000D01*
X133180257Y-103274448D01*
X133260310Y-103538349D01*
X133390310Y-103781562D01*
X133565261Y-103994739D01*
X133778438Y-104169690D01*
X134021651Y-104299690D01*
X134285552Y-104379743D01*
X134491223Y-104400000D01*
X134928777Y-104400000D01*
X135134448Y-104379743D01*
X135398349Y-104299690D01*
X135641562Y-104169690D01*
X135854739Y-103994739D01*
X136029690Y-103781562D01*
X136159690Y-103538349D01*
X136239743Y-103274448D01*
X136266774Y-103000000D01*
X136239743Y-102725552D01*
X136159690Y-102461651D01*
X136029690Y-102218438D01*
X135854739Y-102005261D01*
X135848328Y-102000000D01*
X135854739Y-101994739D01*
X136029690Y-101781562D01*
X136159690Y-101538349D01*
X136239743Y-101274448D01*
X136266774Y-101000000D01*
X136239743Y-100725552D01*
X136159690Y-100461651D01*
X136029690Y-100218438D01*
X136023138Y-100210455D01*
X136042081Y-100182105D01*
X136092910Y-100087012D01*
X136124208Y-99983836D01*
X136139432Y-99907299D01*
X136150000Y-99800000D01*
X136150000Y-99777026D01*
X136182894Y-99817107D01*
G36*
X133731187Y-93115470D02*
G01*
X133789113Y-93321687D01*
X134064100Y-94399641D01*
X134066641Y-94425439D01*
X134092045Y-94509184D01*
X134099651Y-94539001D01*
X134108440Y-94563233D01*
X134132399Y-94642215D01*
X134146986Y-94669505D01*
X134157536Y-94698592D01*
X134200276Y-94769203D01*
X134239185Y-94841997D01*
X134258814Y-94865915D01*
X134274837Y-94892387D01*
X134330534Y-94953306D01*
X134346882Y-94973226D01*
X134368634Y-94994978D01*
X134427692Y-95059573D01*
X134448582Y-95074926D01*
X135850000Y-96476346D01*
X135850000Y-97003745D01*
X135846989Y-97001274D01*
X135782105Y-96957919D01*
X135687012Y-96907090D01*
X135583836Y-96875792D01*
X135507299Y-96860568D01*
X135400000Y-96850000D01*
X130450000Y-96850000D01*
X130450000Y-93850000D01*
X132900000Y-93850000D01*
X133007299Y-93839432D01*
X133083836Y-93824208D01*
X133187018Y-93792908D01*
X133282105Y-93742081D01*
X133346989Y-93698726D01*
X133430326Y-93630333D01*
X133498726Y-93546989D01*
X133542081Y-93482105D01*
X133592910Y-93387012D01*
X133624208Y-93283836D01*
X133639432Y-93207299D01*
X133650000Y-93100000D01*
X133650000Y-93048841D01*
X133731187Y-93115470D01*
X133731187Y-93115470D01*
G37*
X133731187Y-93115470D02*
X133789113Y-93321687D01*
X134064100Y-94399641D01*
X134066641Y-94425439D01*
X134092045Y-94509184D01*
X134099651Y-94539001D01*
X134108440Y-94563233D01*
X134132399Y-94642215D01*
X134146986Y-94669505D01*
X134157536Y-94698592D01*
X134200276Y-94769203D01*
X134239185Y-94841997D01*
X134258814Y-94865915D01*
X134274837Y-94892387D01*
X134330534Y-94953306D01*
X134346882Y-94973226D01*
X134368634Y-94994978D01*
X134427692Y-95059573D01*
X134448582Y-95074926D01*
X135850000Y-96476346D01*
X135850000Y-97003745D01*
X135846989Y-97001274D01*
X135782105Y-96957919D01*
X135687012Y-96907090D01*
X135583836Y-96875792D01*
X135507299Y-96860568D01*
X135400000Y-96850000D01*
X130450000Y-96850000D01*
X130450000Y-93850000D01*
X132900000Y-93850000D01*
X133007299Y-93839432D01*
X133083836Y-93824208D01*
X133187018Y-93792908D01*
X133282105Y-93742081D01*
X133346989Y-93698726D01*
X133430326Y-93630333D01*
X133498726Y-93546989D01*
X133542081Y-93482105D01*
X133592910Y-93387012D01*
X133624208Y-93283836D01*
X133639432Y-93207299D01*
X133650000Y-93100000D01*
X133650000Y-93048841D01*
X133731187Y-93115470D01*
M02*
