M48
; DRILL file {KiCad (5.1.4)-1} date 2019-10-26 5:50:05 PM
; FORMAT={-:-/ absolute / inch / decimal}
; #@! TF.CreationDate,2019-10-26T17:50:05-04:00
; #@! TF.GenerationSoftware,Kicad,Pcbnew,(5.1.4)-1
; #@! TF.FileFunction,Plated,1,2,PTH
FMAT,2
INCH
T1C0.0157
T2C0.0362
T3C0.0394
T4C0.0472
T5C0.0787
T6C0.0906
%
G90
G05
T1
X4.9213Y-3.5827
X4.9213Y-3.8189
X4.9213Y-3.937
X4.9213Y-4.0709
X4.9213Y-4.1732
X4.9213Y-4.2913
X4.9213Y-4.4094
X4.9311Y-3.689
X5.1437Y-4.187
X5.2165Y-4.0827
X5.2244Y-3.9685
X5.2323Y-4.1772
X5.2618Y-3.6906
X5.2756Y-4.311
X5.2933Y-3.7598
X5.3307Y-3.7992
X5.3307Y-4.2303
X5.3346Y-4.311
X5.376Y-3.9606
X5.4165Y-4.0126
X5.4331Y-3.6535
X5.4646Y-4.0768
X5.4764Y-3.6988
X5.5118Y-3.6614
X5.5138Y-3.7598
X5.5138Y-3.815
X5.563Y-3.7874
X5.6142Y-4.3701
X5.6142Y-4.4606
X5.626Y-3.8583
X5.626Y-3.9449
X5.626Y-4.0079
X5.626Y-4.061
X5.6693Y-3.5827
X5.7047Y-4.3701
X5.7047Y-4.4606
X5.7402Y-4.4173
X5.748Y-3.5827
X5.748Y-3.6614
X5.8268Y-3.5827
X5.8268Y-3.6614
X5.8268Y-3.7402
X5.8268Y-3.8189
X5.8268Y-3.8976
X5.9055Y-3.5827
X5.9055Y-3.6614
X5.9055Y-3.7402
X5.9055Y-3.8189
X5.9055Y-3.8976
T2
X5.5512Y-3.878
X5.5512Y-3.9764
X5.5512Y-4.0551
X5.5512Y-4.1535
X5.3035Y-3.878
X5.3035Y-3.9764
X5.3035Y-4.0551
X5.3035Y-4.1535
T3
X5.1969Y-3.6063
X5.2953Y-3.6063
X5.374Y-3.6063
X5.4724Y-3.6063
T4
X5.2441Y-3.5236
X5.4252Y-3.5236
T5
X5.1043Y-3.5236
X5.565Y-3.5236
T6
X5.6579Y-3.7571
X5.6579Y-4.2744
X5.1969Y-3.7571
X5.1969Y-4.2744
T0
M30
