G04 #@! TF.GenerationSoftware,KiCad,Pcbnew,(5.1.4)-1*
G04 #@! TF.CreationDate,2019-10-26T17:50:02-04:00*
G04 #@! TF.ProjectId,usb-vertical-splitter,7573622d-7665-4727-9469-63616c2d7370,0*
G04 #@! TF.SameCoordinates,Original*
G04 #@! TF.FileFunction,Copper,L2,Bot*
G04 #@! TF.FilePolarity,Positive*
%FSLAX46Y46*%
G04 Gerber Fmt 4.6, Leading zero omitted, Abs format (unit mm)*
G04 Created by KiCad (PCBNEW (5.1.4)-1) date 2019-10-26 17:50:02*
%MOMM*%
%LPD*%
G04 APERTURE LIST*
%ADD10O,3.000000X4.000000*%
%ADD11C,2.200000*%
%ADD12C,1.800000*%
%ADD13O,1.600000X2.200000*%
%ADD14C,3.300000*%
%ADD15C,1.900000*%
%ADD16O,2.000000X1.700000*%
%ADD17C,0.800000*%
%ADD18C,0.300000*%
G04 APERTURE END LIST*
D10*
X141350000Y-89500000D03*
X129650000Y-89500000D03*
D11*
X137800000Y-89500000D03*
X133200000Y-89500000D03*
D12*
X139000000Y-91600000D03*
D13*
X136500000Y-91700000D03*
X134500000Y-91700000D03*
D12*
X132000000Y-91600000D03*
D14*
X143710000Y-108570000D03*
X143710000Y-95430000D03*
D15*
X141000000Y-105500000D03*
D16*
X141000000Y-103000000D03*
X141000000Y-101000000D03*
D15*
X141000000Y-98500000D03*
X134710000Y-105500000D03*
D16*
X134710000Y-103000000D03*
X134710000Y-101000000D03*
D15*
X134710000Y-98500000D03*
D14*
X132000000Y-108570000D03*
X132000000Y-95430000D03*
D17*
X125250000Y-93700000D03*
X140050000Y-96900000D03*
X140050000Y-95500000D03*
X138000000Y-92800000D03*
X139100000Y-93950000D03*
X135400000Y-96500000D03*
X134450000Y-95500000D03*
X133650000Y-93740000D03*
X145800000Y-112200000D03*
X130650000Y-106350000D03*
X135400000Y-107450000D03*
X137580000Y-101920000D03*
X136550000Y-100600000D03*
X138800000Y-103550000D03*
X142900000Y-103150000D03*
X142900000Y-101800000D03*
X142900000Y-100200000D03*
X125000000Y-112000000D03*
X125000000Y-109000000D03*
X125000000Y-106000000D03*
X125000000Y-103400000D03*
X125000000Y-100000000D03*
X125000000Y-97000000D03*
X125000000Y-91000000D03*
X144000000Y-91000000D03*
X146000000Y-91000000D03*
X148000000Y-91000000D03*
X150000000Y-91000000D03*
X150000000Y-93000000D03*
X150000000Y-95000000D03*
X150000000Y-97000000D03*
X150000000Y-99000000D03*
X148000000Y-99000000D03*
X148000000Y-97000000D03*
X148000000Y-95000000D03*
X148000000Y-93000000D03*
X146000000Y-93000000D03*
X140000000Y-93000000D03*
X135500000Y-109500000D03*
X134000000Y-109500000D03*
X142900000Y-98000000D03*
X141300000Y-96200000D03*
X132500000Y-103700000D03*
X132700000Y-100800000D03*
X132900000Y-106100000D03*
X142600000Y-113300000D03*
X144900000Y-113300000D03*
X144900000Y-111000000D03*
X142600000Y-111000000D03*
D18*
G36*
X130873711Y-90675679D02*
G01*
X130715027Y-90913167D01*
X130605723Y-91177051D01*
X130550000Y-91457187D01*
X130550000Y-91742813D01*
X130605723Y-92022949D01*
X130715027Y-92286833D01*
X130873711Y-92524321D01*
X131075679Y-92726289D01*
X131313167Y-92884973D01*
X131577051Y-92994277D01*
X131857187Y-93050000D01*
X132142813Y-93050000D01*
X132422949Y-92994277D01*
X132686833Y-92884973D01*
X132924321Y-92726289D01*
X133126289Y-92524321D01*
X133210207Y-92398728D01*
X133246728Y-92519121D01*
X133372085Y-92753648D01*
X133540787Y-92959212D01*
X133746351Y-93127915D01*
X133980878Y-93253272D01*
X134235354Y-93330467D01*
X134500000Y-93356532D01*
X134764645Y-93330467D01*
X135019121Y-93253272D01*
X135253648Y-93127915D01*
X135459212Y-92959213D01*
X135500000Y-92909513D01*
X135540787Y-92959212D01*
X135746351Y-93127915D01*
X135980878Y-93253272D01*
X136235354Y-93330467D01*
X136500000Y-93356532D01*
X136764645Y-93330467D01*
X137019121Y-93253272D01*
X137253648Y-93127915D01*
X137459212Y-92959213D01*
X137627915Y-92753649D01*
X137753272Y-92519122D01*
X137830467Y-92264646D01*
X137850000Y-92066321D01*
X137850000Y-91333680D01*
X137830467Y-91135355D01*
X137753272Y-90880878D01*
X137629865Y-90650000D01*
X150285226Y-90650000D01*
X150318008Y-90656521D01*
X150333277Y-90666723D01*
X150343479Y-90681992D01*
X150350000Y-90714774D01*
X150350000Y-113785226D01*
X150343479Y-113818008D01*
X150333277Y-113833277D01*
X150318008Y-113843479D01*
X150285226Y-113850000D01*
X124714774Y-113850000D01*
X124681992Y-113843479D01*
X124666723Y-113833277D01*
X124656521Y-113818008D01*
X124650000Y-113785226D01*
X124650000Y-101000000D01*
X133153226Y-101000000D01*
X133180257Y-101274448D01*
X133260310Y-101538349D01*
X133390310Y-101781562D01*
X133565261Y-101994739D01*
X133571672Y-102000000D01*
X133565261Y-102005261D01*
X133390310Y-102218438D01*
X133260310Y-102461651D01*
X133180257Y-102725552D01*
X133153226Y-103000000D01*
X133180257Y-103274448D01*
X133260310Y-103538349D01*
X133390310Y-103781562D01*
X133565261Y-103994739D01*
X133778438Y-104169690D01*
X134021651Y-104299690D01*
X134285552Y-104379743D01*
X134491223Y-104400000D01*
X134928777Y-104400000D01*
X135134448Y-104379743D01*
X135398349Y-104299690D01*
X135641562Y-104169690D01*
X135854739Y-103994739D01*
X136029690Y-103781562D01*
X136159690Y-103538349D01*
X136239743Y-103274448D01*
X136266774Y-103000000D01*
X136239743Y-102725552D01*
X136159690Y-102461651D01*
X136029690Y-102218438D01*
X135854739Y-102005261D01*
X135848328Y-102000000D01*
X135854739Y-101994739D01*
X136029690Y-101781562D01*
X136159690Y-101538349D01*
X136239743Y-101274448D01*
X136266774Y-101000000D01*
X139443226Y-101000000D01*
X139470257Y-101274448D01*
X139550310Y-101538349D01*
X139680310Y-101781562D01*
X139855261Y-101994739D01*
X139861672Y-102000000D01*
X139855261Y-102005261D01*
X139680310Y-102218438D01*
X139550310Y-102461651D01*
X139470257Y-102725552D01*
X139443226Y-103000000D01*
X139470257Y-103274448D01*
X139550310Y-103538349D01*
X139680310Y-103781562D01*
X139855261Y-103994739D01*
X140068438Y-104169690D01*
X140192098Y-104235788D01*
X140043806Y-104334874D01*
X139834874Y-104543806D01*
X139670717Y-104789483D01*
X139557644Y-105062466D01*
X139500000Y-105352263D01*
X139500000Y-105647737D01*
X139557644Y-105937534D01*
X139670717Y-106210517D01*
X139834874Y-106456194D01*
X140043806Y-106665126D01*
X140289483Y-106829283D01*
X140562466Y-106942356D01*
X140852263Y-107000000D01*
X141147737Y-107000000D01*
X141437534Y-106942356D01*
X141710517Y-106829283D01*
X141956194Y-106665126D01*
X142165126Y-106456194D01*
X142329283Y-106210517D01*
X142442356Y-105937534D01*
X142500000Y-105647737D01*
X142500000Y-105352263D01*
X142442356Y-105062466D01*
X142329283Y-104789483D01*
X142165126Y-104543806D01*
X141956194Y-104334874D01*
X141807902Y-104235788D01*
X141931562Y-104169690D01*
X142144739Y-103994739D01*
X142319690Y-103781562D01*
X142449690Y-103538349D01*
X142529743Y-103274448D01*
X142556774Y-103000000D01*
X142529743Y-102725552D01*
X142449690Y-102461651D01*
X142319690Y-102218438D01*
X142144739Y-102005261D01*
X142138328Y-102000000D01*
X142144739Y-101994739D01*
X142319690Y-101781562D01*
X142449690Y-101538349D01*
X142529743Y-101274448D01*
X142556774Y-101000000D01*
X142529743Y-100725552D01*
X142449690Y-100461651D01*
X142319690Y-100218438D01*
X142144739Y-100005261D01*
X141931562Y-99830310D01*
X141688349Y-99700310D01*
X141424448Y-99620257D01*
X141218777Y-99600000D01*
X140781223Y-99600000D01*
X140575552Y-99620257D01*
X140311651Y-99700310D01*
X140068438Y-99830310D01*
X139855261Y-100005261D01*
X139680310Y-100218438D01*
X139550310Y-100461651D01*
X139470257Y-100725552D01*
X139443226Y-101000000D01*
X136266774Y-101000000D01*
X136239743Y-100725552D01*
X136159690Y-100461651D01*
X136029690Y-100218438D01*
X135854739Y-100005261D01*
X135641562Y-99830310D01*
X135517902Y-99764212D01*
X135666194Y-99665126D01*
X135875126Y-99456194D01*
X136039283Y-99210517D01*
X136152356Y-98937534D01*
X136210000Y-98647737D01*
X136210000Y-98352263D01*
X136152356Y-98062466D01*
X136039283Y-97789483D01*
X135875126Y-97543806D01*
X135666194Y-97334874D01*
X135420517Y-97170717D01*
X135147534Y-97057644D01*
X134857737Y-97000000D01*
X134562263Y-97000000D01*
X134272466Y-97057644D01*
X133999483Y-97170717D01*
X133753806Y-97334874D01*
X133544874Y-97543806D01*
X133380717Y-97789483D01*
X133267644Y-98062466D01*
X133210000Y-98352263D01*
X133210000Y-98647737D01*
X133267644Y-98937534D01*
X133380717Y-99210517D01*
X133544874Y-99456194D01*
X133753806Y-99665126D01*
X133902098Y-99764212D01*
X133778438Y-99830310D01*
X133565261Y-100005261D01*
X133390310Y-100218438D01*
X133260310Y-100461651D01*
X133180257Y-100725552D01*
X133153226Y-101000000D01*
X124650000Y-101000000D01*
X124650000Y-90714774D01*
X124656521Y-90681992D01*
X124666723Y-90666723D01*
X124681992Y-90656521D01*
X124714774Y-90650000D01*
X130899390Y-90650000D01*
X130873711Y-90675679D01*
X130873711Y-90675679D01*
G37*
X130873711Y-90675679D02*
X130715027Y-90913167D01*
X130605723Y-91177051D01*
X130550000Y-91457187D01*
X130550000Y-91742813D01*
X130605723Y-92022949D01*
X130715027Y-92286833D01*
X130873711Y-92524321D01*
X131075679Y-92726289D01*
X131313167Y-92884973D01*
X131577051Y-92994277D01*
X131857187Y-93050000D01*
X132142813Y-93050000D01*
X132422949Y-92994277D01*
X132686833Y-92884973D01*
X132924321Y-92726289D01*
X133126289Y-92524321D01*
X133210207Y-92398728D01*
X133246728Y-92519121D01*
X133372085Y-92753648D01*
X133540787Y-92959212D01*
X133746351Y-93127915D01*
X133980878Y-93253272D01*
X134235354Y-93330467D01*
X134500000Y-93356532D01*
X134764645Y-93330467D01*
X135019121Y-93253272D01*
X135253648Y-93127915D01*
X135459212Y-92959213D01*
X135500000Y-92909513D01*
X135540787Y-92959212D01*
X135746351Y-93127915D01*
X135980878Y-93253272D01*
X136235354Y-93330467D01*
X136500000Y-93356532D01*
X136764645Y-93330467D01*
X137019121Y-93253272D01*
X137253648Y-93127915D01*
X137459212Y-92959213D01*
X137627915Y-92753649D01*
X137753272Y-92519122D01*
X137830467Y-92264646D01*
X137850000Y-92066321D01*
X137850000Y-91333680D01*
X137830467Y-91135355D01*
X137753272Y-90880878D01*
X137629865Y-90650000D01*
X150285226Y-90650000D01*
X150318008Y-90656521D01*
X150333277Y-90666723D01*
X150343479Y-90681992D01*
X150350000Y-90714774D01*
X150350000Y-113785226D01*
X150343479Y-113818008D01*
X150333277Y-113833277D01*
X150318008Y-113843479D01*
X150285226Y-113850000D01*
X124714774Y-113850000D01*
X124681992Y-113843479D01*
X124666723Y-113833277D01*
X124656521Y-113818008D01*
X124650000Y-113785226D01*
X124650000Y-101000000D01*
X133153226Y-101000000D01*
X133180257Y-101274448D01*
X133260310Y-101538349D01*
X133390310Y-101781562D01*
X133565261Y-101994739D01*
X133571672Y-102000000D01*
X133565261Y-102005261D01*
X133390310Y-102218438D01*
X133260310Y-102461651D01*
X133180257Y-102725552D01*
X133153226Y-103000000D01*
X133180257Y-103274448D01*
X133260310Y-103538349D01*
X133390310Y-103781562D01*
X133565261Y-103994739D01*
X133778438Y-104169690D01*
X134021651Y-104299690D01*
X134285552Y-104379743D01*
X134491223Y-104400000D01*
X134928777Y-104400000D01*
X135134448Y-104379743D01*
X135398349Y-104299690D01*
X135641562Y-104169690D01*
X135854739Y-103994739D01*
X136029690Y-103781562D01*
X136159690Y-103538349D01*
X136239743Y-103274448D01*
X136266774Y-103000000D01*
X136239743Y-102725552D01*
X136159690Y-102461651D01*
X136029690Y-102218438D01*
X135854739Y-102005261D01*
X135848328Y-102000000D01*
X135854739Y-101994739D01*
X136029690Y-101781562D01*
X136159690Y-101538349D01*
X136239743Y-101274448D01*
X136266774Y-101000000D01*
X139443226Y-101000000D01*
X139470257Y-101274448D01*
X139550310Y-101538349D01*
X139680310Y-101781562D01*
X139855261Y-101994739D01*
X139861672Y-102000000D01*
X139855261Y-102005261D01*
X139680310Y-102218438D01*
X139550310Y-102461651D01*
X139470257Y-102725552D01*
X139443226Y-103000000D01*
X139470257Y-103274448D01*
X139550310Y-103538349D01*
X139680310Y-103781562D01*
X139855261Y-103994739D01*
X140068438Y-104169690D01*
X140192098Y-104235788D01*
X140043806Y-104334874D01*
X139834874Y-104543806D01*
X139670717Y-104789483D01*
X139557644Y-105062466D01*
X139500000Y-105352263D01*
X139500000Y-105647737D01*
X139557644Y-105937534D01*
X139670717Y-106210517D01*
X139834874Y-106456194D01*
X140043806Y-106665126D01*
X140289483Y-106829283D01*
X140562466Y-106942356D01*
X140852263Y-107000000D01*
X141147737Y-107000000D01*
X141437534Y-106942356D01*
X141710517Y-106829283D01*
X141956194Y-106665126D01*
X142165126Y-106456194D01*
X142329283Y-106210517D01*
X142442356Y-105937534D01*
X142500000Y-105647737D01*
X142500000Y-105352263D01*
X142442356Y-105062466D01*
X142329283Y-104789483D01*
X142165126Y-104543806D01*
X141956194Y-104334874D01*
X141807902Y-104235788D01*
X141931562Y-104169690D01*
X142144739Y-103994739D01*
X142319690Y-103781562D01*
X142449690Y-103538349D01*
X142529743Y-103274448D01*
X142556774Y-103000000D01*
X142529743Y-102725552D01*
X142449690Y-102461651D01*
X142319690Y-102218438D01*
X142144739Y-102005261D01*
X142138328Y-102000000D01*
X142144739Y-101994739D01*
X142319690Y-101781562D01*
X142449690Y-101538349D01*
X142529743Y-101274448D01*
X142556774Y-101000000D01*
X142529743Y-100725552D01*
X142449690Y-100461651D01*
X142319690Y-100218438D01*
X142144739Y-100005261D01*
X141931562Y-99830310D01*
X141688349Y-99700310D01*
X141424448Y-99620257D01*
X141218777Y-99600000D01*
X140781223Y-99600000D01*
X140575552Y-99620257D01*
X140311651Y-99700310D01*
X140068438Y-99830310D01*
X139855261Y-100005261D01*
X139680310Y-100218438D01*
X139550310Y-100461651D01*
X139470257Y-100725552D01*
X139443226Y-101000000D01*
X136266774Y-101000000D01*
X136239743Y-100725552D01*
X136159690Y-100461651D01*
X136029690Y-100218438D01*
X135854739Y-100005261D01*
X135641562Y-99830310D01*
X135517902Y-99764212D01*
X135666194Y-99665126D01*
X135875126Y-99456194D01*
X136039283Y-99210517D01*
X136152356Y-98937534D01*
X136210000Y-98647737D01*
X136210000Y-98352263D01*
X136152356Y-98062466D01*
X136039283Y-97789483D01*
X135875126Y-97543806D01*
X135666194Y-97334874D01*
X135420517Y-97170717D01*
X135147534Y-97057644D01*
X134857737Y-97000000D01*
X134562263Y-97000000D01*
X134272466Y-97057644D01*
X133999483Y-97170717D01*
X133753806Y-97334874D01*
X133544874Y-97543806D01*
X133380717Y-97789483D01*
X133267644Y-98062466D01*
X133210000Y-98352263D01*
X133210000Y-98647737D01*
X133267644Y-98937534D01*
X133380717Y-99210517D01*
X133544874Y-99456194D01*
X133753806Y-99665126D01*
X133902098Y-99764212D01*
X133778438Y-99830310D01*
X133565261Y-100005261D01*
X133390310Y-100218438D01*
X133260310Y-100461651D01*
X133180257Y-100725552D01*
X133153226Y-101000000D01*
X124650000Y-101000000D01*
X124650000Y-90714774D01*
X124656521Y-90681992D01*
X124666723Y-90666723D01*
X124681992Y-90656521D01*
X124714774Y-90650000D01*
X130899390Y-90650000D01*
X130873711Y-90675679D01*
M02*
