G04 #@! TF.GenerationSoftware,KiCad,Pcbnew,(5.1.4)-1*
G04 #@! TF.CreationDate,2019-10-26T17:50:02-04:00*
G04 #@! TF.ProjectId,usb-vertical-splitter,7573622d-7665-4727-9469-63616c2d7370,0*
G04 #@! TF.SameCoordinates,Original*
G04 #@! TF.FileFunction,Soldermask,Top*
G04 #@! TF.FilePolarity,Negative*
%FSLAX46Y46*%
G04 Gerber Fmt 4.6, Leading zero omitted, Abs format (unit mm)*
G04 Created by KiCad (PCBNEW (5.1.4)-1) date 2019-10-26 17:50:02*
%MOMM*%
%LPD*%
G04 APERTURE LIST*
%ADD10C,0.100000*%
G04 APERTURE END LIST*
D10*
G36*
X145031552Y-112866331D02*
G01*
X145113627Y-112900328D01*
X145113629Y-112900329D01*
X145150813Y-112925175D01*
X145187495Y-112949685D01*
X145250315Y-113012505D01*
X145299672Y-113086373D01*
X145333669Y-113168448D01*
X145351000Y-113255579D01*
X145351000Y-113344421D01*
X145333669Y-113431552D01*
X145299672Y-113513627D01*
X145299671Y-113513629D01*
X145250314Y-113587496D01*
X145187496Y-113650314D01*
X145113629Y-113699671D01*
X145113628Y-113699672D01*
X145113627Y-113699672D01*
X145031552Y-113733669D01*
X144944421Y-113751000D01*
X144855579Y-113751000D01*
X144768448Y-113733669D01*
X144686373Y-113699672D01*
X144686372Y-113699672D01*
X144686371Y-113699671D01*
X144612504Y-113650314D01*
X144549686Y-113587496D01*
X144500329Y-113513629D01*
X144500328Y-113513627D01*
X144466331Y-113431552D01*
X144449000Y-113344421D01*
X144449000Y-113255579D01*
X144466331Y-113168448D01*
X144500328Y-113086373D01*
X144549685Y-113012505D01*
X144612505Y-112949685D01*
X144649187Y-112925175D01*
X144686371Y-112900329D01*
X144686373Y-112900328D01*
X144768448Y-112866331D01*
X144855579Y-112849000D01*
X144944421Y-112849000D01*
X145031552Y-112866331D01*
X145031552Y-112866331D01*
G37*
G36*
X142731552Y-112866331D02*
G01*
X142813627Y-112900328D01*
X142813629Y-112900329D01*
X142850813Y-112925175D01*
X142887495Y-112949685D01*
X142950315Y-113012505D01*
X142999672Y-113086373D01*
X143033669Y-113168448D01*
X143051000Y-113255579D01*
X143051000Y-113344421D01*
X143033669Y-113431552D01*
X142999672Y-113513627D01*
X142999671Y-113513629D01*
X142950314Y-113587496D01*
X142887496Y-113650314D01*
X142813629Y-113699671D01*
X142813628Y-113699672D01*
X142813627Y-113699672D01*
X142731552Y-113733669D01*
X142644421Y-113751000D01*
X142555579Y-113751000D01*
X142468448Y-113733669D01*
X142386373Y-113699672D01*
X142386372Y-113699672D01*
X142386371Y-113699671D01*
X142312504Y-113650314D01*
X142249686Y-113587496D01*
X142200329Y-113513629D01*
X142200328Y-113513627D01*
X142166331Y-113431552D01*
X142149000Y-113344421D01*
X142149000Y-113255579D01*
X142166331Y-113168448D01*
X142200328Y-113086373D01*
X142249685Y-113012505D01*
X142312505Y-112949685D01*
X142349187Y-112925175D01*
X142386371Y-112900329D01*
X142386373Y-112900328D01*
X142468448Y-112866331D01*
X142555579Y-112849000D01*
X142644421Y-112849000D01*
X142731552Y-112866331D01*
X142731552Y-112866331D01*
G37*
G36*
X145931552Y-111766331D02*
G01*
X146013627Y-111800328D01*
X146013629Y-111800329D01*
X146050813Y-111825175D01*
X146087495Y-111849685D01*
X146150315Y-111912505D01*
X146199672Y-111986373D01*
X146233669Y-112068448D01*
X146251000Y-112155579D01*
X146251000Y-112244421D01*
X146233669Y-112331552D01*
X146205453Y-112399671D01*
X146199671Y-112413629D01*
X146150314Y-112487496D01*
X146087496Y-112550314D01*
X146013629Y-112599671D01*
X146013628Y-112599672D01*
X146013627Y-112599672D01*
X145931552Y-112633669D01*
X145844421Y-112651000D01*
X145755579Y-112651000D01*
X145668448Y-112633669D01*
X145586373Y-112599672D01*
X145586372Y-112599672D01*
X145586371Y-112599671D01*
X145512504Y-112550314D01*
X145449686Y-112487496D01*
X145400329Y-112413629D01*
X145394547Y-112399671D01*
X145366331Y-112331552D01*
X145349000Y-112244421D01*
X145349000Y-112155579D01*
X145366331Y-112068448D01*
X145400328Y-111986373D01*
X145449685Y-111912505D01*
X145512505Y-111849685D01*
X145549187Y-111825175D01*
X145586371Y-111800329D01*
X145586373Y-111800328D01*
X145668448Y-111766331D01*
X145755579Y-111749000D01*
X145844421Y-111749000D01*
X145931552Y-111766331D01*
X145931552Y-111766331D01*
G37*
G36*
X125131552Y-111566331D02*
G01*
X125213627Y-111600328D01*
X125213629Y-111600329D01*
X125287496Y-111649686D01*
X125350314Y-111712504D01*
X125386281Y-111766331D01*
X125399672Y-111786373D01*
X125433669Y-111868448D01*
X125451000Y-111955579D01*
X125451000Y-112044421D01*
X125433669Y-112131552D01*
X125399672Y-112213627D01*
X125399671Y-112213629D01*
X125350314Y-112287496D01*
X125287496Y-112350314D01*
X125213629Y-112399671D01*
X125213628Y-112399672D01*
X125213627Y-112399672D01*
X125131552Y-112433669D01*
X125044421Y-112451000D01*
X124955579Y-112451000D01*
X124868448Y-112433669D01*
X124786373Y-112399672D01*
X124786372Y-112399672D01*
X124786371Y-112399671D01*
X124712504Y-112350314D01*
X124649686Y-112287496D01*
X124600329Y-112213629D01*
X124600328Y-112213627D01*
X124566331Y-112131552D01*
X124549000Y-112044421D01*
X124549000Y-111955579D01*
X124566331Y-111868448D01*
X124600328Y-111786373D01*
X124613720Y-111766331D01*
X124649686Y-111712504D01*
X124712504Y-111649686D01*
X124786371Y-111600329D01*
X124786373Y-111600328D01*
X124868448Y-111566331D01*
X124955579Y-111549000D01*
X125044421Y-111549000D01*
X125131552Y-111566331D01*
X125131552Y-111566331D01*
G37*
G36*
X145031552Y-110566331D02*
G01*
X145113627Y-110600328D01*
X145113629Y-110600329D01*
X145150813Y-110625175D01*
X145187495Y-110649685D01*
X145250315Y-110712505D01*
X145299672Y-110786373D01*
X145333669Y-110868448D01*
X145351000Y-110955579D01*
X145351000Y-111044421D01*
X145333669Y-111131552D01*
X145299672Y-111213627D01*
X145299671Y-111213629D01*
X145250314Y-111287496D01*
X145187496Y-111350314D01*
X145113629Y-111399671D01*
X145113628Y-111399672D01*
X145113627Y-111399672D01*
X145031552Y-111433669D01*
X144944421Y-111451000D01*
X144855579Y-111451000D01*
X144768448Y-111433669D01*
X144686373Y-111399672D01*
X144686372Y-111399672D01*
X144686371Y-111399671D01*
X144612504Y-111350314D01*
X144549686Y-111287496D01*
X144500329Y-111213629D01*
X144500328Y-111213627D01*
X144466331Y-111131552D01*
X144449000Y-111044421D01*
X144449000Y-110955579D01*
X144466331Y-110868448D01*
X144500328Y-110786373D01*
X144549685Y-110712505D01*
X144612505Y-110649685D01*
X144649187Y-110625175D01*
X144686371Y-110600329D01*
X144686373Y-110600328D01*
X144768448Y-110566331D01*
X144855579Y-110549000D01*
X144944421Y-110549000D01*
X145031552Y-110566331D01*
X145031552Y-110566331D01*
G37*
G36*
X142731552Y-110566331D02*
G01*
X142813627Y-110600328D01*
X142813629Y-110600329D01*
X142850813Y-110625175D01*
X142887495Y-110649685D01*
X142950315Y-110712505D01*
X142999672Y-110786373D01*
X143033669Y-110868448D01*
X143051000Y-110955579D01*
X143051000Y-111044421D01*
X143033669Y-111131552D01*
X142999672Y-111213627D01*
X142999671Y-111213629D01*
X142950314Y-111287496D01*
X142887496Y-111350314D01*
X142813629Y-111399671D01*
X142813628Y-111399672D01*
X142813627Y-111399672D01*
X142731552Y-111433669D01*
X142644421Y-111451000D01*
X142555579Y-111451000D01*
X142468448Y-111433669D01*
X142386373Y-111399672D01*
X142386372Y-111399672D01*
X142386371Y-111399671D01*
X142312504Y-111350314D01*
X142249686Y-111287496D01*
X142200329Y-111213629D01*
X142200328Y-111213627D01*
X142166331Y-111131552D01*
X142149000Y-111044421D01*
X142149000Y-110955579D01*
X142166331Y-110868448D01*
X142200328Y-110786373D01*
X142249685Y-110712505D01*
X142312505Y-110649685D01*
X142349187Y-110625175D01*
X142386371Y-110600329D01*
X142386373Y-110600328D01*
X142468448Y-110566331D01*
X142555579Y-110549000D01*
X142644421Y-110549000D01*
X142731552Y-110566331D01*
X142731552Y-110566331D01*
G37*
G36*
X144206162Y-106934368D02*
G01*
X144515724Y-107062593D01*
X144608170Y-107124363D01*
X144794324Y-107248747D01*
X145031253Y-107485676D01*
X145037096Y-107494421D01*
X145217407Y-107764276D01*
X145345632Y-108073838D01*
X145411000Y-108402465D01*
X145411000Y-108737535D01*
X145345632Y-109066162D01*
X145217407Y-109375724D01*
X145217406Y-109375725D01*
X145031253Y-109654324D01*
X144794324Y-109891253D01*
X144608170Y-110015637D01*
X144515724Y-110077407D01*
X144206162Y-110205632D01*
X143877535Y-110271000D01*
X143542465Y-110271000D01*
X143213838Y-110205632D01*
X142904276Y-110077407D01*
X142811830Y-110015637D01*
X142625676Y-109891253D01*
X142388747Y-109654324D01*
X142202594Y-109375725D01*
X142202593Y-109375724D01*
X142074368Y-109066162D01*
X142009000Y-108737535D01*
X142009000Y-108402465D01*
X142074368Y-108073838D01*
X142202593Y-107764276D01*
X142382904Y-107494421D01*
X142388747Y-107485676D01*
X142625676Y-107248747D01*
X142811830Y-107124363D01*
X142904276Y-107062593D01*
X143213838Y-106934368D01*
X143542465Y-106869000D01*
X143877535Y-106869000D01*
X144206162Y-106934368D01*
X144206162Y-106934368D01*
G37*
G36*
X132496162Y-106934368D02*
G01*
X132805724Y-107062593D01*
X132898170Y-107124363D01*
X133084324Y-107248747D01*
X133321253Y-107485676D01*
X133327096Y-107494421D01*
X133507407Y-107764276D01*
X133635632Y-108073838D01*
X133701000Y-108402465D01*
X133701000Y-108737535D01*
X133660314Y-108942078D01*
X133657912Y-108966464D01*
X133660314Y-108990850D01*
X133667427Y-109014299D01*
X133678978Y-109035910D01*
X133694523Y-109054852D01*
X133713465Y-109070397D01*
X133735076Y-109081948D01*
X133758525Y-109089061D01*
X133782911Y-109091463D01*
X133807297Y-109089061D01*
X133830746Y-109081948D01*
X133868448Y-109066331D01*
X133955579Y-109049000D01*
X134044421Y-109049000D01*
X134131552Y-109066331D01*
X134213627Y-109100328D01*
X134213629Y-109100329D01*
X134250813Y-109125175D01*
X134287495Y-109149685D01*
X134350315Y-109212505D01*
X134399672Y-109286373D01*
X134433669Y-109368448D01*
X134451000Y-109455579D01*
X134451000Y-109544421D01*
X134433669Y-109631552D01*
X134399672Y-109713627D01*
X134350315Y-109787495D01*
X134287495Y-109850315D01*
X134250813Y-109874825D01*
X134213629Y-109899671D01*
X134213628Y-109899672D01*
X134213627Y-109899672D01*
X134131552Y-109933669D01*
X134044421Y-109951000D01*
X133955579Y-109951000D01*
X133868448Y-109933669D01*
X133786373Y-109899672D01*
X133786372Y-109899672D01*
X133786371Y-109899671D01*
X133749187Y-109874825D01*
X133712505Y-109850315D01*
X133649685Y-109787495D01*
X133600328Y-109713627D01*
X133567860Y-109635242D01*
X133556309Y-109613631D01*
X133540764Y-109594690D01*
X133521822Y-109579144D01*
X133500211Y-109567593D01*
X133476762Y-109560480D01*
X133452376Y-109558078D01*
X133427990Y-109560480D01*
X133404541Y-109567593D01*
X133382930Y-109579144D01*
X133363989Y-109594689D01*
X133348443Y-109613631D01*
X133321253Y-109654324D01*
X133084324Y-109891253D01*
X132898170Y-110015637D01*
X132805724Y-110077407D01*
X132496162Y-110205632D01*
X132167535Y-110271000D01*
X131832465Y-110271000D01*
X131503838Y-110205632D01*
X131194276Y-110077407D01*
X131101830Y-110015637D01*
X130915676Y-109891253D01*
X130678747Y-109654324D01*
X130492594Y-109375725D01*
X130492593Y-109375724D01*
X130364368Y-109066162D01*
X130299000Y-108737535D01*
X130299000Y-108402465D01*
X130364368Y-108073838D01*
X130492593Y-107764276D01*
X130672904Y-107494421D01*
X130678747Y-107485676D01*
X130915676Y-107248747D01*
X131101830Y-107124363D01*
X131194276Y-107062593D01*
X131503838Y-106934368D01*
X131832465Y-106869000D01*
X132167535Y-106869000D01*
X132496162Y-106934368D01*
X132496162Y-106934368D01*
G37*
G36*
X135631552Y-109066331D02*
G01*
X135713627Y-109100328D01*
X135713629Y-109100329D01*
X135750813Y-109125175D01*
X135787495Y-109149685D01*
X135850315Y-109212505D01*
X135899672Y-109286373D01*
X135933669Y-109368448D01*
X135951000Y-109455579D01*
X135951000Y-109544421D01*
X135933669Y-109631552D01*
X135899672Y-109713627D01*
X135850315Y-109787495D01*
X135787495Y-109850315D01*
X135750813Y-109874825D01*
X135713629Y-109899671D01*
X135713628Y-109899672D01*
X135713627Y-109899672D01*
X135631552Y-109933669D01*
X135544421Y-109951000D01*
X135455579Y-109951000D01*
X135368448Y-109933669D01*
X135286373Y-109899672D01*
X135286372Y-109899672D01*
X135286371Y-109899671D01*
X135249187Y-109874825D01*
X135212505Y-109850315D01*
X135149685Y-109787495D01*
X135100328Y-109713627D01*
X135066331Y-109631552D01*
X135049000Y-109544421D01*
X135049000Y-109455579D01*
X135066331Y-109368448D01*
X135100328Y-109286373D01*
X135149685Y-109212505D01*
X135212505Y-109149685D01*
X135249187Y-109125175D01*
X135286371Y-109100329D01*
X135286373Y-109100328D01*
X135368448Y-109066331D01*
X135455579Y-109049000D01*
X135544421Y-109049000D01*
X135631552Y-109066331D01*
X135631552Y-109066331D01*
G37*
G36*
X139171968Y-108353565D02*
G01*
X139210638Y-108365296D01*
X139246277Y-108384346D01*
X139277517Y-108409983D01*
X139303154Y-108441223D01*
X139322204Y-108476862D01*
X139333935Y-108515532D01*
X139338500Y-108561888D01*
X139338500Y-109638112D01*
X139333935Y-109684468D01*
X139322204Y-109723138D01*
X139303154Y-109758777D01*
X139277517Y-109790017D01*
X139246277Y-109815654D01*
X139210638Y-109834704D01*
X139171968Y-109846435D01*
X139125612Y-109851000D01*
X138474388Y-109851000D01*
X138428032Y-109846435D01*
X138389362Y-109834704D01*
X138353723Y-109815654D01*
X138322483Y-109790017D01*
X138296846Y-109758777D01*
X138277796Y-109723138D01*
X138266065Y-109684468D01*
X138261500Y-109638112D01*
X138261500Y-108561888D01*
X138266065Y-108515532D01*
X138277796Y-108476862D01*
X138296846Y-108441223D01*
X138322483Y-108409983D01*
X138353723Y-108384346D01*
X138389362Y-108365296D01*
X138428032Y-108353565D01*
X138474388Y-108349000D01*
X139125612Y-108349000D01*
X139171968Y-108353565D01*
X139171968Y-108353565D01*
G37*
G36*
X137296968Y-108353565D02*
G01*
X137335638Y-108365296D01*
X137371277Y-108384346D01*
X137402517Y-108409983D01*
X137428154Y-108441223D01*
X137447204Y-108476862D01*
X137458935Y-108515532D01*
X137463500Y-108561888D01*
X137463500Y-109638112D01*
X137458935Y-109684468D01*
X137447204Y-109723138D01*
X137428154Y-109758777D01*
X137402517Y-109790017D01*
X137371277Y-109815654D01*
X137335638Y-109834704D01*
X137296968Y-109846435D01*
X137250612Y-109851000D01*
X136599388Y-109851000D01*
X136553032Y-109846435D01*
X136514362Y-109834704D01*
X136478723Y-109815654D01*
X136447483Y-109790017D01*
X136421846Y-109758777D01*
X136402796Y-109723138D01*
X136391065Y-109684468D01*
X136386500Y-109638112D01*
X136386500Y-108561888D01*
X136391065Y-108515532D01*
X136402796Y-108476862D01*
X136421846Y-108441223D01*
X136447483Y-108409983D01*
X136478723Y-108384346D01*
X136514362Y-108365296D01*
X136553032Y-108353565D01*
X136599388Y-108349000D01*
X137250612Y-108349000D01*
X137296968Y-108353565D01*
X137296968Y-108353565D01*
G37*
G36*
X125131552Y-108566331D02*
G01*
X125213627Y-108600328D01*
X125213629Y-108600329D01*
X125240449Y-108618250D01*
X125287495Y-108649685D01*
X125350315Y-108712505D01*
X125399672Y-108786373D01*
X125433669Y-108868448D01*
X125451000Y-108955579D01*
X125451000Y-109044421D01*
X125433669Y-109131552D01*
X125399672Y-109213627D01*
X125351065Y-109286373D01*
X125350314Y-109287496D01*
X125287496Y-109350314D01*
X125213629Y-109399671D01*
X125213628Y-109399672D01*
X125213627Y-109399672D01*
X125131552Y-109433669D01*
X125044421Y-109451000D01*
X124955579Y-109451000D01*
X124868448Y-109433669D01*
X124786373Y-109399672D01*
X124786372Y-109399672D01*
X124786371Y-109399671D01*
X124712504Y-109350314D01*
X124649686Y-109287496D01*
X124648936Y-109286373D01*
X124600328Y-109213627D01*
X124566331Y-109131552D01*
X124549000Y-109044421D01*
X124549000Y-108955579D01*
X124566331Y-108868448D01*
X124600328Y-108786373D01*
X124649685Y-108712505D01*
X124712505Y-108649685D01*
X124759551Y-108618250D01*
X124786371Y-108600329D01*
X124786373Y-108600328D01*
X124868448Y-108566331D01*
X124955579Y-108549000D01*
X125044421Y-108549000D01*
X125131552Y-108566331D01*
X125131552Y-108566331D01*
G37*
G36*
X135531552Y-107016331D02*
G01*
X135613627Y-107050328D01*
X135613629Y-107050329D01*
X135650813Y-107075175D01*
X135687495Y-107099685D01*
X135750315Y-107162505D01*
X135799672Y-107236373D01*
X135833669Y-107318448D01*
X135851000Y-107405579D01*
X135851000Y-107494421D01*
X135833669Y-107581552D01*
X135799672Y-107663627D01*
X135799671Y-107663629D01*
X135785533Y-107684788D01*
X135750315Y-107737495D01*
X135687495Y-107800315D01*
X135650813Y-107824825D01*
X135613629Y-107849671D01*
X135613628Y-107849672D01*
X135613627Y-107849672D01*
X135531552Y-107883669D01*
X135444421Y-107901000D01*
X135355579Y-107901000D01*
X135268448Y-107883669D01*
X135186373Y-107849672D01*
X135186372Y-107849672D01*
X135186371Y-107849671D01*
X135149187Y-107824825D01*
X135112505Y-107800315D01*
X135049685Y-107737495D01*
X135014467Y-107684788D01*
X135000329Y-107663629D01*
X135000328Y-107663627D01*
X134966331Y-107581552D01*
X134949000Y-107494421D01*
X134949000Y-107405579D01*
X134966331Y-107318448D01*
X135000328Y-107236373D01*
X135049685Y-107162505D01*
X135112505Y-107099685D01*
X135149187Y-107075175D01*
X135186371Y-107050329D01*
X135186373Y-107050328D01*
X135268448Y-107016331D01*
X135355579Y-106999000D01*
X135444421Y-106999000D01*
X135531552Y-107016331D01*
X135531552Y-107016331D01*
G37*
G36*
X139171968Y-106353565D02*
G01*
X139210638Y-106365296D01*
X139246277Y-106384346D01*
X139277517Y-106409983D01*
X139303154Y-106441223D01*
X139322204Y-106476862D01*
X139333935Y-106515532D01*
X139338500Y-106561888D01*
X139338500Y-107638112D01*
X139333935Y-107684468D01*
X139322204Y-107723138D01*
X139303154Y-107758777D01*
X139277517Y-107790017D01*
X139246277Y-107815654D01*
X139210638Y-107834704D01*
X139171968Y-107846435D01*
X139125612Y-107851000D01*
X138474388Y-107851000D01*
X138428032Y-107846435D01*
X138389362Y-107834704D01*
X138353723Y-107815654D01*
X138322483Y-107790017D01*
X138296846Y-107758777D01*
X138277796Y-107723138D01*
X138266065Y-107684468D01*
X138261500Y-107638112D01*
X138261500Y-106561888D01*
X138266065Y-106515532D01*
X138277796Y-106476862D01*
X138296846Y-106441223D01*
X138322483Y-106409983D01*
X138353723Y-106384346D01*
X138389362Y-106365296D01*
X138428032Y-106353565D01*
X138474388Y-106349000D01*
X139125612Y-106349000D01*
X139171968Y-106353565D01*
X139171968Y-106353565D01*
G37*
G36*
X137296968Y-106353565D02*
G01*
X137335638Y-106365296D01*
X137371277Y-106384346D01*
X137402517Y-106409983D01*
X137428154Y-106441223D01*
X137447204Y-106476862D01*
X137458935Y-106515532D01*
X137463500Y-106561888D01*
X137463500Y-107638112D01*
X137458935Y-107684468D01*
X137447204Y-107723138D01*
X137428154Y-107758777D01*
X137402517Y-107790017D01*
X137371277Y-107815654D01*
X137335638Y-107834704D01*
X137296968Y-107846435D01*
X137250612Y-107851000D01*
X136599388Y-107851000D01*
X136553032Y-107846435D01*
X136514362Y-107834704D01*
X136478723Y-107815654D01*
X136447483Y-107790017D01*
X136421846Y-107758777D01*
X136402796Y-107723138D01*
X136391065Y-107684468D01*
X136386500Y-107638112D01*
X136386500Y-106561888D01*
X136391065Y-106515532D01*
X136402796Y-106476862D01*
X136421846Y-106441223D01*
X136447483Y-106409983D01*
X136478723Y-106384346D01*
X136514362Y-106365296D01*
X136553032Y-106353565D01*
X136599388Y-106349000D01*
X137250612Y-106349000D01*
X137296968Y-106353565D01*
X137296968Y-106353565D01*
G37*
G36*
X130781552Y-105916331D02*
G01*
X130863627Y-105950328D01*
X130863629Y-105950329D01*
X130890746Y-105968448D01*
X130937495Y-105999685D01*
X131000315Y-106062505D01*
X131049672Y-106136373D01*
X131083669Y-106218448D01*
X131101000Y-106305579D01*
X131101000Y-106394421D01*
X131083669Y-106481552D01*
X131062081Y-106533669D01*
X131049671Y-106563629D01*
X131000314Y-106637496D01*
X130937496Y-106700314D01*
X130863629Y-106749671D01*
X130863628Y-106749672D01*
X130863627Y-106749672D01*
X130781552Y-106783669D01*
X130694421Y-106801000D01*
X130605579Y-106801000D01*
X130518448Y-106783669D01*
X130436373Y-106749672D01*
X130436372Y-106749672D01*
X130436371Y-106749671D01*
X130362504Y-106700314D01*
X130299686Y-106637496D01*
X130250329Y-106563629D01*
X130237919Y-106533669D01*
X130216331Y-106481552D01*
X130199000Y-106394421D01*
X130199000Y-106305579D01*
X130216331Y-106218448D01*
X130250328Y-106136373D01*
X130299685Y-106062505D01*
X130362505Y-105999685D01*
X130409254Y-105968448D01*
X130436371Y-105950329D01*
X130436373Y-105950328D01*
X130518448Y-105916331D01*
X130605579Y-105899000D01*
X130694421Y-105899000D01*
X130781552Y-105916331D01*
X130781552Y-105916331D01*
G37*
G36*
X133031552Y-105666331D02*
G01*
X133113627Y-105700328D01*
X133113629Y-105700329D01*
X133131850Y-105712504D01*
X133187495Y-105749685D01*
X133250315Y-105812505D01*
X133299672Y-105886373D01*
X133333669Y-105968448D01*
X133351000Y-106055579D01*
X133351000Y-106144421D01*
X133333669Y-106231552D01*
X133299672Y-106313627D01*
X133250315Y-106387495D01*
X133187495Y-106450315D01*
X133169211Y-106462532D01*
X133113629Y-106499671D01*
X133113628Y-106499672D01*
X133113627Y-106499672D01*
X133031552Y-106533669D01*
X132944421Y-106551000D01*
X132855579Y-106551000D01*
X132768448Y-106533669D01*
X132686373Y-106499672D01*
X132686372Y-106499672D01*
X132686371Y-106499671D01*
X132630789Y-106462532D01*
X132612505Y-106450315D01*
X132549685Y-106387495D01*
X132500328Y-106313627D01*
X132466331Y-106231552D01*
X132449000Y-106144421D01*
X132449000Y-106055579D01*
X132466331Y-105968448D01*
X132500328Y-105886373D01*
X132549685Y-105812505D01*
X132612505Y-105749685D01*
X132668150Y-105712504D01*
X132686371Y-105700329D01*
X132686373Y-105700328D01*
X132768448Y-105666331D01*
X132855579Y-105649000D01*
X132944421Y-105649000D01*
X133031552Y-105666331D01*
X133031552Y-105666331D01*
G37*
G36*
X141291981Y-104537468D02*
G01*
X141474151Y-104612926D01*
X141638100Y-104722473D01*
X141777527Y-104861900D01*
X141887074Y-105025849D01*
X141887075Y-105025851D01*
X141962532Y-105208020D01*
X142001000Y-105401409D01*
X142001000Y-105598591D01*
X141994628Y-105630623D01*
X141962532Y-105791981D01*
X141930858Y-105868448D01*
X141894767Y-105955580D01*
X141887074Y-105974151D01*
X141777527Y-106138100D01*
X141638100Y-106277527D01*
X141474151Y-106387074D01*
X141474150Y-106387075D01*
X141474149Y-106387075D01*
X141443737Y-106399672D01*
X141291981Y-106462532D01*
X141261158Y-106468663D01*
X141098591Y-106501000D01*
X140901409Y-106501000D01*
X140738842Y-106468663D01*
X140708019Y-106462532D01*
X140556263Y-106399672D01*
X140525851Y-106387075D01*
X140525850Y-106387075D01*
X140525849Y-106387074D01*
X140361900Y-106277527D01*
X140222473Y-106138100D01*
X140112926Y-105974151D01*
X140105234Y-105955580D01*
X140069142Y-105868448D01*
X140037468Y-105791981D01*
X140005372Y-105630623D01*
X139999000Y-105598591D01*
X139999000Y-105401409D01*
X140037468Y-105208020D01*
X140112925Y-105025851D01*
X140112926Y-105025849D01*
X140222473Y-104861900D01*
X140361900Y-104722473D01*
X140525849Y-104612926D01*
X140708019Y-104537468D01*
X140901409Y-104499000D01*
X141098591Y-104499000D01*
X141291981Y-104537468D01*
X141291981Y-104537468D01*
G37*
G36*
X135001981Y-104537468D02*
G01*
X135184151Y-104612926D01*
X135348100Y-104722473D01*
X135487527Y-104861900D01*
X135597074Y-105025849D01*
X135597075Y-105025851D01*
X135672532Y-105208020D01*
X135711000Y-105401409D01*
X135711000Y-105598591D01*
X135704628Y-105630623D01*
X135672532Y-105791981D01*
X135640858Y-105868448D01*
X135604767Y-105955580D01*
X135597074Y-105974151D01*
X135487527Y-106138100D01*
X135348100Y-106277527D01*
X135184151Y-106387074D01*
X135184150Y-106387075D01*
X135184149Y-106387075D01*
X135153737Y-106399672D01*
X135001981Y-106462532D01*
X134971158Y-106468663D01*
X134808591Y-106501000D01*
X134611409Y-106501000D01*
X134448842Y-106468663D01*
X134418019Y-106462532D01*
X134266263Y-106399672D01*
X134235851Y-106387075D01*
X134235850Y-106387075D01*
X134235849Y-106387074D01*
X134071900Y-106277527D01*
X133932473Y-106138100D01*
X133822926Y-105974151D01*
X133815234Y-105955580D01*
X133779142Y-105868448D01*
X133747468Y-105791981D01*
X133715372Y-105630623D01*
X133709000Y-105598591D01*
X133709000Y-105401409D01*
X133747468Y-105208020D01*
X133822925Y-105025851D01*
X133822926Y-105025849D01*
X133932473Y-104861900D01*
X134071900Y-104722473D01*
X134235849Y-104612926D01*
X134418019Y-104537468D01*
X134611409Y-104499000D01*
X134808591Y-104499000D01*
X135001981Y-104537468D01*
X135001981Y-104537468D01*
G37*
G36*
X125131552Y-105566331D02*
G01*
X125213627Y-105600328D01*
X125213629Y-105600329D01*
X125235611Y-105615017D01*
X125287495Y-105649685D01*
X125350315Y-105712505D01*
X125399672Y-105786373D01*
X125433669Y-105868448D01*
X125451000Y-105955579D01*
X125451000Y-106044421D01*
X125433669Y-106131552D01*
X125399672Y-106213627D01*
X125350315Y-106287495D01*
X125287495Y-106350315D01*
X125265074Y-106365296D01*
X125213629Y-106399671D01*
X125213628Y-106399672D01*
X125213627Y-106399672D01*
X125131552Y-106433669D01*
X125044421Y-106451000D01*
X124955579Y-106451000D01*
X124868448Y-106433669D01*
X124786373Y-106399672D01*
X124786372Y-106399672D01*
X124786371Y-106399671D01*
X124734926Y-106365296D01*
X124712505Y-106350315D01*
X124649685Y-106287495D01*
X124600328Y-106213627D01*
X124566331Y-106131552D01*
X124549000Y-106044421D01*
X124549000Y-105955579D01*
X124566331Y-105868448D01*
X124600328Y-105786373D01*
X124649685Y-105712505D01*
X124712505Y-105649685D01*
X124764389Y-105615017D01*
X124786371Y-105600329D01*
X124786373Y-105600328D01*
X124868448Y-105566331D01*
X124955579Y-105549000D01*
X125044421Y-105549000D01*
X125131552Y-105566331D01*
X125131552Y-105566331D01*
G37*
G36*
X137984468Y-104603565D02*
G01*
X138023138Y-104615296D01*
X138058777Y-104634346D01*
X138090017Y-104659983D01*
X138115654Y-104691223D01*
X138134704Y-104726862D01*
X138146435Y-104765532D01*
X138151000Y-104811888D01*
X138151000Y-105463112D01*
X138146435Y-105509468D01*
X138134704Y-105548138D01*
X138115654Y-105583777D01*
X138090017Y-105615017D01*
X138058777Y-105640654D01*
X138023138Y-105659704D01*
X137984468Y-105671435D01*
X137938112Y-105676000D01*
X136861888Y-105676000D01*
X136815532Y-105671435D01*
X136776862Y-105659704D01*
X136741223Y-105640654D01*
X136709983Y-105615017D01*
X136684346Y-105583777D01*
X136665296Y-105548138D01*
X136653565Y-105509468D01*
X136649000Y-105463112D01*
X136649000Y-104811888D01*
X136653565Y-104765532D01*
X136665296Y-104726862D01*
X136684346Y-104691223D01*
X136709983Y-104659983D01*
X136741223Y-104634346D01*
X136776862Y-104615296D01*
X136815532Y-104603565D01*
X136861888Y-104599000D01*
X137938112Y-104599000D01*
X137984468Y-104603565D01*
X137984468Y-104603565D01*
G37*
G36*
X132631552Y-103266331D02*
G01*
X132713627Y-103300328D01*
X132713629Y-103300329D01*
X132727939Y-103309891D01*
X132787495Y-103349685D01*
X132850315Y-103412505D01*
X132899672Y-103486373D01*
X132933669Y-103568448D01*
X132951000Y-103655579D01*
X132951000Y-103744421D01*
X132933669Y-103831552D01*
X132905186Y-103900314D01*
X132899671Y-103913629D01*
X132850314Y-103987496D01*
X132787496Y-104050314D01*
X132713629Y-104099671D01*
X132713628Y-104099672D01*
X132713627Y-104099672D01*
X132631552Y-104133669D01*
X132544421Y-104151000D01*
X132455579Y-104151000D01*
X132368448Y-104133669D01*
X132286373Y-104099672D01*
X132286372Y-104099672D01*
X132286371Y-104099671D01*
X132212504Y-104050314D01*
X132149686Y-103987496D01*
X132100329Y-103913629D01*
X132094814Y-103900314D01*
X132066331Y-103831552D01*
X132049000Y-103744421D01*
X132049000Y-103655579D01*
X132066331Y-103568448D01*
X132100328Y-103486373D01*
X132149685Y-103412505D01*
X132212505Y-103349685D01*
X132272061Y-103309891D01*
X132286371Y-103300329D01*
X132286373Y-103300328D01*
X132368448Y-103266331D01*
X132455579Y-103249000D01*
X132544421Y-103249000D01*
X132631552Y-103266331D01*
X132631552Y-103266331D01*
G37*
G36*
X137984468Y-102728565D02*
G01*
X138023138Y-102740296D01*
X138058777Y-102759346D01*
X138090017Y-102784983D01*
X138115654Y-102816223D01*
X138134704Y-102851862D01*
X138146435Y-102890532D01*
X138151000Y-102936888D01*
X138151000Y-103309891D01*
X138153402Y-103334277D01*
X138160515Y-103357726D01*
X138172066Y-103379337D01*
X138187611Y-103398279D01*
X138206553Y-103413824D01*
X138228164Y-103425375D01*
X138251613Y-103432488D01*
X138275999Y-103434890D01*
X138300385Y-103432488D01*
X138323834Y-103425375D01*
X138345445Y-103413824D01*
X138364387Y-103398279D01*
X138379932Y-103379337D01*
X138391483Y-103357727D01*
X138400329Y-103336371D01*
X138449685Y-103262505D01*
X138512505Y-103199685D01*
X138549187Y-103175175D01*
X138586371Y-103150329D01*
X138586373Y-103150328D01*
X138668448Y-103116331D01*
X138755579Y-103099000D01*
X138844421Y-103099000D01*
X138931552Y-103116331D01*
X139013627Y-103150328D01*
X139013629Y-103150329D01*
X139050813Y-103175175D01*
X139079617Y-103194421D01*
X139087496Y-103199686D01*
X139150314Y-103262504D01*
X139198272Y-103334277D01*
X139199672Y-103336373D01*
X139233669Y-103418448D01*
X139251000Y-103505579D01*
X139251000Y-103594421D01*
X139233669Y-103681552D01*
X139207628Y-103744420D01*
X139199671Y-103763629D01*
X139185589Y-103784704D01*
X139150315Y-103837495D01*
X139087495Y-103900315D01*
X139067572Y-103913627D01*
X139013629Y-103949671D01*
X139013628Y-103949672D01*
X139013627Y-103949672D01*
X138931552Y-103983669D01*
X138844421Y-104001000D01*
X138755579Y-104001000D01*
X138668448Y-103983669D01*
X138586373Y-103949672D01*
X138586372Y-103949672D01*
X138586371Y-103949671D01*
X138532428Y-103913627D01*
X138512505Y-103900315D01*
X138449685Y-103837495D01*
X138414411Y-103784704D01*
X138400329Y-103763629D01*
X138392372Y-103744420D01*
X138364378Y-103676836D01*
X138352827Y-103655225D01*
X138337282Y-103636283D01*
X138318340Y-103620738D01*
X138296729Y-103609187D01*
X138273280Y-103602074D01*
X138248894Y-103599672D01*
X138224508Y-103602074D01*
X138201059Y-103609187D01*
X138179448Y-103620738D01*
X138160506Y-103636283D01*
X138138655Y-103665746D01*
X138115653Y-103708778D01*
X138090017Y-103740017D01*
X138058777Y-103765654D01*
X138023138Y-103784704D01*
X137984468Y-103796435D01*
X137938112Y-103801000D01*
X136861888Y-103801000D01*
X136815532Y-103796435D01*
X136776862Y-103784704D01*
X136741223Y-103765654D01*
X136709983Y-103740017D01*
X136684346Y-103708777D01*
X136665296Y-103673138D01*
X136653565Y-103634468D01*
X136649000Y-103588112D01*
X136649000Y-102936888D01*
X136653565Y-102890532D01*
X136665296Y-102851862D01*
X136684346Y-102816223D01*
X136709983Y-102784983D01*
X136741223Y-102759346D01*
X136776862Y-102740296D01*
X136815532Y-102728565D01*
X136861888Y-102724000D01*
X137938112Y-102724000D01*
X137984468Y-102728565D01*
X137984468Y-102728565D01*
G37*
G36*
X134970443Y-100105519D02*
G01*
X135036627Y-100112037D01*
X135206466Y-100163557D01*
X135362991Y-100247222D01*
X135365993Y-100249686D01*
X135500186Y-100359814D01*
X135560796Y-100433669D01*
X135612778Y-100497009D01*
X135696443Y-100653534D01*
X135747963Y-100823373D01*
X135765359Y-101000000D01*
X135747963Y-101176627D01*
X135696443Y-101346466D01*
X135612778Y-101502991D01*
X135598549Y-101520329D01*
X135500186Y-101640186D01*
X135398729Y-101723448D01*
X135362991Y-101752778D01*
X135206466Y-101836443D01*
X135061608Y-101880385D01*
X135038974Y-101889761D01*
X135018600Y-101903374D01*
X135001273Y-101920701D01*
X134987659Y-101941076D01*
X134978282Y-101963714D01*
X134973501Y-101987748D01*
X134973501Y-102012252D01*
X134978281Y-102036285D01*
X134987659Y-102058924D01*
X135001272Y-102079298D01*
X135018599Y-102096625D01*
X135038974Y-102110239D01*
X135061608Y-102119615D01*
X135206466Y-102163557D01*
X135362991Y-102247222D01*
X135367594Y-102251000D01*
X135500186Y-102359814D01*
X135583448Y-102461271D01*
X135612778Y-102497009D01*
X135696443Y-102653534D01*
X135747963Y-102823373D01*
X135765359Y-103000000D01*
X135747963Y-103176627D01*
X135696443Y-103346466D01*
X135612778Y-103502991D01*
X135610653Y-103505580D01*
X135500186Y-103640186D01*
X135398729Y-103723448D01*
X135362991Y-103752778D01*
X135206466Y-103836443D01*
X135036627Y-103887963D01*
X134970442Y-103894482D01*
X134904260Y-103901000D01*
X134515740Y-103901000D01*
X134449558Y-103894482D01*
X134383373Y-103887963D01*
X134213534Y-103836443D01*
X134057009Y-103752778D01*
X134021271Y-103723448D01*
X133919814Y-103640186D01*
X133809347Y-103505580D01*
X133807222Y-103502991D01*
X133723557Y-103346466D01*
X133672037Y-103176627D01*
X133654641Y-103000000D01*
X133672037Y-102823373D01*
X133723557Y-102653534D01*
X133807222Y-102497009D01*
X133836552Y-102461271D01*
X133919814Y-102359814D01*
X134052406Y-102251000D01*
X134057009Y-102247222D01*
X134213534Y-102163557D01*
X134358392Y-102119615D01*
X134381026Y-102110239D01*
X134401400Y-102096626D01*
X134418727Y-102079299D01*
X134432341Y-102058924D01*
X134441718Y-102036286D01*
X134446499Y-102012252D01*
X134446499Y-101987748D01*
X134441719Y-101963715D01*
X134432341Y-101941076D01*
X134418728Y-101920702D01*
X134401401Y-101903375D01*
X134381026Y-101889761D01*
X134358392Y-101880385D01*
X134213534Y-101836443D01*
X134057009Y-101752778D01*
X134021271Y-101723448D01*
X133919814Y-101640186D01*
X133821451Y-101520329D01*
X133807222Y-101502991D01*
X133723557Y-101346466D01*
X133672037Y-101176627D01*
X133654641Y-101000000D01*
X133672037Y-100823373D01*
X133723557Y-100653534D01*
X133807222Y-100497009D01*
X133859204Y-100433669D01*
X133919814Y-100359814D01*
X134054007Y-100249686D01*
X134057009Y-100247222D01*
X134213534Y-100163557D01*
X134383373Y-100112037D01*
X134449557Y-100105519D01*
X134515740Y-100099000D01*
X134904260Y-100099000D01*
X134970443Y-100105519D01*
X134970443Y-100105519D01*
G37*
G36*
X141260443Y-100105519D02*
G01*
X141326627Y-100112037D01*
X141496466Y-100163557D01*
X141652991Y-100247222D01*
X141655993Y-100249686D01*
X141790186Y-100359814D01*
X141850796Y-100433669D01*
X141902778Y-100497009D01*
X141986443Y-100653534D01*
X142037963Y-100823373D01*
X142055359Y-101000000D01*
X142037963Y-101176627D01*
X141986443Y-101346466D01*
X141902778Y-101502991D01*
X141888549Y-101520329D01*
X141790186Y-101640186D01*
X141688729Y-101723448D01*
X141652991Y-101752778D01*
X141496466Y-101836443D01*
X141351608Y-101880385D01*
X141328974Y-101889761D01*
X141308600Y-101903374D01*
X141291273Y-101920701D01*
X141277659Y-101941076D01*
X141268282Y-101963714D01*
X141263501Y-101987748D01*
X141263501Y-102012252D01*
X141268281Y-102036285D01*
X141277659Y-102058924D01*
X141291272Y-102079298D01*
X141308599Y-102096625D01*
X141328974Y-102110239D01*
X141351608Y-102119615D01*
X141496466Y-102163557D01*
X141652991Y-102247222D01*
X141657594Y-102251000D01*
X141790186Y-102359814D01*
X141873448Y-102461271D01*
X141902778Y-102497009D01*
X141986443Y-102653534D01*
X142037963Y-102823373D01*
X142055359Y-103000000D01*
X142037963Y-103176627D01*
X141986443Y-103346466D01*
X141902778Y-103502991D01*
X141900653Y-103505580D01*
X141790186Y-103640186D01*
X141688729Y-103723448D01*
X141652991Y-103752778D01*
X141496466Y-103836443D01*
X141326627Y-103887963D01*
X141260442Y-103894482D01*
X141194260Y-103901000D01*
X140805740Y-103901000D01*
X140739558Y-103894482D01*
X140673373Y-103887963D01*
X140503534Y-103836443D01*
X140347009Y-103752778D01*
X140311271Y-103723448D01*
X140209814Y-103640186D01*
X140099347Y-103505580D01*
X140097222Y-103502991D01*
X140013557Y-103346466D01*
X139962037Y-103176627D01*
X139944641Y-103000000D01*
X139962037Y-102823373D01*
X140013557Y-102653534D01*
X140097222Y-102497009D01*
X140126552Y-102461271D01*
X140209814Y-102359814D01*
X140342406Y-102251000D01*
X140347009Y-102247222D01*
X140503534Y-102163557D01*
X140648392Y-102119615D01*
X140671026Y-102110239D01*
X140691400Y-102096626D01*
X140708727Y-102079299D01*
X140722341Y-102058924D01*
X140731718Y-102036286D01*
X140736499Y-102012252D01*
X140736499Y-101987748D01*
X140731719Y-101963715D01*
X140722341Y-101941076D01*
X140708728Y-101920702D01*
X140691401Y-101903375D01*
X140671026Y-101889761D01*
X140648392Y-101880385D01*
X140503534Y-101836443D01*
X140347009Y-101752778D01*
X140311271Y-101723448D01*
X140209814Y-101640186D01*
X140111451Y-101520329D01*
X140097222Y-101502991D01*
X140013557Y-101346466D01*
X139962037Y-101176627D01*
X139944641Y-101000000D01*
X139962037Y-100823373D01*
X140013557Y-100653534D01*
X140097222Y-100497009D01*
X140149204Y-100433669D01*
X140209814Y-100359814D01*
X140344007Y-100249686D01*
X140347009Y-100247222D01*
X140503534Y-100163557D01*
X140673373Y-100112037D01*
X140739557Y-100105519D01*
X140805740Y-100099000D01*
X141194260Y-100099000D01*
X141260443Y-100105519D01*
X141260443Y-100105519D01*
G37*
G36*
X125131552Y-102966331D02*
G01*
X125196539Y-102993250D01*
X125213629Y-103000329D01*
X125240746Y-103018448D01*
X125287495Y-103049685D01*
X125350315Y-103112505D01*
X125399672Y-103186373D01*
X125433669Y-103268448D01*
X125451000Y-103355579D01*
X125451000Y-103444421D01*
X125433669Y-103531552D01*
X125407628Y-103594420D01*
X125399671Y-103613629D01*
X125385533Y-103634788D01*
X125350315Y-103687495D01*
X125287495Y-103750315D01*
X125250813Y-103774825D01*
X125213629Y-103799671D01*
X125213628Y-103799672D01*
X125213627Y-103799672D01*
X125131552Y-103833669D01*
X125044421Y-103851000D01*
X124955579Y-103851000D01*
X124868448Y-103833669D01*
X124786373Y-103799672D01*
X124786372Y-103799672D01*
X124786371Y-103799671D01*
X124749187Y-103774825D01*
X124712505Y-103750315D01*
X124649685Y-103687495D01*
X124614467Y-103634788D01*
X124600329Y-103613629D01*
X124592372Y-103594420D01*
X124566331Y-103531552D01*
X124549000Y-103444421D01*
X124549000Y-103355579D01*
X124566331Y-103268448D01*
X124600328Y-103186373D01*
X124649685Y-103112505D01*
X124712505Y-103049685D01*
X124759254Y-103018448D01*
X124786371Y-103000329D01*
X124803461Y-102993250D01*
X124868448Y-102966331D01*
X124955579Y-102949000D01*
X125044421Y-102949000D01*
X125131552Y-102966331D01*
X125131552Y-102966331D01*
G37*
G36*
X143031552Y-102716331D02*
G01*
X143113627Y-102750328D01*
X143113629Y-102750329D01*
X143142136Y-102769377D01*
X143187495Y-102799685D01*
X143250315Y-102862505D01*
X143299672Y-102936373D01*
X143333669Y-103018448D01*
X143351000Y-103105579D01*
X143351000Y-103194421D01*
X143333669Y-103281552D01*
X143299672Y-103363627D01*
X143250315Y-103437495D01*
X143187495Y-103500315D01*
X143179615Y-103505580D01*
X143113629Y-103549671D01*
X143113628Y-103549672D01*
X143113627Y-103549672D01*
X143031552Y-103583669D01*
X142944421Y-103601000D01*
X142855579Y-103601000D01*
X142768448Y-103583669D01*
X142686373Y-103549672D01*
X142686372Y-103549672D01*
X142686371Y-103549671D01*
X142620385Y-103505580D01*
X142612505Y-103500315D01*
X142549685Y-103437495D01*
X142500328Y-103363627D01*
X142466331Y-103281552D01*
X142449000Y-103194421D01*
X142449000Y-103105579D01*
X142466331Y-103018448D01*
X142500328Y-102936373D01*
X142549685Y-102862505D01*
X142612505Y-102799685D01*
X142657864Y-102769377D01*
X142686371Y-102750329D01*
X142686373Y-102750328D01*
X142768448Y-102716331D01*
X142855579Y-102699000D01*
X142944421Y-102699000D01*
X143031552Y-102716331D01*
X143031552Y-102716331D01*
G37*
G36*
X137711552Y-101486331D02*
G01*
X137793627Y-101520328D01*
X137793629Y-101520329D01*
X137830813Y-101545175D01*
X137867495Y-101569685D01*
X137930315Y-101632505D01*
X137979672Y-101706373D01*
X138013669Y-101788448D01*
X138031000Y-101875579D01*
X138031000Y-101964421D01*
X138013669Y-102051552D01*
X137988615Y-102112037D01*
X137979671Y-102133629D01*
X137930314Y-102207496D01*
X137867496Y-102270314D01*
X137793629Y-102319671D01*
X137793628Y-102319672D01*
X137793627Y-102319672D01*
X137711552Y-102353669D01*
X137624421Y-102371000D01*
X137535579Y-102371000D01*
X137448448Y-102353669D01*
X137366373Y-102319672D01*
X137366372Y-102319672D01*
X137366371Y-102319671D01*
X137292504Y-102270314D01*
X137229686Y-102207496D01*
X137180329Y-102133629D01*
X137171385Y-102112037D01*
X137146331Y-102051552D01*
X137129000Y-101964421D01*
X137129000Y-101875579D01*
X137146331Y-101788448D01*
X137180328Y-101706373D01*
X137229685Y-101632505D01*
X137292505Y-101569685D01*
X137329187Y-101545175D01*
X137366371Y-101520329D01*
X137366373Y-101520328D01*
X137448448Y-101486331D01*
X137535579Y-101469000D01*
X137624421Y-101469000D01*
X137711552Y-101486331D01*
X137711552Y-101486331D01*
G37*
G36*
X143031552Y-101366331D02*
G01*
X143113627Y-101400328D01*
X143113629Y-101400329D01*
X143187496Y-101449686D01*
X143250314Y-101512504D01*
X143288522Y-101569685D01*
X143299672Y-101586373D01*
X143333669Y-101668448D01*
X143351000Y-101755579D01*
X143351000Y-101844421D01*
X143333669Y-101931552D01*
X143299672Y-102013627D01*
X143299671Y-102013629D01*
X143284532Y-102036286D01*
X143269406Y-102058924D01*
X143250314Y-102087496D01*
X143187496Y-102150314D01*
X143113629Y-102199671D01*
X143113628Y-102199672D01*
X143113627Y-102199672D01*
X143031552Y-102233669D01*
X142944421Y-102251000D01*
X142855579Y-102251000D01*
X142768448Y-102233669D01*
X142686373Y-102199672D01*
X142686372Y-102199672D01*
X142686371Y-102199671D01*
X142612504Y-102150314D01*
X142549686Y-102087496D01*
X142530595Y-102058924D01*
X142515468Y-102036286D01*
X142500329Y-102013629D01*
X142500328Y-102013627D01*
X142466331Y-101931552D01*
X142449000Y-101844421D01*
X142449000Y-101755579D01*
X142466331Y-101668448D01*
X142500328Y-101586373D01*
X142511479Y-101569685D01*
X142549686Y-101512504D01*
X142612504Y-101449686D01*
X142686371Y-101400329D01*
X142686373Y-101400328D01*
X142768448Y-101366331D01*
X142855579Y-101349000D01*
X142944421Y-101349000D01*
X143031552Y-101366331D01*
X143031552Y-101366331D01*
G37*
G36*
X132831552Y-100366331D02*
G01*
X132912043Y-100399672D01*
X132913629Y-100400329D01*
X132950813Y-100425175D01*
X132987495Y-100449685D01*
X133050315Y-100512505D01*
X133099672Y-100586373D01*
X133133669Y-100668448D01*
X133151000Y-100755579D01*
X133151000Y-100844421D01*
X133133669Y-100931552D01*
X133099672Y-101013627D01*
X133099671Y-101013629D01*
X133050314Y-101087496D01*
X132987496Y-101150314D01*
X132913629Y-101199671D01*
X132913628Y-101199672D01*
X132913627Y-101199672D01*
X132831552Y-101233669D01*
X132744421Y-101251000D01*
X132655579Y-101251000D01*
X132568448Y-101233669D01*
X132486373Y-101199672D01*
X132486372Y-101199672D01*
X132486371Y-101199671D01*
X132412504Y-101150314D01*
X132349686Y-101087496D01*
X132300329Y-101013629D01*
X132300328Y-101013627D01*
X132266331Y-100931552D01*
X132249000Y-100844421D01*
X132249000Y-100755579D01*
X132266331Y-100668448D01*
X132300328Y-100586373D01*
X132349685Y-100512505D01*
X132412505Y-100449685D01*
X132449187Y-100425175D01*
X132486371Y-100400329D01*
X132487957Y-100399672D01*
X132568448Y-100366331D01*
X132655579Y-100349000D01*
X132744421Y-100349000D01*
X132831552Y-100366331D01*
X132831552Y-100366331D01*
G37*
G36*
X136681552Y-100166331D02*
G01*
X136763627Y-100200328D01*
X136763629Y-100200329D01*
X136800813Y-100225175D01*
X136833809Y-100247222D01*
X136837496Y-100249686D01*
X136900314Y-100312504D01*
X136936281Y-100366331D01*
X136949672Y-100386373D01*
X136983669Y-100468448D01*
X137001000Y-100555579D01*
X137001000Y-100644421D01*
X136983669Y-100731552D01*
X136949672Y-100813627D01*
X136949671Y-100813629D01*
X136900314Y-100887496D01*
X136837496Y-100950314D01*
X136763629Y-100999671D01*
X136763628Y-100999672D01*
X136763627Y-100999672D01*
X136681552Y-101033669D01*
X136594421Y-101051000D01*
X136505579Y-101051000D01*
X136418448Y-101033669D01*
X136336373Y-100999672D01*
X136336372Y-100999672D01*
X136336371Y-100999671D01*
X136262504Y-100950314D01*
X136199686Y-100887496D01*
X136150329Y-100813629D01*
X136150328Y-100813627D01*
X136116331Y-100731552D01*
X136099000Y-100644421D01*
X136099000Y-100555579D01*
X136116331Y-100468448D01*
X136150328Y-100386373D01*
X136163720Y-100366331D01*
X136199686Y-100312504D01*
X136262504Y-100249686D01*
X136266192Y-100247222D01*
X136299187Y-100225175D01*
X136336371Y-100200329D01*
X136336373Y-100200328D01*
X136418448Y-100166331D01*
X136505579Y-100149000D01*
X136594421Y-100149000D01*
X136681552Y-100166331D01*
X136681552Y-100166331D01*
G37*
G36*
X143031552Y-99766331D02*
G01*
X143113627Y-99800328D01*
X143113629Y-99800329D01*
X143150813Y-99825175D01*
X143187495Y-99849685D01*
X143250315Y-99912505D01*
X143299672Y-99986373D01*
X143333669Y-100068448D01*
X143351000Y-100155579D01*
X143351000Y-100244421D01*
X143333669Y-100331552D01*
X143305180Y-100400329D01*
X143299671Y-100413629D01*
X143275579Y-100449685D01*
X143250315Y-100487495D01*
X143187495Y-100550315D01*
X143179615Y-100555580D01*
X143113629Y-100599671D01*
X143113628Y-100599672D01*
X143113627Y-100599672D01*
X143031552Y-100633669D01*
X142944421Y-100651000D01*
X142855579Y-100651000D01*
X142768448Y-100633669D01*
X142686373Y-100599672D01*
X142686372Y-100599672D01*
X142686371Y-100599671D01*
X142620385Y-100555580D01*
X142612505Y-100550315D01*
X142549685Y-100487495D01*
X142524421Y-100449685D01*
X142500329Y-100413629D01*
X142494820Y-100400329D01*
X142466331Y-100331552D01*
X142449000Y-100244421D01*
X142449000Y-100155579D01*
X142466331Y-100068448D01*
X142500328Y-99986373D01*
X142549685Y-99912505D01*
X142612505Y-99849685D01*
X142649187Y-99825175D01*
X142686371Y-99800329D01*
X142686373Y-99800328D01*
X142768448Y-99766331D01*
X142855579Y-99749000D01*
X142944421Y-99749000D01*
X143031552Y-99766331D01*
X143031552Y-99766331D01*
G37*
G36*
X125131552Y-99566331D02*
G01*
X125213627Y-99600328D01*
X125213629Y-99600329D01*
X125287496Y-99649686D01*
X125350314Y-99712504D01*
X125386281Y-99766331D01*
X125399672Y-99786373D01*
X125433669Y-99868448D01*
X125451000Y-99955579D01*
X125451000Y-100044421D01*
X125433669Y-100131552D01*
X125399672Y-100213627D01*
X125350315Y-100287495D01*
X125287495Y-100350315D01*
X125273277Y-100359815D01*
X125213629Y-100399671D01*
X125213628Y-100399672D01*
X125213627Y-100399672D01*
X125131552Y-100433669D01*
X125044421Y-100451000D01*
X124955579Y-100451000D01*
X124868448Y-100433669D01*
X124786373Y-100399672D01*
X124786372Y-100399672D01*
X124786371Y-100399671D01*
X124726723Y-100359815D01*
X124712505Y-100350315D01*
X124649685Y-100287495D01*
X124600328Y-100213627D01*
X124566331Y-100131552D01*
X124549000Y-100044421D01*
X124549000Y-99955579D01*
X124566331Y-99868448D01*
X124600328Y-99786373D01*
X124613720Y-99766331D01*
X124649686Y-99712504D01*
X124712504Y-99649686D01*
X124786371Y-99600329D01*
X124786373Y-99600328D01*
X124868448Y-99566331D01*
X124955579Y-99549000D01*
X125044421Y-99549000D01*
X125131552Y-99566331D01*
X125131552Y-99566331D01*
G37*
G36*
X135001981Y-97537468D02*
G01*
X135071664Y-97566332D01*
X135153740Y-97600329D01*
X135184151Y-97612926D01*
X135348100Y-97722473D01*
X135487527Y-97861900D01*
X135597074Y-98025849D01*
X135597075Y-98025851D01*
X135604767Y-98044421D01*
X135672532Y-98208019D01*
X135711000Y-98401410D01*
X135711000Y-98598590D01*
X135673648Y-98786373D01*
X135672532Y-98791980D01*
X135604767Y-98955580D01*
X135597074Y-98974151D01*
X135487527Y-99138100D01*
X135348100Y-99277527D01*
X135184151Y-99387074D01*
X135184150Y-99387075D01*
X135184149Y-99387075D01*
X135153737Y-99399672D01*
X135001981Y-99462532D01*
X134905285Y-99481766D01*
X134808591Y-99501000D01*
X134611409Y-99501000D01*
X134514715Y-99481766D01*
X134418019Y-99462532D01*
X134266263Y-99399672D01*
X134235851Y-99387075D01*
X134235850Y-99387075D01*
X134235849Y-99387074D01*
X134071900Y-99277527D01*
X133932473Y-99138100D01*
X133822926Y-98974151D01*
X133815234Y-98955580D01*
X133747468Y-98791980D01*
X133746353Y-98786373D01*
X133709000Y-98598590D01*
X133709000Y-98401410D01*
X133747468Y-98208019D01*
X133815233Y-98044421D01*
X133822925Y-98025851D01*
X133822926Y-98025849D01*
X133932473Y-97861900D01*
X134071900Y-97722473D01*
X134235849Y-97612926D01*
X134266261Y-97600329D01*
X134348336Y-97566332D01*
X134418019Y-97537468D01*
X134611409Y-97499000D01*
X134808591Y-97499000D01*
X135001981Y-97537468D01*
X135001981Y-97537468D01*
G37*
G36*
X141291981Y-97537468D02*
G01*
X141361664Y-97566332D01*
X141443740Y-97600329D01*
X141474151Y-97612926D01*
X141638100Y-97722473D01*
X141777527Y-97861900D01*
X141887074Y-98025849D01*
X141887075Y-98025851D01*
X141894767Y-98044421D01*
X141962532Y-98208019D01*
X142001000Y-98401410D01*
X142001000Y-98598590D01*
X141963648Y-98786373D01*
X141962532Y-98791980D01*
X141894767Y-98955580D01*
X141887074Y-98974151D01*
X141777527Y-99138100D01*
X141638100Y-99277527D01*
X141474151Y-99387074D01*
X141474150Y-99387075D01*
X141474149Y-99387075D01*
X141443737Y-99399672D01*
X141291981Y-99462532D01*
X141195285Y-99481766D01*
X141098591Y-99501000D01*
X140901409Y-99501000D01*
X140804715Y-99481766D01*
X140708019Y-99462532D01*
X140556263Y-99399672D01*
X140525851Y-99387075D01*
X140525850Y-99387075D01*
X140525849Y-99387074D01*
X140361900Y-99277527D01*
X140222473Y-99138100D01*
X140112926Y-98974151D01*
X140105234Y-98955580D01*
X140037468Y-98791980D01*
X140036353Y-98786373D01*
X139999000Y-98598590D01*
X139999000Y-98401410D01*
X140037468Y-98208019D01*
X140105233Y-98044421D01*
X140112925Y-98025851D01*
X140112926Y-98025849D01*
X140222473Y-97861900D01*
X140361900Y-97722473D01*
X140525849Y-97612926D01*
X140556261Y-97600329D01*
X140638336Y-97566332D01*
X140708019Y-97537468D01*
X140901409Y-97499000D01*
X141098591Y-97499000D01*
X141291981Y-97537468D01*
X141291981Y-97537468D01*
G37*
G36*
X150131552Y-98566331D02*
G01*
X150213627Y-98600328D01*
X150213629Y-98600329D01*
X150250813Y-98625175D01*
X150287495Y-98649685D01*
X150350315Y-98712505D01*
X150399672Y-98786373D01*
X150433669Y-98868448D01*
X150451000Y-98955579D01*
X150451000Y-99044421D01*
X150433669Y-99131552D01*
X150399672Y-99213627D01*
X150399671Y-99213629D01*
X150350314Y-99287496D01*
X150287496Y-99350314D01*
X150213629Y-99399671D01*
X150213628Y-99399672D01*
X150213627Y-99399672D01*
X150131552Y-99433669D01*
X150044421Y-99451000D01*
X149955579Y-99451000D01*
X149868448Y-99433669D01*
X149786373Y-99399672D01*
X149786372Y-99399672D01*
X149786371Y-99399671D01*
X149712504Y-99350314D01*
X149649686Y-99287496D01*
X149600329Y-99213629D01*
X149600328Y-99213627D01*
X149566331Y-99131552D01*
X149549000Y-99044421D01*
X149549000Y-98955579D01*
X149566331Y-98868448D01*
X149600328Y-98786373D01*
X149649685Y-98712505D01*
X149712505Y-98649685D01*
X149749187Y-98625175D01*
X149786371Y-98600329D01*
X149786373Y-98600328D01*
X149868448Y-98566331D01*
X149955579Y-98549000D01*
X150044421Y-98549000D01*
X150131552Y-98566331D01*
X150131552Y-98566331D01*
G37*
G36*
X148131552Y-98566331D02*
G01*
X148213627Y-98600328D01*
X148213629Y-98600329D01*
X148250813Y-98625175D01*
X148287495Y-98649685D01*
X148350315Y-98712505D01*
X148399672Y-98786373D01*
X148433669Y-98868448D01*
X148451000Y-98955579D01*
X148451000Y-99044421D01*
X148433669Y-99131552D01*
X148399672Y-99213627D01*
X148399671Y-99213629D01*
X148350314Y-99287496D01*
X148287496Y-99350314D01*
X148213629Y-99399671D01*
X148213628Y-99399672D01*
X148213627Y-99399672D01*
X148131552Y-99433669D01*
X148044421Y-99451000D01*
X147955579Y-99451000D01*
X147868448Y-99433669D01*
X147786373Y-99399672D01*
X147786372Y-99399672D01*
X147786371Y-99399671D01*
X147712504Y-99350314D01*
X147649686Y-99287496D01*
X147600329Y-99213629D01*
X147600328Y-99213627D01*
X147566331Y-99131552D01*
X147549000Y-99044421D01*
X147549000Y-98955579D01*
X147566331Y-98868448D01*
X147600328Y-98786373D01*
X147649685Y-98712505D01*
X147712505Y-98649685D01*
X147749187Y-98625175D01*
X147786371Y-98600329D01*
X147786373Y-98600328D01*
X147868448Y-98566331D01*
X147955579Y-98549000D01*
X148044421Y-98549000D01*
X148131552Y-98566331D01*
X148131552Y-98566331D01*
G37*
G36*
X143031552Y-97566331D02*
G01*
X143113627Y-97600328D01*
X143113629Y-97600329D01*
X143132480Y-97612925D01*
X143187495Y-97649685D01*
X143250315Y-97712505D01*
X143299672Y-97786373D01*
X143333669Y-97868448D01*
X143351000Y-97955579D01*
X143351000Y-98044421D01*
X143333669Y-98131552D01*
X143299672Y-98213627D01*
X143299671Y-98213629D01*
X143250314Y-98287496D01*
X143187496Y-98350314D01*
X143113629Y-98399671D01*
X143113628Y-98399672D01*
X143113627Y-98399672D01*
X143031552Y-98433669D01*
X142944421Y-98451000D01*
X142855579Y-98451000D01*
X142768448Y-98433669D01*
X142686373Y-98399672D01*
X142686372Y-98399672D01*
X142686371Y-98399671D01*
X142612504Y-98350314D01*
X142549686Y-98287496D01*
X142500329Y-98213629D01*
X142500328Y-98213627D01*
X142466331Y-98131552D01*
X142449000Y-98044421D01*
X142449000Y-97955579D01*
X142466331Y-97868448D01*
X142500328Y-97786373D01*
X142549685Y-97712505D01*
X142612505Y-97649685D01*
X142667520Y-97612925D01*
X142686371Y-97600329D01*
X142686373Y-97600328D01*
X142768448Y-97566331D01*
X142855579Y-97549000D01*
X142944421Y-97549000D01*
X143031552Y-97566331D01*
X143031552Y-97566331D01*
G37*
G36*
X125131552Y-96566331D02*
G01*
X125212043Y-96599672D01*
X125213629Y-96600329D01*
X125231850Y-96612504D01*
X125287495Y-96649685D01*
X125350315Y-96712505D01*
X125399672Y-96786373D01*
X125433669Y-96868448D01*
X125451000Y-96955579D01*
X125451000Y-97044421D01*
X125433669Y-97131552D01*
X125399672Y-97213627D01*
X125350315Y-97287495D01*
X125287495Y-97350315D01*
X125250813Y-97374825D01*
X125213629Y-97399671D01*
X125213628Y-97399672D01*
X125213627Y-97399672D01*
X125131552Y-97433669D01*
X125044421Y-97451000D01*
X124955579Y-97451000D01*
X124868448Y-97433669D01*
X124786373Y-97399672D01*
X124786372Y-97399672D01*
X124786371Y-97399671D01*
X124749187Y-97374825D01*
X124712505Y-97350315D01*
X124649685Y-97287495D01*
X124600328Y-97213627D01*
X124566331Y-97131552D01*
X124549000Y-97044421D01*
X124549000Y-96955579D01*
X124566331Y-96868448D01*
X124600328Y-96786373D01*
X124649685Y-96712505D01*
X124712505Y-96649685D01*
X124768150Y-96612504D01*
X124786371Y-96600329D01*
X124787957Y-96599672D01*
X124868448Y-96566331D01*
X124955579Y-96549000D01*
X125044421Y-96549000D01*
X125131552Y-96566331D01*
X125131552Y-96566331D01*
G37*
G36*
X150131552Y-96566331D02*
G01*
X150212043Y-96599672D01*
X150213629Y-96600329D01*
X150231850Y-96612504D01*
X150287495Y-96649685D01*
X150350315Y-96712505D01*
X150399672Y-96786373D01*
X150433669Y-96868448D01*
X150451000Y-96955579D01*
X150451000Y-97044421D01*
X150433669Y-97131552D01*
X150399672Y-97213627D01*
X150350315Y-97287495D01*
X150287495Y-97350315D01*
X150250813Y-97374825D01*
X150213629Y-97399671D01*
X150213628Y-97399672D01*
X150213627Y-97399672D01*
X150131552Y-97433669D01*
X150044421Y-97451000D01*
X149955579Y-97451000D01*
X149868448Y-97433669D01*
X149786373Y-97399672D01*
X149786372Y-97399672D01*
X149786371Y-97399671D01*
X149749187Y-97374825D01*
X149712505Y-97350315D01*
X149649685Y-97287495D01*
X149600328Y-97213627D01*
X149566331Y-97131552D01*
X149549000Y-97044421D01*
X149549000Y-96955579D01*
X149566331Y-96868448D01*
X149600328Y-96786373D01*
X149649685Y-96712505D01*
X149712505Y-96649685D01*
X149768150Y-96612504D01*
X149786371Y-96600329D01*
X149787957Y-96599672D01*
X149868448Y-96566331D01*
X149955579Y-96549000D01*
X150044421Y-96549000D01*
X150131552Y-96566331D01*
X150131552Y-96566331D01*
G37*
G36*
X148131552Y-96566331D02*
G01*
X148212043Y-96599672D01*
X148213629Y-96600329D01*
X148231850Y-96612504D01*
X148287495Y-96649685D01*
X148350315Y-96712505D01*
X148399672Y-96786373D01*
X148433669Y-96868448D01*
X148451000Y-96955579D01*
X148451000Y-97044421D01*
X148433669Y-97131552D01*
X148399672Y-97213627D01*
X148350315Y-97287495D01*
X148287495Y-97350315D01*
X148250813Y-97374825D01*
X148213629Y-97399671D01*
X148213628Y-97399672D01*
X148213627Y-97399672D01*
X148131552Y-97433669D01*
X148044421Y-97451000D01*
X147955579Y-97451000D01*
X147868448Y-97433669D01*
X147786373Y-97399672D01*
X147786372Y-97399672D01*
X147786371Y-97399671D01*
X147749187Y-97374825D01*
X147712505Y-97350315D01*
X147649685Y-97287495D01*
X147600328Y-97213627D01*
X147566331Y-97131552D01*
X147549000Y-97044421D01*
X147549000Y-96955579D01*
X147566331Y-96868448D01*
X147600328Y-96786373D01*
X147649685Y-96712505D01*
X147712505Y-96649685D01*
X147768150Y-96612504D01*
X147786371Y-96600329D01*
X147787957Y-96599672D01*
X147868448Y-96566331D01*
X147955579Y-96549000D01*
X148044421Y-96549000D01*
X148131552Y-96566331D01*
X148131552Y-96566331D01*
G37*
G36*
X140181552Y-96466331D02*
G01*
X140263627Y-96500328D01*
X140263629Y-96500329D01*
X140284572Y-96514323D01*
X140337495Y-96549685D01*
X140400315Y-96612505D01*
X140449672Y-96686373D01*
X140483669Y-96768448D01*
X140501000Y-96855579D01*
X140501000Y-96944421D01*
X140483669Y-97031552D01*
X140469552Y-97065632D01*
X140449671Y-97113629D01*
X140400314Y-97187496D01*
X140337496Y-97250314D01*
X140263629Y-97299671D01*
X140263628Y-97299672D01*
X140263627Y-97299672D01*
X140181552Y-97333669D01*
X140094421Y-97351000D01*
X140005579Y-97351000D01*
X139918448Y-97333669D01*
X139836373Y-97299672D01*
X139836372Y-97299672D01*
X139836371Y-97299671D01*
X139762504Y-97250314D01*
X139699686Y-97187496D01*
X139650329Y-97113629D01*
X139630448Y-97065632D01*
X139616331Y-97031552D01*
X139599000Y-96944421D01*
X139599000Y-96855579D01*
X139616331Y-96768448D01*
X139650328Y-96686373D01*
X139699685Y-96612505D01*
X139762505Y-96549685D01*
X139815428Y-96514323D01*
X139836371Y-96500329D01*
X139836373Y-96500328D01*
X139918448Y-96466331D01*
X140005579Y-96449000D01*
X140094421Y-96449000D01*
X140181552Y-96466331D01*
X140181552Y-96466331D01*
G37*
G36*
X144206162Y-93794368D02*
G01*
X144515724Y-93922593D01*
X144578032Y-93964226D01*
X144794324Y-94108747D01*
X145031253Y-94345676D01*
X145068219Y-94401000D01*
X145217407Y-94624276D01*
X145345632Y-94933838D01*
X145411000Y-95262465D01*
X145411000Y-95597535D01*
X145345632Y-95926162D01*
X145217407Y-96235724D01*
X145211596Y-96244421D01*
X145031253Y-96514324D01*
X144794324Y-96751253D01*
X144638188Y-96855579D01*
X144515724Y-96937407D01*
X144206162Y-97065632D01*
X143877535Y-97131000D01*
X143542465Y-97131000D01*
X143213838Y-97065632D01*
X142904276Y-96937407D01*
X142781812Y-96855579D01*
X142625676Y-96751253D01*
X142388747Y-96514324D01*
X142208404Y-96244421D01*
X142202593Y-96235724D01*
X142074368Y-95926162D01*
X142009000Y-95597535D01*
X142009000Y-95262465D01*
X142074368Y-94933838D01*
X142202593Y-94624276D01*
X142351781Y-94401000D01*
X142388747Y-94345676D01*
X142625676Y-94108747D01*
X142841968Y-93964226D01*
X142904276Y-93922593D01*
X143213838Y-93794368D01*
X143542465Y-93729000D01*
X143877535Y-93729000D01*
X144206162Y-93794368D01*
X144206162Y-93794368D01*
G37*
G36*
X133781552Y-93306331D02*
G01*
X133863627Y-93340328D01*
X133863629Y-93340329D01*
X133878572Y-93350314D01*
X133937495Y-93389685D01*
X134000315Y-93452505D01*
X134049672Y-93526373D01*
X134083669Y-93608448D01*
X134101000Y-93695579D01*
X134101000Y-93784421D01*
X134083669Y-93871552D01*
X134049672Y-93953627D01*
X134000315Y-94027495D01*
X133937495Y-94090315D01*
X133906225Y-94111209D01*
X133863629Y-94139671D01*
X133863628Y-94139672D01*
X133863627Y-94139672D01*
X133781552Y-94173669D01*
X133694421Y-94191000D01*
X133605579Y-94191000D01*
X133518451Y-94173669D01*
X133518449Y-94173668D01*
X133518448Y-94173668D01*
X133467573Y-94152595D01*
X133444127Y-94145483D01*
X133419741Y-94143081D01*
X133395355Y-94145483D01*
X133371906Y-94152596D01*
X133350295Y-94164147D01*
X133331353Y-94179692D01*
X133315808Y-94198634D01*
X133304256Y-94220244D01*
X133297143Y-94243693D01*
X133294741Y-94268079D01*
X133297143Y-94292465D01*
X133304256Y-94315914D01*
X133315807Y-94337526D01*
X133321252Y-94345675D01*
X133321253Y-94345676D01*
X133323922Y-94349671D01*
X133507407Y-94624276D01*
X133635632Y-94933838D01*
X133701000Y-95262465D01*
X133701000Y-95597535D01*
X133635632Y-95926162D01*
X133507407Y-96235724D01*
X133501596Y-96244421D01*
X133321253Y-96514324D01*
X133084324Y-96751253D01*
X132928188Y-96855579D01*
X132805724Y-96937407D01*
X132496162Y-97065632D01*
X132167535Y-97131000D01*
X131832465Y-97131000D01*
X131503838Y-97065632D01*
X131194276Y-96937407D01*
X131071812Y-96855579D01*
X130915676Y-96751253D01*
X130678747Y-96514324D01*
X130498404Y-96244421D01*
X130492593Y-96235724D01*
X130364368Y-95926162D01*
X130299000Y-95597535D01*
X130299000Y-95262465D01*
X130364368Y-94933838D01*
X130492593Y-94624276D01*
X130641781Y-94401000D01*
X130678747Y-94345676D01*
X130915676Y-94108747D01*
X131131968Y-93964226D01*
X131194276Y-93922593D01*
X131503838Y-93794368D01*
X131832465Y-93729000D01*
X132167535Y-93729000D01*
X132496162Y-93794368D01*
X132805724Y-93922593D01*
X132868032Y-93964226D01*
X133060079Y-94092547D01*
X133081686Y-94104096D01*
X133105135Y-94111209D01*
X133129521Y-94113611D01*
X133153907Y-94111209D01*
X133177356Y-94104096D01*
X133198967Y-94092545D01*
X133217909Y-94077000D01*
X133233454Y-94058058D01*
X133245005Y-94036447D01*
X133252118Y-94012998D01*
X133254520Y-93988612D01*
X133252118Y-93964226D01*
X133245005Y-93940777D01*
X133216331Y-93871552D01*
X133199000Y-93784421D01*
X133199000Y-93695579D01*
X133216331Y-93608448D01*
X133250328Y-93526373D01*
X133299685Y-93452505D01*
X133362505Y-93389685D01*
X133421428Y-93350314D01*
X133436371Y-93340329D01*
X133436373Y-93340328D01*
X133518448Y-93306331D01*
X133605579Y-93289000D01*
X133694421Y-93289000D01*
X133781552Y-93306331D01*
X133781552Y-93306331D01*
G37*
G36*
X135531552Y-96066331D02*
G01*
X135613627Y-96100328D01*
X135613629Y-96100329D01*
X135650813Y-96125175D01*
X135687495Y-96149685D01*
X135750315Y-96212505D01*
X135799672Y-96286373D01*
X135833669Y-96368448D01*
X135851000Y-96455579D01*
X135851000Y-96544421D01*
X135833669Y-96631552D01*
X135799672Y-96713627D01*
X135750315Y-96787495D01*
X135687495Y-96850315D01*
X135679615Y-96855580D01*
X135613629Y-96899671D01*
X135613628Y-96899672D01*
X135613627Y-96899672D01*
X135531552Y-96933669D01*
X135444421Y-96951000D01*
X135355579Y-96951000D01*
X135268448Y-96933669D01*
X135186373Y-96899672D01*
X135186372Y-96899672D01*
X135186371Y-96899671D01*
X135120385Y-96855580D01*
X135112505Y-96850315D01*
X135049685Y-96787495D01*
X135000328Y-96713627D01*
X134966331Y-96631552D01*
X134949000Y-96544421D01*
X134949000Y-96455579D01*
X134966331Y-96368448D01*
X135000328Y-96286373D01*
X135049685Y-96212505D01*
X135112505Y-96149685D01*
X135149187Y-96125175D01*
X135186371Y-96100329D01*
X135186373Y-96100328D01*
X135268448Y-96066331D01*
X135355579Y-96049000D01*
X135444421Y-96049000D01*
X135531552Y-96066331D01*
X135531552Y-96066331D01*
G37*
G36*
X141431552Y-95766331D02*
G01*
X141513627Y-95800328D01*
X141513629Y-95800329D01*
X141550813Y-95825175D01*
X141587495Y-95849685D01*
X141650315Y-95912505D01*
X141699672Y-95986373D01*
X141733669Y-96068448D01*
X141751000Y-96155579D01*
X141751000Y-96244421D01*
X141733669Y-96331552D01*
X141699672Y-96413627D01*
X141699671Y-96413629D01*
X141650314Y-96487496D01*
X141587496Y-96550314D01*
X141513629Y-96599671D01*
X141513628Y-96599672D01*
X141513627Y-96599672D01*
X141431552Y-96633669D01*
X141344421Y-96651000D01*
X141255579Y-96651000D01*
X141168448Y-96633669D01*
X141086373Y-96599672D01*
X141086372Y-96599672D01*
X141086371Y-96599671D01*
X141012504Y-96550314D01*
X140949686Y-96487496D01*
X140900329Y-96413629D01*
X140900328Y-96413627D01*
X140866331Y-96331552D01*
X140849000Y-96244421D01*
X140849000Y-96155579D01*
X140866331Y-96068448D01*
X140900328Y-95986373D01*
X140949685Y-95912505D01*
X141012505Y-95849685D01*
X141049187Y-95825175D01*
X141086371Y-95800329D01*
X141086373Y-95800328D01*
X141168448Y-95766331D01*
X141255579Y-95749000D01*
X141344421Y-95749000D01*
X141431552Y-95766331D01*
X141431552Y-95766331D01*
G37*
G36*
X134581552Y-95066331D02*
G01*
X134663627Y-95100328D01*
X134663629Y-95100329D01*
X134700813Y-95125175D01*
X134737495Y-95149685D01*
X134800315Y-95212505D01*
X134849672Y-95286373D01*
X134883669Y-95368448D01*
X134901000Y-95455579D01*
X134901000Y-95544421D01*
X134883669Y-95631552D01*
X134849672Y-95713627D01*
X134849671Y-95713629D01*
X134800314Y-95787496D01*
X134737496Y-95850314D01*
X134663629Y-95899671D01*
X134663628Y-95899672D01*
X134663627Y-95899672D01*
X134581552Y-95933669D01*
X134494421Y-95951000D01*
X134405579Y-95951000D01*
X134318448Y-95933669D01*
X134236373Y-95899672D01*
X134236372Y-95899672D01*
X134236371Y-95899671D01*
X134162504Y-95850314D01*
X134099686Y-95787496D01*
X134050329Y-95713629D01*
X134050328Y-95713627D01*
X134016331Y-95631552D01*
X133999000Y-95544421D01*
X133999000Y-95455579D01*
X134016331Y-95368448D01*
X134050328Y-95286373D01*
X134099685Y-95212505D01*
X134162505Y-95149685D01*
X134199187Y-95125175D01*
X134236371Y-95100329D01*
X134236373Y-95100328D01*
X134318448Y-95066331D01*
X134405579Y-95049000D01*
X134494421Y-95049000D01*
X134581552Y-95066331D01*
X134581552Y-95066331D01*
G37*
G36*
X140181552Y-95066331D02*
G01*
X140263627Y-95100328D01*
X140263629Y-95100329D01*
X140300813Y-95125175D01*
X140337495Y-95149685D01*
X140400315Y-95212505D01*
X140449672Y-95286373D01*
X140483669Y-95368448D01*
X140501000Y-95455579D01*
X140501000Y-95544421D01*
X140483669Y-95631552D01*
X140449672Y-95713627D01*
X140449671Y-95713629D01*
X140400314Y-95787496D01*
X140337496Y-95850314D01*
X140263629Y-95899671D01*
X140263628Y-95899672D01*
X140263627Y-95899672D01*
X140181552Y-95933669D01*
X140094421Y-95951000D01*
X140005579Y-95951000D01*
X139918448Y-95933669D01*
X139836373Y-95899672D01*
X139836372Y-95899672D01*
X139836371Y-95899671D01*
X139762504Y-95850314D01*
X139699686Y-95787496D01*
X139650329Y-95713629D01*
X139650328Y-95713627D01*
X139616331Y-95631552D01*
X139599000Y-95544421D01*
X139599000Y-95455579D01*
X139616331Y-95368448D01*
X139650328Y-95286373D01*
X139699685Y-95212505D01*
X139762505Y-95149685D01*
X139799187Y-95125175D01*
X139836371Y-95100329D01*
X139836373Y-95100328D01*
X139918448Y-95066331D01*
X140005579Y-95049000D01*
X140094421Y-95049000D01*
X140181552Y-95066331D01*
X140181552Y-95066331D01*
G37*
G36*
X150131552Y-94566331D02*
G01*
X150213627Y-94600328D01*
X150213629Y-94600329D01*
X150249466Y-94624275D01*
X150287495Y-94649685D01*
X150350315Y-94712505D01*
X150399672Y-94786373D01*
X150433669Y-94868448D01*
X150451000Y-94955579D01*
X150451000Y-95044421D01*
X150433669Y-95131552D01*
X150399672Y-95213627D01*
X150351065Y-95286373D01*
X150350314Y-95287496D01*
X150287496Y-95350314D01*
X150213629Y-95399671D01*
X150213628Y-95399672D01*
X150213627Y-95399672D01*
X150131552Y-95433669D01*
X150044421Y-95451000D01*
X149955579Y-95451000D01*
X149868448Y-95433669D01*
X149786373Y-95399672D01*
X149786372Y-95399672D01*
X149786371Y-95399671D01*
X149712504Y-95350314D01*
X149649686Y-95287496D01*
X149648936Y-95286373D01*
X149600328Y-95213627D01*
X149566331Y-95131552D01*
X149549000Y-95044421D01*
X149549000Y-94955579D01*
X149566331Y-94868448D01*
X149600328Y-94786373D01*
X149649685Y-94712505D01*
X149712505Y-94649685D01*
X149750534Y-94624275D01*
X149786371Y-94600329D01*
X149786373Y-94600328D01*
X149868448Y-94566331D01*
X149955579Y-94549000D01*
X150044421Y-94549000D01*
X150131552Y-94566331D01*
X150131552Y-94566331D01*
G37*
G36*
X148131552Y-94566331D02*
G01*
X148213627Y-94600328D01*
X148213629Y-94600329D01*
X148249466Y-94624275D01*
X148287495Y-94649685D01*
X148350315Y-94712505D01*
X148399672Y-94786373D01*
X148433669Y-94868448D01*
X148451000Y-94955579D01*
X148451000Y-95044421D01*
X148433669Y-95131552D01*
X148399672Y-95213627D01*
X148351065Y-95286373D01*
X148350314Y-95287496D01*
X148287496Y-95350314D01*
X148213629Y-95399671D01*
X148213628Y-95399672D01*
X148213627Y-95399672D01*
X148131552Y-95433669D01*
X148044421Y-95451000D01*
X147955579Y-95451000D01*
X147868448Y-95433669D01*
X147786373Y-95399672D01*
X147786372Y-95399672D01*
X147786371Y-95399671D01*
X147712504Y-95350314D01*
X147649686Y-95287496D01*
X147648936Y-95286373D01*
X147600328Y-95213627D01*
X147566331Y-95131552D01*
X147549000Y-95044421D01*
X147549000Y-94955579D01*
X147566331Y-94868448D01*
X147600328Y-94786373D01*
X147649685Y-94712505D01*
X147712505Y-94649685D01*
X147750534Y-94624275D01*
X147786371Y-94600329D01*
X147786373Y-94600328D01*
X147868448Y-94566331D01*
X147955579Y-94549000D01*
X148044421Y-94549000D01*
X148131552Y-94566331D01*
X148131552Y-94566331D01*
G37*
G36*
X139231552Y-93516331D02*
G01*
X139313627Y-93550328D01*
X139313629Y-93550329D01*
X139340746Y-93568448D01*
X139387495Y-93599685D01*
X139450315Y-93662505D01*
X139499672Y-93736373D01*
X139533669Y-93818448D01*
X139551000Y-93905579D01*
X139551000Y-93994421D01*
X139533669Y-94081552D01*
X139504902Y-94151000D01*
X139499671Y-94163629D01*
X139450314Y-94237496D01*
X139387496Y-94300314D01*
X139313629Y-94349671D01*
X139313628Y-94349672D01*
X139313627Y-94349672D01*
X139231552Y-94383669D01*
X139144421Y-94401000D01*
X139055579Y-94401000D01*
X138968448Y-94383669D01*
X138886373Y-94349672D01*
X138886372Y-94349672D01*
X138886371Y-94349671D01*
X138812504Y-94300314D01*
X138749686Y-94237496D01*
X138700329Y-94163629D01*
X138695098Y-94151000D01*
X138666331Y-94081552D01*
X138649000Y-93994421D01*
X138649000Y-93905579D01*
X138666331Y-93818448D01*
X138700328Y-93736373D01*
X138749685Y-93662505D01*
X138812505Y-93599685D01*
X138859254Y-93568448D01*
X138886371Y-93550329D01*
X138886373Y-93550328D01*
X138968448Y-93516331D01*
X139055579Y-93499000D01*
X139144421Y-93499000D01*
X139231552Y-93516331D01*
X139231552Y-93516331D01*
G37*
G36*
X125381552Y-93266331D02*
G01*
X125463627Y-93300328D01*
X125463629Y-93300329D01*
X125472613Y-93306332D01*
X125537495Y-93349685D01*
X125600315Y-93412505D01*
X125649672Y-93486373D01*
X125683669Y-93568448D01*
X125701000Y-93655579D01*
X125701000Y-93744421D01*
X125683669Y-93831552D01*
X125653005Y-93905580D01*
X125649671Y-93913629D01*
X125631531Y-93940777D01*
X125600315Y-93987495D01*
X125537495Y-94050315D01*
X125500813Y-94074825D01*
X125463629Y-94099671D01*
X125463628Y-94099672D01*
X125463627Y-94099672D01*
X125381552Y-94133669D01*
X125294421Y-94151000D01*
X125205579Y-94151000D01*
X125118448Y-94133669D01*
X125036373Y-94099672D01*
X125036372Y-94099672D01*
X125036371Y-94099671D01*
X124999187Y-94074825D01*
X124962505Y-94050315D01*
X124899685Y-93987495D01*
X124868469Y-93940777D01*
X124850329Y-93913629D01*
X124846995Y-93905580D01*
X124816331Y-93831552D01*
X124799000Y-93744421D01*
X124799000Y-93655579D01*
X124816331Y-93568448D01*
X124850328Y-93486373D01*
X124899685Y-93412505D01*
X124962505Y-93349685D01*
X125027387Y-93306332D01*
X125036371Y-93300329D01*
X125036373Y-93300328D01*
X125118448Y-93266331D01*
X125205579Y-93249000D01*
X125294421Y-93249000D01*
X125381552Y-93266331D01*
X125381552Y-93266331D01*
G37*
G36*
X146131552Y-92566331D02*
G01*
X146213627Y-92600328D01*
X146213629Y-92600329D01*
X146220109Y-92604659D01*
X146287495Y-92649685D01*
X146350315Y-92712505D01*
X146399672Y-92786373D01*
X146433669Y-92868448D01*
X146451000Y-92955579D01*
X146451000Y-93044421D01*
X146433669Y-93131552D01*
X146405453Y-93199671D01*
X146399671Y-93213629D01*
X146350314Y-93287496D01*
X146287496Y-93350314D01*
X146213629Y-93399671D01*
X146213628Y-93399672D01*
X146213627Y-93399672D01*
X146131552Y-93433669D01*
X146044421Y-93451000D01*
X145955579Y-93451000D01*
X145868448Y-93433669D01*
X145786373Y-93399672D01*
X145786372Y-93399672D01*
X145786371Y-93399671D01*
X145712504Y-93350314D01*
X145649686Y-93287496D01*
X145600329Y-93213629D01*
X145594547Y-93199671D01*
X145566331Y-93131552D01*
X145549000Y-93044421D01*
X145549000Y-92955579D01*
X145566331Y-92868448D01*
X145600328Y-92786373D01*
X145649685Y-92712505D01*
X145712505Y-92649685D01*
X145779891Y-92604659D01*
X145786371Y-92600329D01*
X145786373Y-92600328D01*
X145868448Y-92566331D01*
X145955579Y-92549000D01*
X146044421Y-92549000D01*
X146131552Y-92566331D01*
X146131552Y-92566331D01*
G37*
G36*
X148131552Y-92566331D02*
G01*
X148213627Y-92600328D01*
X148213629Y-92600329D01*
X148220109Y-92604659D01*
X148287495Y-92649685D01*
X148350315Y-92712505D01*
X148399672Y-92786373D01*
X148433669Y-92868448D01*
X148451000Y-92955579D01*
X148451000Y-93044421D01*
X148433669Y-93131552D01*
X148405453Y-93199671D01*
X148399671Y-93213629D01*
X148350314Y-93287496D01*
X148287496Y-93350314D01*
X148213629Y-93399671D01*
X148213628Y-93399672D01*
X148213627Y-93399672D01*
X148131552Y-93433669D01*
X148044421Y-93451000D01*
X147955579Y-93451000D01*
X147868448Y-93433669D01*
X147786373Y-93399672D01*
X147786372Y-93399672D01*
X147786371Y-93399671D01*
X147712504Y-93350314D01*
X147649686Y-93287496D01*
X147600329Y-93213629D01*
X147594547Y-93199671D01*
X147566331Y-93131552D01*
X147549000Y-93044421D01*
X147549000Y-92955579D01*
X147566331Y-92868448D01*
X147600328Y-92786373D01*
X147649685Y-92712505D01*
X147712505Y-92649685D01*
X147779891Y-92604659D01*
X147786371Y-92600329D01*
X147786373Y-92600328D01*
X147868448Y-92566331D01*
X147955579Y-92549000D01*
X148044421Y-92549000D01*
X148131552Y-92566331D01*
X148131552Y-92566331D01*
G37*
G36*
X140131552Y-92566331D02*
G01*
X140213627Y-92600328D01*
X140213629Y-92600329D01*
X140220109Y-92604659D01*
X140287495Y-92649685D01*
X140350315Y-92712505D01*
X140399672Y-92786373D01*
X140433669Y-92868448D01*
X140451000Y-92955579D01*
X140451000Y-93044421D01*
X140433669Y-93131552D01*
X140405453Y-93199671D01*
X140399671Y-93213629D01*
X140350314Y-93287496D01*
X140287496Y-93350314D01*
X140213629Y-93399671D01*
X140213628Y-93399672D01*
X140213627Y-93399672D01*
X140131552Y-93433669D01*
X140044421Y-93451000D01*
X139955579Y-93451000D01*
X139868448Y-93433669D01*
X139786373Y-93399672D01*
X139786372Y-93399672D01*
X139786371Y-93399671D01*
X139712504Y-93350314D01*
X139649686Y-93287496D01*
X139600329Y-93213629D01*
X139594547Y-93199671D01*
X139566331Y-93131552D01*
X139549000Y-93044421D01*
X139549000Y-92955579D01*
X139566331Y-92868448D01*
X139600328Y-92786373D01*
X139649685Y-92712505D01*
X139712505Y-92649685D01*
X139779891Y-92604659D01*
X139786371Y-92600329D01*
X139786373Y-92600328D01*
X139868448Y-92566331D01*
X139955579Y-92549000D01*
X140044421Y-92549000D01*
X140131552Y-92566331D01*
X140131552Y-92566331D01*
G37*
G36*
X150131552Y-92566331D02*
G01*
X150213627Y-92600328D01*
X150213629Y-92600329D01*
X150220109Y-92604659D01*
X150287495Y-92649685D01*
X150350315Y-92712505D01*
X150399672Y-92786373D01*
X150433669Y-92868448D01*
X150451000Y-92955579D01*
X150451000Y-93044421D01*
X150433669Y-93131552D01*
X150405453Y-93199671D01*
X150399671Y-93213629D01*
X150350314Y-93287496D01*
X150287496Y-93350314D01*
X150213629Y-93399671D01*
X150213628Y-93399672D01*
X150213627Y-93399672D01*
X150131552Y-93433669D01*
X150044421Y-93451000D01*
X149955579Y-93451000D01*
X149868448Y-93433669D01*
X149786373Y-93399672D01*
X149786372Y-93399672D01*
X149786371Y-93399671D01*
X149712504Y-93350314D01*
X149649686Y-93287496D01*
X149600329Y-93213629D01*
X149594547Y-93199671D01*
X149566331Y-93131552D01*
X149549000Y-93044421D01*
X149549000Y-92955579D01*
X149566331Y-92868448D01*
X149600328Y-92786373D01*
X149649685Y-92712505D01*
X149712505Y-92649685D01*
X149779891Y-92604659D01*
X149786371Y-92600329D01*
X149786373Y-92600328D01*
X149868448Y-92566331D01*
X149955579Y-92549000D01*
X150044421Y-92549000D01*
X150131552Y-92566331D01*
X150131552Y-92566331D01*
G37*
G36*
X139277395Y-90685546D02*
G01*
X139450466Y-90757234D01*
X139507497Y-90795341D01*
X139606227Y-90861310D01*
X139738690Y-90993773D01*
X139738691Y-90993775D01*
X139842766Y-91149534D01*
X139914454Y-91322605D01*
X139951000Y-91506333D01*
X139951000Y-91693667D01*
X139914454Y-91877395D01*
X139842766Y-92050466D01*
X139842765Y-92050467D01*
X139738690Y-92206227D01*
X139606227Y-92338690D01*
X139527818Y-92391081D01*
X139450466Y-92442766D01*
X139277395Y-92514454D01*
X139093667Y-92551000D01*
X138906333Y-92551000D01*
X138722605Y-92514454D01*
X138575634Y-92453577D01*
X138552185Y-92446464D01*
X138527799Y-92444062D01*
X138503413Y-92446464D01*
X138479964Y-92453577D01*
X138458353Y-92465128D01*
X138439411Y-92480673D01*
X138423866Y-92499615D01*
X138412315Y-92521226D01*
X138405202Y-92544675D01*
X138402800Y-92569061D01*
X138405202Y-92593447D01*
X138412315Y-92616896D01*
X138433669Y-92668449D01*
X138451000Y-92755579D01*
X138451000Y-92844421D01*
X138433669Y-92931552D01*
X138399672Y-93013627D01*
X138399671Y-93013629D01*
X138350314Y-93087496D01*
X138287496Y-93150314D01*
X138213629Y-93199671D01*
X138213628Y-93199672D01*
X138213627Y-93199672D01*
X138131552Y-93233669D01*
X138044421Y-93251000D01*
X137955579Y-93251000D01*
X137868448Y-93233669D01*
X137786373Y-93199672D01*
X137786372Y-93199672D01*
X137786371Y-93199671D01*
X137712504Y-93150314D01*
X137649686Y-93087496D01*
X137600329Y-93013629D01*
X137600328Y-93013627D01*
X137566331Y-92931552D01*
X137549000Y-92844421D01*
X137549000Y-92755579D01*
X137566331Y-92668448D01*
X137600328Y-92586373D01*
X137611896Y-92569061D01*
X137648383Y-92514454D01*
X137649685Y-92512505D01*
X137712505Y-92449685D01*
X137749187Y-92425175D01*
X137786371Y-92400329D01*
X137786373Y-92400328D01*
X137868448Y-92366331D01*
X137955579Y-92349000D01*
X138044421Y-92349000D01*
X138108600Y-92361766D01*
X138132986Y-92364168D01*
X138157372Y-92361766D01*
X138180821Y-92354653D01*
X138202432Y-92343102D01*
X138221374Y-92327557D01*
X138236919Y-92308615D01*
X138248470Y-92287004D01*
X138255583Y-92263555D01*
X138257985Y-92239169D01*
X138255583Y-92214783D01*
X138248470Y-92191334D01*
X138236919Y-92169723D01*
X138157234Y-92050466D01*
X138085546Y-91877395D01*
X138049000Y-91693667D01*
X138049000Y-91506333D01*
X138085546Y-91322605D01*
X138157234Y-91149534D01*
X138261309Y-90993775D01*
X138261310Y-90993773D01*
X138393773Y-90861310D01*
X138492503Y-90795341D01*
X138549534Y-90757234D01*
X138722605Y-90685546D01*
X138906333Y-90649000D01*
X139093667Y-90649000D01*
X139277395Y-90685546D01*
X139277395Y-90685546D01*
G37*
G36*
X127471968Y-91453565D02*
G01*
X127510638Y-91465296D01*
X127546277Y-91484346D01*
X127577517Y-91509983D01*
X127603154Y-91541223D01*
X127622204Y-91576862D01*
X127633935Y-91615532D01*
X127638500Y-91661888D01*
X127638500Y-92738112D01*
X127633935Y-92784468D01*
X127622204Y-92823138D01*
X127603154Y-92858777D01*
X127577517Y-92890017D01*
X127546277Y-92915654D01*
X127510638Y-92934704D01*
X127471968Y-92946435D01*
X127425612Y-92951000D01*
X126774388Y-92951000D01*
X126728032Y-92946435D01*
X126689362Y-92934704D01*
X126653723Y-92915654D01*
X126622483Y-92890017D01*
X126596846Y-92858777D01*
X126577796Y-92823138D01*
X126566065Y-92784468D01*
X126561500Y-92738112D01*
X126561500Y-91661888D01*
X126566065Y-91615532D01*
X126577796Y-91576862D01*
X126596846Y-91541223D01*
X126622483Y-91509983D01*
X126653723Y-91484346D01*
X126689362Y-91465296D01*
X126728032Y-91453565D01*
X126774388Y-91449000D01*
X127425612Y-91449000D01*
X127471968Y-91453565D01*
X127471968Y-91453565D01*
G37*
G36*
X125131552Y-90566331D02*
G01*
X125213627Y-90600328D01*
X125213629Y-90600329D01*
X125250813Y-90625175D01*
X125287495Y-90649685D01*
X125350315Y-90712505D01*
X125399672Y-90786373D01*
X125433669Y-90868448D01*
X125451000Y-90955579D01*
X125451000Y-91044421D01*
X125433669Y-91131552D01*
X125399672Y-91213627D01*
X125372325Y-91254555D01*
X125360774Y-91276166D01*
X125353661Y-91299615D01*
X125351259Y-91324001D01*
X125353661Y-91348387D01*
X125360774Y-91371836D01*
X125372325Y-91393447D01*
X125387870Y-91412389D01*
X125406812Y-91427934D01*
X125428423Y-91439485D01*
X125451872Y-91446598D01*
X125476258Y-91449000D01*
X125550612Y-91449000D01*
X125596968Y-91453565D01*
X125635638Y-91465296D01*
X125671277Y-91484346D01*
X125702517Y-91509983D01*
X125728154Y-91541223D01*
X125747204Y-91576862D01*
X125758935Y-91615532D01*
X125763500Y-91661888D01*
X125763500Y-92738112D01*
X125758935Y-92784468D01*
X125747204Y-92823138D01*
X125728154Y-92858777D01*
X125702517Y-92890017D01*
X125671277Y-92915654D01*
X125635638Y-92934704D01*
X125596968Y-92946435D01*
X125550612Y-92951000D01*
X124899388Y-92951000D01*
X124853032Y-92946435D01*
X124814362Y-92934704D01*
X124778723Y-92915654D01*
X124747483Y-92890017D01*
X124721846Y-92858777D01*
X124702796Y-92823138D01*
X124691065Y-92784468D01*
X124686500Y-92738112D01*
X124686500Y-91661888D01*
X124691065Y-91615532D01*
X124702796Y-91576862D01*
X124721846Y-91541223D01*
X124732231Y-91528569D01*
X124745845Y-91508195D01*
X124755223Y-91485557D01*
X124760004Y-91461523D01*
X124760004Y-91437019D01*
X124755224Y-91412986D01*
X124745847Y-91390347D01*
X124732234Y-91369972D01*
X124720706Y-91359524D01*
X124721210Y-91359020D01*
X124649685Y-91287495D01*
X124625175Y-91250813D01*
X124600329Y-91213629D01*
X124600328Y-91213627D01*
X124566331Y-91131552D01*
X124549000Y-91044421D01*
X124549000Y-90955579D01*
X124566331Y-90868448D01*
X124600328Y-90786373D01*
X124649685Y-90712505D01*
X124712505Y-90649685D01*
X124749187Y-90625175D01*
X124786371Y-90600329D01*
X124786373Y-90600328D01*
X124868448Y-90566331D01*
X124955579Y-90549000D01*
X125044421Y-90549000D01*
X125131552Y-90566331D01*
X125131552Y-90566331D01*
G37*
G36*
X134666823Y-90561313D02*
G01*
X134827242Y-90609976D01*
X134901532Y-90649685D01*
X134975078Y-90688996D01*
X135104659Y-90795341D01*
X135211004Y-90924922D01*
X135211005Y-90924924D01*
X135290024Y-91072758D01*
X135338687Y-91233178D01*
X135351000Y-91358197D01*
X135351000Y-92041804D01*
X135338687Y-92166823D01*
X135326734Y-92206225D01*
X135295675Y-92308615D01*
X135290024Y-92327242D01*
X135250958Y-92400329D01*
X135211004Y-92475078D01*
X135108213Y-92600328D01*
X135104659Y-92604659D01*
X134975077Y-92711005D01*
X134827241Y-92790024D01*
X134666822Y-92838687D01*
X134500000Y-92855117D01*
X134333177Y-92838687D01*
X134172758Y-92790024D01*
X134024924Y-92711005D01*
X134024922Y-92711004D01*
X133895341Y-92604659D01*
X133891787Y-92600328D01*
X133788995Y-92475077D01*
X133709976Y-92327241D01*
X133661313Y-92166822D01*
X133649000Y-92041803D01*
X133649000Y-91358196D01*
X133661313Y-91233174D01*
X133709975Y-91072761D01*
X133788996Y-90924924D01*
X133788997Y-90924922D01*
X133895342Y-90795341D01*
X134024923Y-90688996D01*
X134098469Y-90649685D01*
X134172759Y-90609976D01*
X134333178Y-90561313D01*
X134500000Y-90544883D01*
X134666823Y-90561313D01*
X134666823Y-90561313D01*
G37*
G36*
X136666823Y-90561313D02*
G01*
X136827242Y-90609976D01*
X136901532Y-90649685D01*
X136975078Y-90688996D01*
X137104659Y-90795341D01*
X137211004Y-90924922D01*
X137211005Y-90924924D01*
X137290024Y-91072758D01*
X137338687Y-91233178D01*
X137351000Y-91358197D01*
X137351000Y-92041804D01*
X137338687Y-92166823D01*
X137326734Y-92206225D01*
X137295675Y-92308615D01*
X137290024Y-92327242D01*
X137250958Y-92400329D01*
X137211004Y-92475078D01*
X137108213Y-92600328D01*
X137104659Y-92604659D01*
X136975077Y-92711005D01*
X136827241Y-92790024D01*
X136666822Y-92838687D01*
X136500000Y-92855117D01*
X136333177Y-92838687D01*
X136172758Y-92790024D01*
X136024924Y-92711005D01*
X136024922Y-92711004D01*
X135895341Y-92604659D01*
X135891787Y-92600328D01*
X135788995Y-92475077D01*
X135709976Y-92327241D01*
X135661313Y-92166822D01*
X135649000Y-92041803D01*
X135649000Y-91358196D01*
X135661313Y-91233174D01*
X135709975Y-91072761D01*
X135788996Y-90924924D01*
X135788997Y-90924922D01*
X135895342Y-90795341D01*
X136024923Y-90688996D01*
X136098469Y-90649685D01*
X136172759Y-90609976D01*
X136333178Y-90561313D01*
X136500000Y-90544883D01*
X136666823Y-90561313D01*
X136666823Y-90561313D01*
G37*
G36*
X132277395Y-90685546D02*
G01*
X132450466Y-90757234D01*
X132507497Y-90795341D01*
X132606227Y-90861310D01*
X132738690Y-90993773D01*
X132738691Y-90993775D01*
X132842766Y-91149534D01*
X132914454Y-91322605D01*
X132951000Y-91506333D01*
X132951000Y-91693667D01*
X132914454Y-91877395D01*
X132842766Y-92050466D01*
X132842765Y-92050467D01*
X132738690Y-92206227D01*
X132606227Y-92338690D01*
X132527818Y-92391081D01*
X132450466Y-92442766D01*
X132277395Y-92514454D01*
X132093667Y-92551000D01*
X131906333Y-92551000D01*
X131722605Y-92514454D01*
X131549534Y-92442766D01*
X131472182Y-92391081D01*
X131393773Y-92338690D01*
X131261310Y-92206227D01*
X131157235Y-92050467D01*
X131157234Y-92050466D01*
X131085546Y-91877395D01*
X131049000Y-91693667D01*
X131049000Y-91506333D01*
X131085546Y-91322605D01*
X131157234Y-91149534D01*
X131261309Y-90993775D01*
X131261310Y-90993773D01*
X131393773Y-90861310D01*
X131492503Y-90795341D01*
X131549534Y-90757234D01*
X131722605Y-90685546D01*
X131906333Y-90649000D01*
X132093667Y-90649000D01*
X132277395Y-90685546D01*
X132277395Y-90685546D01*
G37*
G36*
X129954049Y-87471442D02*
G01*
X130246414Y-87560130D01*
X130246416Y-87560131D01*
X130515858Y-87704150D01*
X130752029Y-87897971D01*
X130945850Y-88134142D01*
X131060693Y-88349000D01*
X131089870Y-88403586D01*
X131178558Y-88695951D01*
X131201000Y-88923810D01*
X131201000Y-90076190D01*
X131178558Y-90304049D01*
X131098995Y-90566332D01*
X131089869Y-90596416D01*
X130945850Y-90865858D01*
X130840872Y-90993773D01*
X130752029Y-91102029D01*
X130616045Y-91213627D01*
X130515856Y-91295850D01*
X130268744Y-91427934D01*
X130246413Y-91439870D01*
X129954048Y-91528558D01*
X129650000Y-91558504D01*
X129345951Y-91528558D01*
X129053586Y-91439870D01*
X129031255Y-91427934D01*
X128784142Y-91295850D01*
X128654426Y-91189395D01*
X128547971Y-91102029D01*
X128354151Y-90865857D01*
X128351721Y-90861310D01*
X128210131Y-90596415D01*
X128199483Y-90561313D01*
X128121442Y-90304048D01*
X128099000Y-90076189D01*
X128099000Y-88923810D01*
X128121442Y-88695951D01*
X128210130Y-88403586D01*
X128354151Y-88134142D01*
X128547972Y-87897971D01*
X128784143Y-87704150D01*
X129053585Y-87560131D01*
X129053587Y-87560130D01*
X129345952Y-87471442D01*
X129650000Y-87441496D01*
X129954049Y-87471442D01*
X129954049Y-87471442D01*
G37*
G36*
X141654049Y-87471442D02*
G01*
X141946414Y-87560130D01*
X141946416Y-87560131D01*
X142215858Y-87704150D01*
X142452029Y-87897971D01*
X142645850Y-88134142D01*
X142760693Y-88349000D01*
X142789870Y-88403586D01*
X142878558Y-88695951D01*
X142901000Y-88923810D01*
X142901000Y-90076190D01*
X142878558Y-90304049D01*
X142798995Y-90566332D01*
X142789869Y-90596416D01*
X142645850Y-90865858D01*
X142540872Y-90993773D01*
X142452029Y-91102029D01*
X142316045Y-91213627D01*
X142215856Y-91295850D01*
X141968744Y-91427934D01*
X141946413Y-91439870D01*
X141654048Y-91528558D01*
X141350000Y-91558504D01*
X141045951Y-91528558D01*
X140753586Y-91439870D01*
X140731255Y-91427934D01*
X140484142Y-91295850D01*
X140354426Y-91189395D01*
X140247971Y-91102029D01*
X140054151Y-90865857D01*
X140051721Y-90861310D01*
X139910131Y-90596415D01*
X139899483Y-90561313D01*
X139821442Y-90304048D01*
X139799000Y-90076189D01*
X139799000Y-88923810D01*
X139821442Y-88695951D01*
X139910130Y-88403586D01*
X140054151Y-88134142D01*
X140247972Y-87897971D01*
X140484143Y-87704150D01*
X140753585Y-87560131D01*
X140753587Y-87560130D01*
X141045952Y-87471442D01*
X141350000Y-87441496D01*
X141654049Y-87471442D01*
X141654049Y-87471442D01*
G37*
G36*
X150131552Y-90566331D02*
G01*
X150213627Y-90600328D01*
X150213629Y-90600329D01*
X150250813Y-90625175D01*
X150287495Y-90649685D01*
X150350315Y-90712505D01*
X150399672Y-90786373D01*
X150433669Y-90868448D01*
X150451000Y-90955579D01*
X150451000Y-91044421D01*
X150433669Y-91131552D01*
X150399672Y-91213627D01*
X150399671Y-91213629D01*
X150374825Y-91250813D01*
X150350315Y-91287495D01*
X150287495Y-91350315D01*
X150250813Y-91374825D01*
X150213629Y-91399671D01*
X150213628Y-91399672D01*
X150213627Y-91399672D01*
X150131552Y-91433669D01*
X150044421Y-91451000D01*
X149955579Y-91451000D01*
X149868448Y-91433669D01*
X149786373Y-91399672D01*
X149786372Y-91399672D01*
X149786371Y-91399671D01*
X149749187Y-91374825D01*
X149712505Y-91350315D01*
X149649685Y-91287495D01*
X149625175Y-91250813D01*
X149600329Y-91213629D01*
X149600328Y-91213627D01*
X149566331Y-91131552D01*
X149549000Y-91044421D01*
X149549000Y-90955579D01*
X149566331Y-90868448D01*
X149600328Y-90786373D01*
X149649685Y-90712505D01*
X149712505Y-90649685D01*
X149749187Y-90625175D01*
X149786371Y-90600329D01*
X149786373Y-90600328D01*
X149868448Y-90566331D01*
X149955579Y-90549000D01*
X150044421Y-90549000D01*
X150131552Y-90566331D01*
X150131552Y-90566331D01*
G37*
G36*
X148131552Y-90566331D02*
G01*
X148213627Y-90600328D01*
X148213629Y-90600329D01*
X148250813Y-90625175D01*
X148287495Y-90649685D01*
X148350315Y-90712505D01*
X148399672Y-90786373D01*
X148433669Y-90868448D01*
X148451000Y-90955579D01*
X148451000Y-91044421D01*
X148433669Y-91131552D01*
X148399672Y-91213627D01*
X148399671Y-91213629D01*
X148374825Y-91250813D01*
X148350315Y-91287495D01*
X148287495Y-91350315D01*
X148250813Y-91374825D01*
X148213629Y-91399671D01*
X148213628Y-91399672D01*
X148213627Y-91399672D01*
X148131552Y-91433669D01*
X148044421Y-91451000D01*
X147955579Y-91451000D01*
X147868448Y-91433669D01*
X147786373Y-91399672D01*
X147786372Y-91399672D01*
X147786371Y-91399671D01*
X147749187Y-91374825D01*
X147712505Y-91350315D01*
X147649685Y-91287495D01*
X147625175Y-91250813D01*
X147600329Y-91213629D01*
X147600328Y-91213627D01*
X147566331Y-91131552D01*
X147549000Y-91044421D01*
X147549000Y-90955579D01*
X147566331Y-90868448D01*
X147600328Y-90786373D01*
X147649685Y-90712505D01*
X147712505Y-90649685D01*
X147749187Y-90625175D01*
X147786371Y-90600329D01*
X147786373Y-90600328D01*
X147868448Y-90566331D01*
X147955579Y-90549000D01*
X148044421Y-90549000D01*
X148131552Y-90566331D01*
X148131552Y-90566331D01*
G37*
G36*
X146131552Y-90566331D02*
G01*
X146213627Y-90600328D01*
X146213629Y-90600329D01*
X146250813Y-90625175D01*
X146287495Y-90649685D01*
X146350315Y-90712505D01*
X146399672Y-90786373D01*
X146433669Y-90868448D01*
X146451000Y-90955579D01*
X146451000Y-91044421D01*
X146433669Y-91131552D01*
X146399672Y-91213627D01*
X146399671Y-91213629D01*
X146374825Y-91250813D01*
X146350315Y-91287495D01*
X146287495Y-91350315D01*
X146250813Y-91374825D01*
X146213629Y-91399671D01*
X146213628Y-91399672D01*
X146213627Y-91399672D01*
X146131552Y-91433669D01*
X146044421Y-91451000D01*
X145955579Y-91451000D01*
X145868448Y-91433669D01*
X145786373Y-91399672D01*
X145786372Y-91399672D01*
X145786371Y-91399671D01*
X145749187Y-91374825D01*
X145712505Y-91350315D01*
X145649685Y-91287495D01*
X145625175Y-91250813D01*
X145600329Y-91213629D01*
X145600328Y-91213627D01*
X145566331Y-91131552D01*
X145549000Y-91044421D01*
X145549000Y-90955579D01*
X145566331Y-90868448D01*
X145600328Y-90786373D01*
X145649685Y-90712505D01*
X145712505Y-90649685D01*
X145749187Y-90625175D01*
X145786371Y-90600329D01*
X145786373Y-90600328D01*
X145868448Y-90566331D01*
X145955579Y-90549000D01*
X146044421Y-90549000D01*
X146131552Y-90566331D01*
X146131552Y-90566331D01*
G37*
G36*
X144131552Y-90566331D02*
G01*
X144213627Y-90600328D01*
X144213629Y-90600329D01*
X144250813Y-90625175D01*
X144287495Y-90649685D01*
X144350315Y-90712505D01*
X144399672Y-90786373D01*
X144433669Y-90868448D01*
X144451000Y-90955579D01*
X144451000Y-91044421D01*
X144433669Y-91131552D01*
X144399672Y-91213627D01*
X144399671Y-91213629D01*
X144374825Y-91250813D01*
X144350315Y-91287495D01*
X144287495Y-91350315D01*
X144250813Y-91374825D01*
X144213629Y-91399671D01*
X144213628Y-91399672D01*
X144213627Y-91399672D01*
X144131552Y-91433669D01*
X144044421Y-91451000D01*
X143955579Y-91451000D01*
X143868448Y-91433669D01*
X143786373Y-91399672D01*
X143786372Y-91399672D01*
X143786371Y-91399671D01*
X143749187Y-91374825D01*
X143712505Y-91350315D01*
X143649685Y-91287495D01*
X143625175Y-91250813D01*
X143600329Y-91213629D01*
X143600328Y-91213627D01*
X143566331Y-91131552D01*
X143549000Y-91044421D01*
X143549000Y-90955579D01*
X143566331Y-90868448D01*
X143600328Y-90786373D01*
X143649685Y-90712505D01*
X143712505Y-90649685D01*
X143749187Y-90625175D01*
X143786371Y-90600329D01*
X143786373Y-90600328D01*
X143868448Y-90566331D01*
X143955579Y-90549000D01*
X144044421Y-90549000D01*
X144131552Y-90566331D01*
X144131552Y-90566331D01*
G37*
G36*
X133424549Y-88371116D02*
G01*
X133535734Y-88393232D01*
X133745203Y-88479997D01*
X133933720Y-88605960D01*
X134094040Y-88766280D01*
X134220003Y-88954797D01*
X134306768Y-89164266D01*
X134351000Y-89386636D01*
X134351000Y-89613364D01*
X134306768Y-89835734D01*
X134220003Y-90045203D01*
X134094040Y-90233720D01*
X133933720Y-90394040D01*
X133745203Y-90520003D01*
X133535734Y-90606768D01*
X133424549Y-90628884D01*
X133313365Y-90651000D01*
X133086635Y-90651000D01*
X132975451Y-90628884D01*
X132864266Y-90606768D01*
X132654797Y-90520003D01*
X132466280Y-90394040D01*
X132305960Y-90233720D01*
X132179997Y-90045203D01*
X132093232Y-89835734D01*
X132049000Y-89613364D01*
X132049000Y-89386636D01*
X132093232Y-89164266D01*
X132179997Y-88954797D01*
X132305960Y-88766280D01*
X132466280Y-88605960D01*
X132654797Y-88479997D01*
X132864266Y-88393232D01*
X132975451Y-88371116D01*
X133086635Y-88349000D01*
X133313365Y-88349000D01*
X133424549Y-88371116D01*
X133424549Y-88371116D01*
G37*
G36*
X138024549Y-88371116D02*
G01*
X138135734Y-88393232D01*
X138345203Y-88479997D01*
X138533720Y-88605960D01*
X138694040Y-88766280D01*
X138820003Y-88954797D01*
X138906768Y-89164266D01*
X138951000Y-89386636D01*
X138951000Y-89613364D01*
X138906768Y-89835734D01*
X138820003Y-90045203D01*
X138694040Y-90233720D01*
X138533720Y-90394040D01*
X138345203Y-90520003D01*
X138135734Y-90606768D01*
X138024549Y-90628884D01*
X137913365Y-90651000D01*
X137686635Y-90651000D01*
X137575451Y-90628884D01*
X137464266Y-90606768D01*
X137254797Y-90520003D01*
X137066280Y-90394040D01*
X136905960Y-90233720D01*
X136779997Y-90045203D01*
X136693232Y-89835734D01*
X136649000Y-89613364D01*
X136649000Y-89386636D01*
X136693232Y-89164266D01*
X136779997Y-88954797D01*
X136905960Y-88766280D01*
X137066280Y-88605960D01*
X137254797Y-88479997D01*
X137464266Y-88393232D01*
X137575451Y-88371116D01*
X137686635Y-88349000D01*
X137913365Y-88349000D01*
X138024549Y-88371116D01*
X138024549Y-88371116D01*
G37*
M02*
