G04 #@! TF.GenerationSoftware,KiCad,Pcbnew,(5.1.4)-1*
G04 #@! TF.CreationDate,2019-10-26T17:50:02-04:00*
G04 #@! TF.ProjectId,usb-vertical-splitter,7573622d-7665-4727-9469-63616c2d7370,0*
G04 #@! TF.SameCoordinates,Original*
G04 #@! TF.FileFunction,Legend,Bot*
G04 #@! TF.FilePolarity,Positive*
%FSLAX46Y46*%
G04 Gerber Fmt 4.6, Leading zero omitted, Abs format (unit mm)*
G04 Created by KiCad (PCBNEW (5.1.4)-1) date 2019-10-26 17:50:02*
%MOMM*%
%LPD*%
G04 APERTURE LIST*
%ADD10C,0.475000*%
%ADD11C,0.010000*%
G04 APERTURE END LIST*
D10*
X147404761Y-106133333D02*
X147404761Y-106495238D01*
X147500000Y-106676190D01*
X147690476Y-106857142D01*
X148071428Y-106947619D01*
X148738095Y-106947619D01*
X149119047Y-106857142D01*
X149309523Y-106676190D01*
X149404761Y-106495238D01*
X149404761Y-106133333D01*
X149309523Y-105952380D01*
X149119047Y-105771428D01*
X148738095Y-105680952D01*
X148071428Y-105680952D01*
X147690476Y-105771428D01*
X147500000Y-105952380D01*
X147404761Y-106133333D01*
X149309523Y-107671428D02*
X149404761Y-107942857D01*
X149404761Y-108395238D01*
X149309523Y-108576190D01*
X149214285Y-108666666D01*
X149023809Y-108757142D01*
X148833333Y-108757142D01*
X148642857Y-108666666D01*
X148547619Y-108576190D01*
X148452380Y-108395238D01*
X148357142Y-108033333D01*
X148261904Y-107852380D01*
X148166666Y-107761904D01*
X147976190Y-107671428D01*
X147785714Y-107671428D01*
X147595238Y-107761904D01*
X147500000Y-107852380D01*
X147404761Y-108033333D01*
X147404761Y-108485714D01*
X147500000Y-108757142D01*
X149404761Y-109571428D02*
X147404761Y-109571428D01*
X148357142Y-109571428D02*
X148357142Y-110657142D01*
X149404761Y-110657142D02*
X147404761Y-110657142D01*
X147404761Y-111380952D02*
X149404761Y-111833333D01*
X147976190Y-112195238D01*
X149404761Y-112557142D01*
X147404761Y-113009523D01*
D11*
G36*
X128153464Y-98300427D02*
G01*
X128040882Y-98897618D01*
X127625469Y-99068865D01*
X127210055Y-99240112D01*
X126711698Y-98901233D01*
X126572131Y-98806877D01*
X126445971Y-98722630D01*
X126339104Y-98652338D01*
X126257417Y-98599847D01*
X126206798Y-98569004D01*
X126193013Y-98562353D01*
X126168179Y-98579458D01*
X126115111Y-98626744D01*
X126039759Y-98698172D01*
X125948070Y-98787700D01*
X125845992Y-98889289D01*
X125739473Y-98996898D01*
X125634463Y-99104487D01*
X125536908Y-99206015D01*
X125452757Y-99295441D01*
X125387959Y-99366726D01*
X125348462Y-99413828D01*
X125339019Y-99429592D01*
X125352608Y-99458653D01*
X125390706Y-99522321D01*
X125449306Y-99614367D01*
X125524402Y-99728564D01*
X125611991Y-99858684D01*
X125662745Y-99932901D01*
X125755254Y-100068422D01*
X125837459Y-100190716D01*
X125905369Y-100293695D01*
X125954999Y-100371273D01*
X125982359Y-100417361D01*
X125986470Y-100427047D01*
X125977150Y-100454574D01*
X125951745Y-100518728D01*
X125914088Y-100610490D01*
X125868013Y-100720839D01*
X125817353Y-100840755D01*
X125765940Y-100961219D01*
X125717610Y-101073209D01*
X125676193Y-101167707D01*
X125645525Y-101235692D01*
X125629438Y-101268143D01*
X125628488Y-101269420D01*
X125603227Y-101275617D01*
X125535954Y-101289440D01*
X125433639Y-101309532D01*
X125303258Y-101334534D01*
X125151783Y-101363086D01*
X125063406Y-101379551D01*
X124901547Y-101410369D01*
X124755350Y-101439694D01*
X124632212Y-101465921D01*
X124539530Y-101487446D01*
X124484698Y-101502665D01*
X124473676Y-101507493D01*
X124462881Y-101540174D01*
X124454170Y-101613985D01*
X124447539Y-101720292D01*
X124442981Y-101850467D01*
X124440490Y-101995876D01*
X124440061Y-102147890D01*
X124441688Y-102297877D01*
X124445364Y-102437206D01*
X124451084Y-102557245D01*
X124458842Y-102649365D01*
X124468631Y-102704932D01*
X124474503Y-102716500D01*
X124509600Y-102730365D01*
X124583971Y-102750188D01*
X124687776Y-102773639D01*
X124811180Y-102798391D01*
X124854258Y-102806398D01*
X125061952Y-102844441D01*
X125226015Y-102875079D01*
X125351869Y-102899529D01*
X125444934Y-102919009D01*
X125510632Y-102934736D01*
X125554382Y-102947928D01*
X125581607Y-102959804D01*
X125597727Y-102971580D01*
X125599982Y-102973908D01*
X125622496Y-103011400D01*
X125656841Y-103084365D01*
X125699588Y-103183867D01*
X125747307Y-103300973D01*
X125796569Y-103426748D01*
X125843944Y-103552257D01*
X125886004Y-103668565D01*
X125919319Y-103766739D01*
X125940458Y-103837843D01*
X125945994Y-103872942D01*
X125945533Y-103874172D01*
X125926776Y-103902861D01*
X125884223Y-103965985D01*
X125822346Y-104056973D01*
X125745617Y-104169255D01*
X125658508Y-104296260D01*
X125633701Y-104332353D01*
X125545247Y-104463203D01*
X125467411Y-104582591D01*
X125404433Y-104683662D01*
X125360554Y-104759559D01*
X125340014Y-104803427D01*
X125339019Y-104808817D01*
X125356277Y-104837144D01*
X125403964Y-104893261D01*
X125475949Y-104971137D01*
X125566102Y-105064740D01*
X125668294Y-105168041D01*
X125776394Y-105275006D01*
X125884271Y-105379606D01*
X125985795Y-105475809D01*
X126074837Y-105557584D01*
X126145266Y-105618900D01*
X126190952Y-105653726D01*
X126203590Y-105659412D01*
X126233008Y-105646020D01*
X126293238Y-105609899D01*
X126374470Y-105557136D01*
X126436969Y-105514667D01*
X126550214Y-105436740D01*
X126684325Y-105344984D01*
X126818844Y-105253375D01*
X126891166Y-105204346D01*
X127135961Y-105038770D01*
X127341449Y-105149875D01*
X127435063Y-105198548D01*
X127514669Y-105236381D01*
X127568532Y-105257958D01*
X127582242Y-105260961D01*
X127598729Y-105238793D01*
X127631254Y-105176149D01*
X127677391Y-105078809D01*
X127734709Y-104952549D01*
X127800783Y-104803150D01*
X127873184Y-104636388D01*
X127949483Y-104458042D01*
X128027253Y-104273891D01*
X128104065Y-104089712D01*
X128177493Y-103911285D01*
X128245107Y-103744387D01*
X128304479Y-103594797D01*
X128353183Y-103468293D01*
X128388789Y-103370654D01*
X128408869Y-103307657D01*
X128412099Y-103286021D01*
X128386503Y-103258424D01*
X128330461Y-103213625D01*
X128255688Y-103160934D01*
X128249412Y-103156765D01*
X128056154Y-103002069D01*
X127900325Y-102821591D01*
X127783275Y-102621102D01*
X127706354Y-102406374D01*
X127670913Y-102183177D01*
X127678302Y-101957281D01*
X127729872Y-101734459D01*
X127826973Y-101520479D01*
X127855541Y-101473664D01*
X128004131Y-101284618D01*
X128179672Y-101132812D01*
X128376089Y-101019034D01*
X128587306Y-100944075D01*
X128807246Y-100908722D01*
X129029836Y-100913767D01*
X129248998Y-100959999D01*
X129458657Y-101048206D01*
X129652738Y-101179179D01*
X129712773Y-101232337D01*
X129865564Y-101398739D01*
X129976902Y-101573912D01*
X130053276Y-101770266D01*
X130095812Y-101964717D01*
X130106313Y-102183342D01*
X130071299Y-102403052D01*
X129994326Y-102616420D01*
X129878952Y-102816022D01*
X129728734Y-102994429D01*
X129547226Y-103144217D01*
X129523372Y-103160006D01*
X129447798Y-103211712D01*
X129390348Y-103256512D01*
X129362882Y-103285117D01*
X129362482Y-103286021D01*
X129368379Y-103316964D01*
X129391754Y-103387191D01*
X129430178Y-103490925D01*
X129481222Y-103622390D01*
X129542457Y-103775807D01*
X129611455Y-103945401D01*
X129685786Y-104125393D01*
X129763021Y-104310008D01*
X129840731Y-104493468D01*
X129916488Y-104669996D01*
X129987862Y-104833814D01*
X130052425Y-104979147D01*
X130107747Y-105100217D01*
X130151399Y-105191247D01*
X130180953Y-105246460D01*
X130192855Y-105260961D01*
X130229222Y-105249669D01*
X130297269Y-105219385D01*
X130385263Y-105175520D01*
X130433649Y-105149875D01*
X130639136Y-105038770D01*
X130883931Y-105204346D01*
X131008893Y-105289170D01*
X131145704Y-105382516D01*
X131273911Y-105470408D01*
X131338128Y-105514667D01*
X131428448Y-105575318D01*
X131504928Y-105623381D01*
X131557592Y-105652770D01*
X131574697Y-105658982D01*
X131599594Y-105642223D01*
X131654694Y-105595436D01*
X131734656Y-105523480D01*
X131834139Y-105431212D01*
X131947799Y-105323490D01*
X132019684Y-105254326D01*
X132145448Y-105130757D01*
X132254136Y-105020234D01*
X132341354Y-104927485D01*
X132402710Y-104857237D01*
X132433808Y-104814220D01*
X132436791Y-104805490D01*
X132422946Y-104772284D01*
X132384687Y-104705142D01*
X132326258Y-104610863D01*
X132251902Y-104496245D01*
X132165864Y-104368083D01*
X132141397Y-104332353D01*
X132052245Y-104202489D01*
X131972261Y-104085569D01*
X131905919Y-103988162D01*
X131857688Y-103916839D01*
X131832042Y-103878170D01*
X131829564Y-103874172D01*
X131833270Y-103843355D01*
X131852938Y-103775599D01*
X131885139Y-103679839D01*
X131926444Y-103565009D01*
X131973424Y-103440044D01*
X132022650Y-103313879D01*
X132070691Y-103195448D01*
X132114118Y-103093685D01*
X132149503Y-103017526D01*
X132173415Y-102975904D01*
X132175115Y-102973908D01*
X132189737Y-102962013D01*
X132214434Y-102950250D01*
X132254627Y-102937401D01*
X132315736Y-102922249D01*
X132403182Y-102903576D01*
X132522387Y-102880165D01*
X132678772Y-102850797D01*
X132877756Y-102814255D01*
X132920839Y-102806398D01*
X133048529Y-102781727D01*
X133159846Y-102757593D01*
X133244954Y-102736324D01*
X133294016Y-102720248D01*
X133300594Y-102716500D01*
X133311435Y-102683273D01*
X133320246Y-102609021D01*
X133327023Y-102502376D01*
X133331759Y-102371967D01*
X133334449Y-102226427D01*
X133335086Y-102074386D01*
X133333665Y-101924476D01*
X133330179Y-101785328D01*
X133324623Y-101665572D01*
X133316991Y-101573841D01*
X133307277Y-101518766D01*
X133301421Y-101507493D01*
X133268819Y-101496123D01*
X133194581Y-101477624D01*
X133086103Y-101453602D01*
X132950782Y-101425662D01*
X132796014Y-101395408D01*
X132711692Y-101379551D01*
X132551703Y-101349644D01*
X132409032Y-101322550D01*
X132290651Y-101299631D01*
X132203534Y-101282243D01*
X132154654Y-101271747D01*
X132146609Y-101269420D01*
X132133012Y-101243186D01*
X132104270Y-101179995D01*
X132064214Y-101088877D01*
X132016675Y-100978857D01*
X131965484Y-100858965D01*
X131914473Y-100738227D01*
X131867473Y-100625671D01*
X131828315Y-100530326D01*
X131800830Y-100461217D01*
X131788850Y-100427374D01*
X131788627Y-100425895D01*
X131802208Y-100399197D01*
X131840284Y-100337760D01*
X131898852Y-100247689D01*
X131973911Y-100135090D01*
X132061459Y-100006070D01*
X132112352Y-99931961D01*
X132205090Y-99796077D01*
X132287458Y-99672709D01*
X132355438Y-99568097D01*
X132405011Y-99488483D01*
X132432157Y-99440107D01*
X132436078Y-99429262D01*
X132419224Y-99404020D01*
X132372631Y-99350124D01*
X132302251Y-99273613D01*
X132214034Y-99180523D01*
X132113934Y-99076895D01*
X132007901Y-98968764D01*
X131901888Y-98862170D01*
X131801847Y-98763150D01*
X131713729Y-98677742D01*
X131643486Y-98611985D01*
X131597071Y-98571916D01*
X131581543Y-98562353D01*
X131556260Y-98575800D01*
X131495788Y-98613575D01*
X131406007Y-98671835D01*
X131292796Y-98746734D01*
X131162036Y-98834425D01*
X131063400Y-98901233D01*
X130565042Y-99240112D01*
X130149629Y-99068865D01*
X129734215Y-98897618D01*
X129621633Y-98300427D01*
X129509050Y-97703235D01*
X128266047Y-97703235D01*
X128153464Y-98300427D01*
X128153464Y-98300427D01*
G37*
X128153464Y-98300427D02*
X128040882Y-98897618D01*
X127625469Y-99068865D01*
X127210055Y-99240112D01*
X126711698Y-98901233D01*
X126572131Y-98806877D01*
X126445971Y-98722630D01*
X126339104Y-98652338D01*
X126257417Y-98599847D01*
X126206798Y-98569004D01*
X126193013Y-98562353D01*
X126168179Y-98579458D01*
X126115111Y-98626744D01*
X126039759Y-98698172D01*
X125948070Y-98787700D01*
X125845992Y-98889289D01*
X125739473Y-98996898D01*
X125634463Y-99104487D01*
X125536908Y-99206015D01*
X125452757Y-99295441D01*
X125387959Y-99366726D01*
X125348462Y-99413828D01*
X125339019Y-99429592D01*
X125352608Y-99458653D01*
X125390706Y-99522321D01*
X125449306Y-99614367D01*
X125524402Y-99728564D01*
X125611991Y-99858684D01*
X125662745Y-99932901D01*
X125755254Y-100068422D01*
X125837459Y-100190716D01*
X125905369Y-100293695D01*
X125954999Y-100371273D01*
X125982359Y-100417361D01*
X125986470Y-100427047D01*
X125977150Y-100454574D01*
X125951745Y-100518728D01*
X125914088Y-100610490D01*
X125868013Y-100720839D01*
X125817353Y-100840755D01*
X125765940Y-100961219D01*
X125717610Y-101073209D01*
X125676193Y-101167707D01*
X125645525Y-101235692D01*
X125629438Y-101268143D01*
X125628488Y-101269420D01*
X125603227Y-101275617D01*
X125535954Y-101289440D01*
X125433639Y-101309532D01*
X125303258Y-101334534D01*
X125151783Y-101363086D01*
X125063406Y-101379551D01*
X124901547Y-101410369D01*
X124755350Y-101439694D01*
X124632212Y-101465921D01*
X124539530Y-101487446D01*
X124484698Y-101502665D01*
X124473676Y-101507493D01*
X124462881Y-101540174D01*
X124454170Y-101613985D01*
X124447539Y-101720292D01*
X124442981Y-101850467D01*
X124440490Y-101995876D01*
X124440061Y-102147890D01*
X124441688Y-102297877D01*
X124445364Y-102437206D01*
X124451084Y-102557245D01*
X124458842Y-102649365D01*
X124468631Y-102704932D01*
X124474503Y-102716500D01*
X124509600Y-102730365D01*
X124583971Y-102750188D01*
X124687776Y-102773639D01*
X124811180Y-102798391D01*
X124854258Y-102806398D01*
X125061952Y-102844441D01*
X125226015Y-102875079D01*
X125351869Y-102899529D01*
X125444934Y-102919009D01*
X125510632Y-102934736D01*
X125554382Y-102947928D01*
X125581607Y-102959804D01*
X125597727Y-102971580D01*
X125599982Y-102973908D01*
X125622496Y-103011400D01*
X125656841Y-103084365D01*
X125699588Y-103183867D01*
X125747307Y-103300973D01*
X125796569Y-103426748D01*
X125843944Y-103552257D01*
X125886004Y-103668565D01*
X125919319Y-103766739D01*
X125940458Y-103837843D01*
X125945994Y-103872942D01*
X125945533Y-103874172D01*
X125926776Y-103902861D01*
X125884223Y-103965985D01*
X125822346Y-104056973D01*
X125745617Y-104169255D01*
X125658508Y-104296260D01*
X125633701Y-104332353D01*
X125545247Y-104463203D01*
X125467411Y-104582591D01*
X125404433Y-104683662D01*
X125360554Y-104759559D01*
X125340014Y-104803427D01*
X125339019Y-104808817D01*
X125356277Y-104837144D01*
X125403964Y-104893261D01*
X125475949Y-104971137D01*
X125566102Y-105064740D01*
X125668294Y-105168041D01*
X125776394Y-105275006D01*
X125884271Y-105379606D01*
X125985795Y-105475809D01*
X126074837Y-105557584D01*
X126145266Y-105618900D01*
X126190952Y-105653726D01*
X126203590Y-105659412D01*
X126233008Y-105646020D01*
X126293238Y-105609899D01*
X126374470Y-105557136D01*
X126436969Y-105514667D01*
X126550214Y-105436740D01*
X126684325Y-105344984D01*
X126818844Y-105253375D01*
X126891166Y-105204346D01*
X127135961Y-105038770D01*
X127341449Y-105149875D01*
X127435063Y-105198548D01*
X127514669Y-105236381D01*
X127568532Y-105257958D01*
X127582242Y-105260961D01*
X127598729Y-105238793D01*
X127631254Y-105176149D01*
X127677391Y-105078809D01*
X127734709Y-104952549D01*
X127800783Y-104803150D01*
X127873184Y-104636388D01*
X127949483Y-104458042D01*
X128027253Y-104273891D01*
X128104065Y-104089712D01*
X128177493Y-103911285D01*
X128245107Y-103744387D01*
X128304479Y-103594797D01*
X128353183Y-103468293D01*
X128388789Y-103370654D01*
X128408869Y-103307657D01*
X128412099Y-103286021D01*
X128386503Y-103258424D01*
X128330461Y-103213625D01*
X128255688Y-103160934D01*
X128249412Y-103156765D01*
X128056154Y-103002069D01*
X127900325Y-102821591D01*
X127783275Y-102621102D01*
X127706354Y-102406374D01*
X127670913Y-102183177D01*
X127678302Y-101957281D01*
X127729872Y-101734459D01*
X127826973Y-101520479D01*
X127855541Y-101473664D01*
X128004131Y-101284618D01*
X128179672Y-101132812D01*
X128376089Y-101019034D01*
X128587306Y-100944075D01*
X128807246Y-100908722D01*
X129029836Y-100913767D01*
X129248998Y-100959999D01*
X129458657Y-101048206D01*
X129652738Y-101179179D01*
X129712773Y-101232337D01*
X129865564Y-101398739D01*
X129976902Y-101573912D01*
X130053276Y-101770266D01*
X130095812Y-101964717D01*
X130106313Y-102183342D01*
X130071299Y-102403052D01*
X129994326Y-102616420D01*
X129878952Y-102816022D01*
X129728734Y-102994429D01*
X129547226Y-103144217D01*
X129523372Y-103160006D01*
X129447798Y-103211712D01*
X129390348Y-103256512D01*
X129362882Y-103285117D01*
X129362482Y-103286021D01*
X129368379Y-103316964D01*
X129391754Y-103387191D01*
X129430178Y-103490925D01*
X129481222Y-103622390D01*
X129542457Y-103775807D01*
X129611455Y-103945401D01*
X129685786Y-104125393D01*
X129763021Y-104310008D01*
X129840731Y-104493468D01*
X129916488Y-104669996D01*
X129987862Y-104833814D01*
X130052425Y-104979147D01*
X130107747Y-105100217D01*
X130151399Y-105191247D01*
X130180953Y-105246460D01*
X130192855Y-105260961D01*
X130229222Y-105249669D01*
X130297269Y-105219385D01*
X130385263Y-105175520D01*
X130433649Y-105149875D01*
X130639136Y-105038770D01*
X130883931Y-105204346D01*
X131008893Y-105289170D01*
X131145704Y-105382516D01*
X131273911Y-105470408D01*
X131338128Y-105514667D01*
X131428448Y-105575318D01*
X131504928Y-105623381D01*
X131557592Y-105652770D01*
X131574697Y-105658982D01*
X131599594Y-105642223D01*
X131654694Y-105595436D01*
X131734656Y-105523480D01*
X131834139Y-105431212D01*
X131947799Y-105323490D01*
X132019684Y-105254326D01*
X132145448Y-105130757D01*
X132254136Y-105020234D01*
X132341354Y-104927485D01*
X132402710Y-104857237D01*
X132433808Y-104814220D01*
X132436791Y-104805490D01*
X132422946Y-104772284D01*
X132384687Y-104705142D01*
X132326258Y-104610863D01*
X132251902Y-104496245D01*
X132165864Y-104368083D01*
X132141397Y-104332353D01*
X132052245Y-104202489D01*
X131972261Y-104085569D01*
X131905919Y-103988162D01*
X131857688Y-103916839D01*
X131832042Y-103878170D01*
X131829564Y-103874172D01*
X131833270Y-103843355D01*
X131852938Y-103775599D01*
X131885139Y-103679839D01*
X131926444Y-103565009D01*
X131973424Y-103440044D01*
X132022650Y-103313879D01*
X132070691Y-103195448D01*
X132114118Y-103093685D01*
X132149503Y-103017526D01*
X132173415Y-102975904D01*
X132175115Y-102973908D01*
X132189737Y-102962013D01*
X132214434Y-102950250D01*
X132254627Y-102937401D01*
X132315736Y-102922249D01*
X132403182Y-102903576D01*
X132522387Y-102880165D01*
X132678772Y-102850797D01*
X132877756Y-102814255D01*
X132920839Y-102806398D01*
X133048529Y-102781727D01*
X133159846Y-102757593D01*
X133244954Y-102736324D01*
X133294016Y-102720248D01*
X133300594Y-102716500D01*
X133311435Y-102683273D01*
X133320246Y-102609021D01*
X133327023Y-102502376D01*
X133331759Y-102371967D01*
X133334449Y-102226427D01*
X133335086Y-102074386D01*
X133333665Y-101924476D01*
X133330179Y-101785328D01*
X133324623Y-101665572D01*
X133316991Y-101573841D01*
X133307277Y-101518766D01*
X133301421Y-101507493D01*
X133268819Y-101496123D01*
X133194581Y-101477624D01*
X133086103Y-101453602D01*
X132950782Y-101425662D01*
X132796014Y-101395408D01*
X132711692Y-101379551D01*
X132551703Y-101349644D01*
X132409032Y-101322550D01*
X132290651Y-101299631D01*
X132203534Y-101282243D01*
X132154654Y-101271747D01*
X132146609Y-101269420D01*
X132133012Y-101243186D01*
X132104270Y-101179995D01*
X132064214Y-101088877D01*
X132016675Y-100978857D01*
X131965484Y-100858965D01*
X131914473Y-100738227D01*
X131867473Y-100625671D01*
X131828315Y-100530326D01*
X131800830Y-100461217D01*
X131788850Y-100427374D01*
X131788627Y-100425895D01*
X131802208Y-100399197D01*
X131840284Y-100337760D01*
X131898852Y-100247689D01*
X131973911Y-100135090D01*
X132061459Y-100006070D01*
X132112352Y-99931961D01*
X132205090Y-99796077D01*
X132287458Y-99672709D01*
X132355438Y-99568097D01*
X132405011Y-99488483D01*
X132432157Y-99440107D01*
X132436078Y-99429262D01*
X132419224Y-99404020D01*
X132372631Y-99350124D01*
X132302251Y-99273613D01*
X132214034Y-99180523D01*
X132113934Y-99076895D01*
X132007901Y-98968764D01*
X131901888Y-98862170D01*
X131801847Y-98763150D01*
X131713729Y-98677742D01*
X131643486Y-98611985D01*
X131597071Y-98571916D01*
X131581543Y-98562353D01*
X131556260Y-98575800D01*
X131495788Y-98613575D01*
X131406007Y-98671835D01*
X131292796Y-98746734D01*
X131162036Y-98834425D01*
X131063400Y-98901233D01*
X130565042Y-99240112D01*
X130149629Y-99068865D01*
X129734215Y-98897618D01*
X129621633Y-98300427D01*
X129509050Y-97703235D01*
X128266047Y-97703235D01*
X128153464Y-98300427D01*
M02*
