G04 #@! TF.GenerationSoftware,KiCad,Pcbnew,(5.1.4)-1*
G04 #@! TF.CreationDate,2019-10-26T17:50:02-04:00*
G04 #@! TF.ProjectId,usb-vertical-splitter,7573622d-7665-4727-9469-63616c2d7370,0*
G04 #@! TF.SameCoordinates,Original*
G04 #@! TF.FileFunction,Legend,Top*
G04 #@! TF.FilePolarity,Positive*
%FSLAX46Y46*%
G04 Gerber Fmt 4.6, Leading zero omitted, Abs format (unit mm)*
G04 Created by KiCad (PCBNEW (5.1.4)-1) date 2019-10-26 17:50:02*
%MOMM*%
%LPD*%
G04 APERTURE LIST*
%ADD10C,0.350000*%
%ADD11C,0.120000*%
%ADD12C,0.100000*%
%ADD13C,0.150000*%
G04 APERTURE END LIST*
D10*
X128535714Y-113023809D02*
X128535714Y-111423809D01*
X129107142Y-111423809D01*
X129250000Y-111500000D01*
X129321428Y-111576190D01*
X129392857Y-111728571D01*
X129392857Y-111957142D01*
X129321428Y-112109523D01*
X129250000Y-112185714D01*
X129107142Y-112261904D01*
X128535714Y-112261904D01*
X130321428Y-111423809D02*
X130607142Y-111423809D01*
X130750000Y-111500000D01*
X130892857Y-111652380D01*
X130964285Y-111957142D01*
X130964285Y-112490476D01*
X130892857Y-112795238D01*
X130750000Y-112947619D01*
X130607142Y-113023809D01*
X130321428Y-113023809D01*
X130178571Y-112947619D01*
X130035714Y-112795238D01*
X129964285Y-112490476D01*
X129964285Y-111957142D01*
X130035714Y-111652380D01*
X130178571Y-111500000D01*
X130321428Y-111423809D01*
X131464285Y-111423809D02*
X131821428Y-113023809D01*
X132107142Y-111880952D01*
X132392857Y-113023809D01*
X132750000Y-111423809D01*
X133321428Y-112185714D02*
X133821428Y-112185714D01*
X134035714Y-113023809D02*
X133321428Y-113023809D01*
X133321428Y-111423809D01*
X134035714Y-111423809D01*
X135535714Y-113023809D02*
X135035714Y-112261904D01*
X134678571Y-113023809D02*
X134678571Y-111423809D01*
X135250000Y-111423809D01*
X135392857Y-111500000D01*
X135464285Y-111576190D01*
X135535714Y-111728571D01*
X135535714Y-111957142D01*
X135464285Y-112109523D01*
X135392857Y-112185714D01*
X135250000Y-112261904D01*
X134678571Y-112261904D01*
X146150000Y-113023809D02*
X146150000Y-111423809D01*
X146507142Y-111423809D01*
X146721428Y-111500000D01*
X146864285Y-111652380D01*
X146935714Y-111804761D01*
X147007142Y-112109523D01*
X147007142Y-112338095D01*
X146935714Y-112642857D01*
X146864285Y-112795238D01*
X146721428Y-112947619D01*
X146507142Y-113023809D01*
X146150000Y-113023809D01*
X147578571Y-112566666D02*
X148292857Y-112566666D01*
X147435714Y-113023809D02*
X147935714Y-111423809D01*
X148435714Y-113023809D01*
X148721428Y-111423809D02*
X149578571Y-111423809D01*
X149150000Y-113023809D02*
X149150000Y-111423809D01*
X150007142Y-112566666D02*
X150721428Y-112566666D01*
X149864285Y-113023809D02*
X150364285Y-111423809D01*
X150864285Y-113023809D01*
D11*
X126421078Y-91490000D02*
X125903922Y-91490000D01*
X126421078Y-92910000D02*
X125903922Y-92910000D01*
X138121078Y-109810000D02*
X137603922Y-109810000D01*
X138121078Y-108390000D02*
X137603922Y-108390000D01*
D12*
X129375000Y-86950000D02*
X129375000Y-86000000D01*
X141625000Y-87700000D02*
X141625000Y-85925000D01*
X129375000Y-87700000D02*
X129375000Y-86925000D01*
X140925000Y-71575000D02*
X141625000Y-71575000D01*
X141625000Y-71575000D02*
X141625000Y-72125000D01*
X130100000Y-71575000D02*
X129375000Y-71575000D01*
X129375000Y-71575000D02*
X129375000Y-72175000D01*
X154105000Y-107700000D02*
X154105000Y-108675000D01*
X154105000Y-108675000D02*
X153430000Y-108675000D01*
X153455000Y-95325000D02*
X154105000Y-95325000D01*
X154105000Y-95325000D02*
X154105000Y-96025000D01*
X140775000Y-107650000D02*
X140775000Y-108675000D01*
X140775000Y-108675000D02*
X141575000Y-108675000D01*
X140775000Y-96275000D02*
X140775000Y-95325000D01*
X140775000Y-95325000D02*
X141500000Y-95325000D01*
X134935000Y-108675000D02*
X134210000Y-108675000D01*
X134935000Y-107725000D02*
X134935000Y-108675000D01*
X134935000Y-95325000D02*
X134135000Y-95325000D01*
X134935000Y-96350000D02*
X134935000Y-95325000D01*
X121605000Y-108675000D02*
X121605000Y-107975000D01*
X122255000Y-108675000D02*
X121605000Y-108675000D01*
X121605000Y-95325000D02*
X122280000Y-95325000D01*
X121605000Y-96300000D02*
X121605000Y-95325000D01*
D11*
X138121078Y-107810000D02*
X137603922Y-107810000D01*
X138121078Y-106390000D02*
X137603922Y-106390000D01*
X136690000Y-104458578D02*
X136690000Y-103941422D01*
X138110000Y-104458578D02*
X138110000Y-103941422D01*
D13*
X148566666Y-93352380D02*
X148566666Y-94066666D01*
X148519047Y-94209523D01*
X148423809Y-94304761D01*
X148280952Y-94352380D01*
X148185714Y-94352380D01*
X148995238Y-93447619D02*
X149042857Y-93400000D01*
X149138095Y-93352380D01*
X149376190Y-93352380D01*
X149471428Y-93400000D01*
X149519047Y-93447619D01*
X149566666Y-93542857D01*
X149566666Y-93638095D01*
X149519047Y-93780952D01*
X148947619Y-94352380D01*
X149566666Y-94352380D01*
X125966666Y-110852380D02*
X125966666Y-111566666D01*
X125919047Y-111709523D01*
X125823809Y-111804761D01*
X125680952Y-111852380D01*
X125585714Y-111852380D01*
X126347619Y-110852380D02*
X126966666Y-110852380D01*
X126633333Y-111233333D01*
X126776190Y-111233333D01*
X126871428Y-111280952D01*
X126919047Y-111328571D01*
X126966666Y-111423809D01*
X126966666Y-111661904D01*
X126919047Y-111757142D01*
X126871428Y-111804761D01*
X126776190Y-111852380D01*
X126490476Y-111852380D01*
X126395238Y-111804761D01*
X126347619Y-111757142D01*
M02*
